<svg xmlns="http://www.w3.org/2000/svg" version="1.1" width="169" height="170">
<path d="M 37.878906 156.319336 L 37.878906 142.300781 L 38.738281 142.300781 L 38.738281 156.319336 Z " fill="rgb(0, 0, 0)" fill-opacity="1.000000" />
<path d="M 38.308594 166.418945 L 35.032227 159.866211 L 41.590332 159.866211 Z " fill="rgb(0, 0, 0)" fill-opacity="1.000000" />
<path d="M 129.308594 166.418945 L 126.032227 159.866211 L 132.590332 159.866211 Z " fill="rgb(0, 0, 0)" fill-opacity="1.000000" />
<path d="M 128.878906 156.319336 L 128.878906 142.300781 L 129.738281 142.300781 L 129.738281 156.319336 Z " fill="rgb(0, 0, 0)" fill-opacity="1.000000" />
<path d="M 8.450195 139.092285 L 10.136719 139.092285 L 10.136719 133.033691 L 8.117188 134.005859 L 8.117188 132.963867 L 10.125977 132.007812 L 11.210938 132.007812 L 11.210938 139.092285 L 12.875977 139.092285 L 12.875977 140.000000 L 8.450195 140.000000 Z " fill="rgb(0, 0, 0)" fill-opacity="1.000000" />
<path d="M 17.308594 136.191895 Q 16.583496 136.191895 16.188721 136.597412 Q 15.793945 137.002930 15.793945 137.744141 Q 15.793945 138.485352 16.194092 138.896240 Q 16.594238 139.307129 17.308594 139.307129 Q 18.039062 139.307129 18.433838 138.901611 Q 18.828613 138.496094 18.828613 137.744141 Q 18.828613 137.008301 18.428467 136.600098 Q 18.028320 136.191895 17.308594 136.191895 Z M 16.363281 135.740723 Q 15.670410 135.563477 15.281006 135.080078 Q 14.891602 134.596680 14.891602 133.914551 Q 14.891602 132.958496 15.541504 132.397217 Q 16.191406 131.835938 17.308594 131.835938 Q 18.431152 131.835938 19.081055 132.397217 Q 19.730957 132.958496 19.730957 133.914551 Q 19.730957 134.596680 19.341553 135.080078 Q 18.952148 135.563477 18.259277 135.740723 Q 19.064941 135.917969 19.491943 136.455078 Q 19.918945 136.992188 19.918945 137.846191 Q 19.918945 138.931152 19.226074 139.543457 Q 18.533203 140.155762 17.308594 140.155762 Q 16.083984 140.155762 15.393799 139.546143 Q 14.703613 138.936523 14.703613 137.856934 Q 14.703613 136.997559 15.130615 136.457764 Q 15.557617 135.917969 16.363281 135.740723 Z M 15.971191 134.016602 Q 15.971191 134.661133 16.314941 134.999512 Q 16.658691 135.337891 17.308594 135.337891 Q 17.963867 135.337891 18.307617 134.999512 Q 18.651367 134.661133 18.651367 134.016602 Q 18.651367 133.361328 18.310303 133.017578 Q 17.969238 132.673828 17.308594 132.673828 Q 16.658691 132.673828 16.314941 133.020264 Q 15.971191 133.366699 15.971191 134.016602 Z " fill="rgb(0, 0, 0)" fill-opacity="1.000000" />
<path d="M 26.226074 134.193848 L 26.226074 135.160645 Q 25.801758 134.913574 25.372070 134.790039 Q 24.942383 134.666504 24.496582 134.666504 Q 23.825195 134.666504 23.494873 134.884033 Q 23.164551 135.101562 23.164551 135.547363 Q 23.164551 135.950195 23.411621 136.148926 Q 23.658691 136.347656 24.641602 136.535645 L 25.039062 136.610840 Q 25.774902 136.750488 26.153564 137.169434 Q 26.532227 137.588379 26.532227 138.259766 Q 26.532227 139.151367 25.898438 139.653564 Q 25.264648 140.155762 24.136719 140.155762 Q 23.690918 140.155762 23.202148 140.061768 Q 22.713379 139.967773 22.144043 139.779785 L 22.144043 138.759277 Q 22.697266 139.043945 23.202148 139.186279 Q 23.707031 139.328613 24.158203 139.328613 Q 24.813477 139.328613 25.173340 139.062744 Q 25.533203 138.796875 25.533203 138.318848 Q 25.533203 137.631348 24.217285 137.368164 L 24.174316 137.357422 L 23.803711 137.282227 Q 22.949707 137.115723 22.557617 136.720947 Q 22.165527 136.326172 22.165527 135.644043 Q 22.165527 134.779297 22.750977 134.309326 Q 23.336426 133.839355 24.421387 133.839355 Q 24.904785 133.839355 25.350586 133.927979 Q 25.796387 134.016602 26.226074 134.193848 Z " fill="rgb(0, 0, 0)" fill-opacity="1.000000" />
<path d="M 38.308594 140.418945 L 35.032227 133.866211 L 41.590332 133.866211 Z " fill="rgb(0, 0, 0)" fill-opacity="1.000000" />
<path d="M 128.878906 143.319336 L 128.878906 129.300781 L 129.738281 129.300781 L 129.738281 143.319336 Z " fill="rgb(0, 0, 0)" fill-opacity="1.000000" />
<path d="M 37.878906 78.319336 L 37.878906 64.300781 L 38.738281 64.300781 L 38.738281 78.319336 Z " fill="rgb(0, 0, 0)" fill-opacity="1.000000" />
<path d="M 37.878906 91.319336 L 37.878906 77.300781 L 38.738281 77.300781 L 38.738281 91.319336 Z " fill="rgb(0, 0, 0)" fill-opacity="1.000000" />
<path d="M 37.878906 104.319336 L 37.878906 90.300781 L 38.738281 90.300781 L 38.738281 104.319336 Z " fill="rgb(0, 0, 0)" fill-opacity="1.000000" />
<path d="M 37.878906 117.319336 L 37.878906 103.300781 L 38.738281 103.300781 L 38.738281 117.319336 Z " fill="rgb(0, 0, 0)" fill-opacity="1.000000" />
<path d="M 37.878906 130.319336 L 37.878906 116.300781 L 38.738281 116.300781 L 38.738281 130.319336 Z " fill="rgb(0, 0, 0)" fill-opacity="1.000000" />
<path d="M 49.208008 78.319336 L 48.251953 78.319336 L 41.414551 64.300781 L 42.370605 64.300781 Z " fill="rgb(0, 0, 0)" fill-opacity="1.000000" />
<path d="M 41.414551 130.319336 L 48.251953 116.300781 L 49.208008 116.300781 L 42.370605 130.319336 Z " fill="rgb(0, 0, 0)" fill-opacity="1.000000" />
<path d="M 48.892578 124.335938 L 48.892578 123.412109 L 55.729980 123.412109 L 55.729980 124.335938 Z " fill="rgb(0, 0, 0)" fill-opacity="1.000000" />
<path d="M 60.082031 123.213379 Q 60.500977 123.320801 60.796387 123.618896 Q 61.091797 123.916992 61.532227 124.808594 L 62.622559 127.000000 L 61.457031 127.000000 L 60.500977 124.975098 Q 60.087402 124.110352 59.757080 123.860596 Q 59.426758 123.610840 58.895020 123.610840 L 57.858398 123.610840 L 57.858398 127.000000 L 56.768066 127.000000 L 56.768066 118.980957 L 59.002441 118.980957 Q 60.323730 118.980957 61.027344 119.577148 Q 61.730957 120.173340 61.730957 121.301270 Q 61.730957 122.096191 61.298584 122.598389 Q 60.866211 123.100586 60.082031 123.213379 Z M 57.858398 119.872559 L 57.858398 122.719238 L 59.045410 122.719238 Q 59.824219 122.719238 60.205566 122.370117 Q 60.586914 122.020996 60.586914 121.301270 Q 60.586914 120.608398 60.181396 120.240479 Q 59.775879 119.872559 59.002441 119.872559 Z " fill="rgb(0, 0, 0)" fill-opacity="1.000000" />
<path d="M 69.015625 123.498047 L 69.015625 123.981445 L 64.734863 123.981445 L 64.734863 124.013672 Q 64.691895 125.243652 65.204834 125.780762 Q 65.717773 126.317871 66.652344 126.317871 Q 67.125000 126.317871 67.640625 126.167480 Q 68.156250 126.017090 68.741699 125.710938 L 68.741699 126.693848 Q 68.177734 126.924805 67.654053 127.040283 Q 67.130371 127.155762 66.641602 127.155762 Q 65.239746 127.155762 64.450195 126.315186 Q 63.660645 125.474609 63.660645 123.997559 Q 63.660645 122.558105 64.434082 121.698730 Q 65.207520 120.839355 66.496582 120.839355 Q 67.645996 120.839355 68.309326 121.618164 Q 68.972656 122.396973 69.015625 123.498047 Z M 68.027344 123.208008 Q 67.962891 122.584961 67.573486 122.131104 Q 67.184082 121.677246 66.453613 121.677246 Q 65.739258 121.677246 65.277344 122.149902 Q 64.815430 122.622559 64.772461 123.213379 Z " fill="rgb(0, 0, 0)" fill-opacity="1.000000" />
<path d="M 75.226074 121.193848 L 75.226074 122.160645 Q 74.801758 121.913574 74.372070 121.790039 Q 73.942383 121.666504 73.496582 121.666504 Q 72.825195 121.666504 72.494873 121.884033 Q 72.164551 122.101562 72.164551 122.547363 Q 72.164551 122.950195 72.411621 123.148926 Q 72.658691 123.347656 73.641602 123.535645 L 74.039062 123.610840 Q 74.774902 123.750488 75.153564 124.169434 Q 75.532227 124.588379 75.532227 125.259766 Q 75.532227 126.151367 74.898438 126.653564 Q 74.264648 127.155762 73.136719 127.155762 Q 72.690918 127.155762 72.202148 127.061768 Q 71.713379 126.967773 71.144043 126.779785 L 71.144043 125.759277 Q 71.697266 126.043945 72.202148 126.186279 Q 72.707031 126.328613 73.158203 126.328613 Q 73.813477 126.328613 74.173340 126.062744 Q 74.533203 125.796875 74.533203 125.318848 Q 74.533203 124.631348 73.217285 124.368164 L 73.174316 124.357422 L 72.803711 124.282227 Q 71.949707 124.115723 71.557617 123.720947 Q 71.165527 123.326172 71.165527 122.644043 Q 71.165527 121.779297 71.750977 121.309326 Q 72.336426 120.839355 73.421387 120.839355 Q 73.904785 120.839355 74.350586 120.927979 Q 74.796387 121.016602 75.226074 121.193848 Z " fill="rgb(0, 0, 0)" fill-opacity="1.000000" />
<path d="M 79.014160 126.242676 L 79.014160 129.288086 L 78.020508 129.288086 L 78.020508 120.984375 L 79.014160 120.984375 L 79.014160 121.752441 Q 79.261230 121.306641 79.672119 121.072998 Q 80.083008 120.839355 80.620117 120.839355 Q 81.710449 120.839355 82.330811 121.682617 Q 82.951172 122.525879 82.951172 124.019043 Q 82.951172 125.485352 82.328125 126.320557 Q 81.705078 127.155762 80.620117 127.155762 Q 80.072266 127.155762 79.661377 126.922119 Q 79.250488 126.688477 79.014160 126.242676 Z M 81.914551 123.997559 Q 81.914551 122.848145 81.552002 122.262695 Q 81.189453 121.677246 80.475098 121.677246 Q 79.755371 121.677246 79.384766 122.265381 Q 79.014160 122.853516 79.014160 123.997559 Q 79.014160 125.136230 79.384766 125.727051 Q 79.755371 126.317871 80.475098 126.317871 Q 81.189453 126.317871 81.552002 125.732422 Q 81.914551 125.146973 81.914551 123.997559 Z " fill="rgb(0, 0, 0)" fill-opacity="1.000000" />
<path d="M 87.308594 121.677246 Q 86.556641 121.677246 86.169922 122.262695 Q 85.783203 122.848145 85.783203 123.997559 Q 85.783203 125.141602 86.169922 125.729736 Q 86.556641 126.317871 87.308594 126.317871 Q 88.065918 126.317871 88.452637 125.729736 Q 88.839355 125.141602 88.839355 123.997559 Q 88.839355 122.848145 88.452637 122.262695 Q 88.065918 121.677246 87.308594 121.677246 Z M 87.308594 120.839355 Q 88.560059 120.839355 89.223389 121.650391 Q 89.886719 122.461426 89.886719 123.997559 Q 89.886719 125.539062 89.226074 126.347412 Q 88.565430 127.155762 87.308594 127.155762 Q 86.057129 127.155762 85.396484 126.347412 Q 84.735840 125.539062 84.735840 123.997559 Q 84.735840 122.461426 85.396484 121.650391 Q 86.057129 120.839355 87.308594 120.839355 Z " fill="rgb(0, 0, 0)" fill-opacity="1.000000" />
<path d="M 96.645020 123.272461 L 96.645020 127.000000 L 95.651367 127.000000 L 95.651367 123.272461 Q 95.651367 122.461426 95.366699 122.080078 Q 95.082031 121.698730 94.475098 121.698730 Q 93.782227 121.698730 93.408936 122.190186 Q 93.035645 122.681641 93.035645 123.600098 L 93.035645 127.000000 L 92.047363 127.000000 L 92.047363 120.984375 L 93.035645 120.984375 L 93.035645 121.886719 Q 93.298828 121.371094 93.750000 121.105225 Q 94.201172 120.839355 94.818848 120.839355 Q 95.737305 120.839355 96.191162 121.443604 Q 96.645020 122.047852 96.645020 123.272461 Z " fill="rgb(0, 0, 0)" fill-opacity="1.000000" />
<path d="M 103.226074 121.193848 L 103.226074 122.160645 Q 102.801758 121.913574 102.372070 121.790039 Q 101.942383 121.666504 101.496582 121.666504 Q 100.825195 121.666504 100.494873 121.884033 Q 100.164551 122.101562 100.164551 122.547363 Q 100.164551 122.950195 100.411621 123.148926 Q 100.658691 123.347656 101.641602 123.535645 L 102.039062 123.610840 Q 102.774902 123.750488 103.153564 124.169434 Q 103.532227 124.588379 103.532227 125.259766 Q 103.532227 126.151367 102.898438 126.653564 Q 102.264648 127.155762 101.136719 127.155762 Q 100.690918 127.155762 100.202148 127.061768 Q 99.713379 126.967773 99.144043 126.779785 L 99.144043 125.759277 Q 99.697266 126.043945 100.202148 126.186279 Q 100.707031 126.328613 101.158203 126.328613 Q 101.813477 126.328613 102.173340 126.062744 Q 102.533203 125.796875 102.533203 125.318848 Q 102.533203 124.631348 101.217285 124.368164 L 101.174316 124.357422 L 100.803711 124.282227 Q 99.949707 124.115723 99.557617 123.720947 Q 99.165527 123.326172 99.165527 122.644043 Q 99.165527 121.779297 99.750977 121.309326 Q 100.336426 120.839355 101.421387 120.839355 Q 101.904785 120.839355 102.350586 120.927979 Q 102.796387 121.016602 103.226074 121.193848 Z " fill="rgb(0, 0, 0)" fill-opacity="1.000000" />
<path d="M 111.015625 123.498047 L 111.015625 123.981445 L 106.734863 123.981445 L 106.734863 124.013672 Q 106.691895 125.243652 107.204834 125.780762 Q 107.717773 126.317871 108.652344 126.317871 Q 109.125000 126.317871 109.640625 126.167480 Q 110.156250 126.017090 110.741699 125.710938 L 110.741699 126.693848 Q 110.177734 126.924805 109.654053 127.040283 Q 109.130371 127.155762 108.641602 127.155762 Q 107.239746 127.155762 106.450195 126.315186 Q 105.660645 125.474609 105.660645 123.997559 Q 105.660645 122.558105 106.434082 121.698730 Q 107.207520 120.839355 108.496582 120.839355 Q 109.645996 120.839355 110.309326 121.618164 Q 110.972656 122.396973 111.015625 123.498047 Z M 110.027344 123.208008 Q 109.962891 122.584961 109.573486 122.131104 Q 109.184082 121.677246 108.453613 121.677246 Q 107.739258 121.677246 107.277344 122.149902 Q 106.815430 122.622559 106.772461 123.213379 Z " fill="rgb(0, 0, 0)" fill-opacity="1.000000" />
<path d="M 111.892578 124.335938 L 111.892578 123.412109 L 118.729980 123.412109 L 118.729980 124.335938 Z " fill="rgb(0, 0, 0)" fill-opacity="1.000000" />
<path d="M 118.414551 130.319336 L 125.251953 116.300781 L 126.208008 116.300781 L 119.370605 130.319336 Z " fill="rgb(0, 0, 0)" fill-opacity="1.000000" />
<path d="M 128.878906 130.319336 L 128.878906 116.300781 L 129.738281 116.300781 L 129.738281 130.319336 Z " fill="rgb(0, 0, 0)" fill-opacity="1.000000" />
<path d="M 129.308594 88.418945 L 126.032227 81.866211 L 132.590332 81.866211 Z " fill="rgb(0, 0, 0)" fill-opacity="1.000000" />
<path d="M 128.878906 104.319336 L 128.878906 90.300781 L 129.738281 90.300781 L 129.738281 104.319336 Z " fill="rgb(0, 0, 0)" fill-opacity="1.000000" />
<path d="M 133.208008 117.319336 L 132.251953 117.319336 L 129.308594 111.287598 L 126.370605 117.319336 L 125.414551 117.319336 L 128.835938 110.310059 L 125.414551 103.300781 L 126.370605 103.300781 L 129.308594 109.332520 L 132.251953 103.300781 L 133.208008 103.300781 L 129.791992 110.310059 Z " fill="rgb(0, 0, 0)" fill-opacity="1.000000" />
<path d="M 141.450195 113.092285 L 143.136719 113.092285 L 143.136719 107.033691 L 141.117188 108.005859 L 141.117188 106.963867 L 143.125977 106.007812 L 144.210938 106.007812 L 144.210938 113.092285 L 145.875977 113.092285 L 145.875977 114.000000 L 141.450195 114.000000 Z " fill="rgb(0, 0, 0)" fill-opacity="1.000000" />
<path d="M 148.450195 113.092285 L 150.136719 113.092285 L 150.136719 107.033691 L 148.117188 108.005859 L 148.117188 106.963867 L 150.125977 106.007812 L 151.210938 106.007812 L 151.210938 113.092285 L 152.875977 113.092285 L 152.875977 114.000000 L 148.450195 114.000000 Z " fill="rgb(0, 0, 0)" fill-opacity="1.000000" />
<path d="M 159.226074 108.193848 L 159.226074 109.160645 Q 158.801758 108.913574 158.372070 108.790039 Q 157.942383 108.666504 157.496582 108.666504 Q 156.825195 108.666504 156.494873 108.884033 Q 156.164551 109.101562 156.164551 109.547363 Q 156.164551 109.950195 156.411621 110.148926 Q 156.658691 110.347656 157.641602 110.535645 L 158.039062 110.610840 Q 158.774902 110.750488 159.153564 111.169434 Q 159.532227 111.588379 159.532227 112.259766 Q 159.532227 113.151367 158.898438 113.653564 Q 158.264648 114.155762 157.136719 114.155762 Q 156.690918 114.155762 156.202148 114.061768 Q 155.713379 113.967773 155.144043 113.779785 L 155.144043 112.759277 Q 155.697266 113.043945 156.202148 113.186279 Q 156.707031 113.328613 157.158203 113.328613 Q 157.813477 113.328613 158.173340 113.062744 Q 158.533203 112.796875 158.533203 112.318848 Q 158.533203 111.631348 157.217285 111.368164 L 157.174316 111.357422 L 156.803711 111.282227 Q 155.949707 111.115723 155.557617 110.720947 Q 155.165527 110.326172 155.165527 109.644043 Q 155.165527 108.779297 155.750977 108.309326 Q 156.336426 107.839355 157.421387 107.839355 Q 157.904785 107.839355 158.350586 107.927979 Q 158.796387 108.016602 159.226074 108.193848 Z " fill="rgb(0, 0, 0)" fill-opacity="1.000000" />
<path d="M 150.201172 84.444336 Q 150.894043 84.444336 151.288818 83.944824 Q 151.683594 83.445312 151.683594 82.564453 Q 151.683594 81.683594 151.288818 81.184082 Q 150.894043 80.684570 150.201172 80.684570 Q 149.481445 80.684570 149.116211 81.159912 Q 148.750977 81.635254 148.750977 82.564453 Q 148.750977 83.499023 149.113525 83.971680 Q 149.476074 84.444336 150.201172 84.444336 Z M 148.267578 87.833496 L 148.267578 86.834473 Q 148.605957 87.033203 148.987305 87.137939 Q 149.368652 87.242676 149.782227 87.242676 Q 150.813477 87.242676 151.342529 86.466553 Q 151.871582 85.690430 151.871582 84.181152 Q 151.619141 84.718262 151.162598 85.005615 Q 150.706055 85.292969 150.115234 85.292969 Q 148.955078 85.292969 148.318604 84.578613 Q 147.682129 83.864258 147.682129 82.553711 Q 147.682129 81.259277 148.334717 80.547607 Q 148.987305 79.835938 150.179688 79.835938 Q 151.576172 79.835938 152.226074 80.840332 Q 152.875977 81.844727 152.875977 83.998535 Q 152.875977 86.023438 152.094482 87.089600 Q 151.312988 88.155762 149.825195 88.155762 Q 149.433105 88.155762 149.035645 88.072510 Q 148.638184 87.989258 148.267578 87.833496 Z " fill="rgb(0, 0, 0)" fill-opacity="1.000000" />
<path d="M 159.226074 82.193848 L 159.226074 83.160645 Q 158.801758 82.913574 158.372070 82.790039 Q 157.942383 82.666504 157.496582 82.666504 Q 156.825195 82.666504 156.494873 82.884033 Q 156.164551 83.101562 156.164551 83.547363 Q 156.164551 83.950195 156.411621 84.148926 Q 156.658691 84.347656 157.641602 84.535645 L 158.039062 84.610840 Q 158.774902 84.750488 159.153564 85.169434 Q 159.532227 85.588379 159.532227 86.259766 Q 159.532227 87.151367 158.898438 87.653564 Q 158.264648 88.155762 157.136719 88.155762 Q 156.690918 88.155762 156.202148 88.061768 Q 155.713379 87.967773 155.144043 87.779785 L 155.144043 86.759277 Q 155.697266 87.043945 156.202148 87.186279 Q 156.707031 87.328613 157.158203 87.328613 Q 157.813477 87.328613 158.173340 87.062744 Q 158.533203 86.796875 158.533203 86.318848 Q 158.533203 85.631348 157.217285 85.368164 L 157.174316 85.357422 L 156.803711 85.282227 Q 155.949707 85.115723 155.557617 84.720947 Q 155.165527 84.326172 155.165527 83.644043 Q 155.165527 82.779297 155.750977 82.309326 Q 156.336426 81.839355 157.421387 81.839355 Q 157.904785 81.839355 158.350586 81.927979 Q 158.796387 82.016602 159.226074 82.193848 Z " fill="rgb(0, 0, 0)" fill-opacity="1.000000" />
<path d="M 48.892578 72.335938 L 48.892578 71.412109 L 55.729980 71.412109 L 55.729980 72.335938 Z " fill="rgb(0, 0, 0)" fill-opacity="1.000000" />
<path d="M 60.082031 71.213379 Q 60.500977 71.320801 60.796387 71.618896 Q 61.091797 71.916992 61.532227 72.808594 L 62.622559 75.000000 L 61.457031 75.000000 L 60.500977 72.975098 Q 60.087402 72.110352 59.757080 71.860596 Q 59.426758 71.610840 58.895020 71.610840 L 57.858398 71.610840 L 57.858398 75.000000 L 56.768066 75.000000 L 56.768066 66.980957 L 59.002441 66.980957 Q 60.323730 66.980957 61.027344 67.577148 Q 61.730957 68.173340 61.730957 69.301270 Q 61.730957 70.096191 61.298584 70.598389 Q 60.866211 71.100586 60.082031 71.213379 Z M 57.858398 67.872559 L 57.858398 70.719238 L 59.045410 70.719238 Q 59.824219 70.719238 60.205566 70.370117 Q 60.586914 70.020996 60.586914 69.301270 Q 60.586914 68.608398 60.181396 68.240479 Q 59.775879 67.872559 59.002441 67.872559 Z " fill="rgb(0, 0, 0)" fill-opacity="1.000000" />
<path d="M 69.015625 71.498047 L 69.015625 71.981445 L 64.734863 71.981445 L 64.734863 72.013672 Q 64.691895 73.243652 65.204834 73.780762 Q 65.717773 74.317871 66.652344 74.317871 Q 67.125000 74.317871 67.640625 74.167480 Q 68.156250 74.017090 68.741699 73.710938 L 68.741699 74.693848 Q 68.177734 74.924805 67.654053 75.040283 Q 67.130371 75.155762 66.641602 75.155762 Q 65.239746 75.155762 64.450195 74.315186 Q 63.660645 73.474609 63.660645 71.997559 Q 63.660645 70.558105 64.434082 69.698730 Q 65.207520 68.839355 66.496582 68.839355 Q 67.645996 68.839355 68.309326 69.618164 Q 68.972656 70.396973 69.015625 71.498047 Z M 68.027344 71.208008 Q 67.962891 70.584961 67.573486 70.131104 Q 67.184082 69.677246 66.453613 69.677246 Q 65.739258 69.677246 65.277344 70.149902 Q 64.815430 70.622559 64.772461 71.213379 Z " fill="rgb(0, 0, 0)" fill-opacity="1.000000" />
<path d="M 71.783203 72.019043 Q 71.783203 73.168457 72.145752 73.753906 Q 72.508301 74.339355 73.222656 74.339355 Q 73.937012 74.339355 74.304932 73.751221 Q 74.672852 73.163086 74.672852 72.019043 Q 74.672852 70.875000 74.304932 70.286865 Q 73.937012 69.698730 73.222656 69.698730 Q 72.508301 69.698730 72.145752 70.284180 Q 71.783203 70.869629 71.783203 72.019043 Z M 74.672852 74.253418 Q 74.431152 74.699219 74.020264 74.938232 Q 73.609375 75.177246 73.066895 75.177246 Q 71.987305 75.177246 71.361572 74.342041 Q 70.735840 73.506836 70.735840 72.040527 Q 70.735840 70.547363 71.358887 69.704102 Q 71.981934 68.860840 73.066895 68.860840 Q 73.604004 68.860840 74.014893 69.094482 Q 74.425781 69.328125 74.672852 69.773926 L 74.672852 69.005859 L 75.666504 69.005859 L 75.666504 77.309570 L 74.672852 77.309570 Z " fill="rgb(0, 0, 0)" fill-opacity="1.000000" />
<path d="M 78.047363 72.722656 L 78.047363 68.995117 L 79.035645 68.995117 L 79.035645 72.722656 Q 79.035645 73.533691 79.322998 73.915039 Q 79.610352 74.296387 80.211914 74.296387 Q 80.910156 74.296387 81.280762 73.804932 Q 81.651367 73.313477 81.651367 72.395020 L 81.651367 68.995117 L 82.645020 68.995117 L 82.645020 75.000000 L 81.651367 75.000000 L 81.651367 74.097656 Q 81.388184 74.618652 80.934326 74.887207 Q 80.480469 75.155762 79.873535 75.155762 Q 78.949707 75.155762 78.498535 74.551514 Q 78.047363 73.947266 78.047363 72.722656 Z " fill="rgb(0, 0, 0)" fill-opacity="1.000000" />
<path d="M 90.015625 71.498047 L 90.015625 71.981445 L 85.734863 71.981445 L 85.734863 72.013672 Q 85.691895 73.243652 86.204834 73.780762 Q 86.717773 74.317871 87.652344 74.317871 Q 88.125000 74.317871 88.640625 74.167480 Q 89.156250 74.017090 89.741699 73.710938 L 89.741699 74.693848 Q 89.177734 74.924805 88.654053 75.040283 Q 88.130371 75.155762 87.641602 75.155762 Q 86.239746 75.155762 85.450195 74.315186 Q 84.660645 73.474609 84.660645 71.997559 Q 84.660645 70.558105 85.434082 69.698730 Q 86.207520 68.839355 87.496582 68.839355 Q 88.645996 68.839355 89.309326 69.618164 Q 89.972656 70.396973 90.015625 71.498047 Z M 89.027344 71.208008 Q 88.962891 70.584961 88.573486 70.131104 Q 88.184082 69.677246 87.453613 69.677246 Q 86.739258 69.677246 86.277344 70.149902 Q 85.815430 70.622559 85.772461 71.213379 Z " fill="rgb(0, 0, 0)" fill-opacity="1.000000" />
<path d="M 96.226074 69.193848 L 96.226074 70.160645 Q 95.801758 69.913574 95.372070 69.790039 Q 94.942383 69.666504 94.496582 69.666504 Q 93.825195 69.666504 93.494873 69.884033 Q 93.164551 70.101562 93.164551 70.547363 Q 93.164551 70.950195 93.411621 71.148926 Q 93.658691 71.347656 94.641602 71.535645 L 95.039062 71.610840 Q 95.774902 71.750488 96.153564 72.169434 Q 96.532227 72.588379 96.532227 73.259766 Q 96.532227 74.151367 95.898438 74.653564 Q 95.264648 75.155762 94.136719 75.155762 Q 93.690918 75.155762 93.202148 75.061768 Q 92.713379 74.967773 92.144043 74.779785 L 92.144043 73.759277 Q 92.697266 74.043945 93.202148 74.186279 Q 93.707031 74.328613 94.158203 74.328613 Q 94.813477 74.328613 95.173340 74.062744 Q 95.533203 73.796875 95.533203 73.318848 Q 95.533203 72.631348 94.217285 72.368164 L 94.174316 72.357422 L 93.803711 72.282227 Q 92.949707 72.115723 92.557617 71.720947 Q 92.165527 71.326172 92.165527 70.644043 Q 92.165527 69.779297 92.750977 69.309326 Q 93.336426 68.839355 94.421387 68.839355 Q 94.904785 68.839355 95.350586 68.927979 Q 95.796387 69.016602 96.226074 69.193848 Z " fill="rgb(0, 0, 0)" fill-opacity="1.000000" />
<path d="M 101.297852 67.276367 L 101.297852 68.984375 L 103.542969 68.984375 L 103.542969 69.752441 L 101.297852 69.752441 L 101.297852 73.018066 Q 101.297852 73.684082 101.550293 73.947266 Q 101.802734 74.210449 102.431152 74.210449 L 103.542969 74.210449 L 103.542969 75.000000 L 102.334473 75.000000 Q 101.222656 75.000000 100.766113 74.554199 Q 100.309570 74.108398 100.309570 73.018066 L 100.309570 69.752441 L 98.703613 69.752441 L 98.703613 68.984375 L 100.309570 68.984375 L 100.309570 67.276367 Z " fill="rgb(0, 0, 0)" fill-opacity="1.000000" />
<path d="M 104.892578 72.335938 L 104.892578 71.412109 L 111.729980 71.412109 L 111.729980 72.335938 Z " fill="rgb(0, 0, 0)" fill-opacity="1.000000" />
<path d="M 111.892578 72.335938 L 111.892578 71.412109 L 118.729980 71.412109 L 118.729980 72.335938 Z " fill="rgb(0, 0, 0)" fill-opacity="1.000000" />
<path d="M 126.208008 78.319336 L 125.251953 78.319336 L 118.414551 64.300781 L 119.370605 64.300781 Z " fill="rgb(0, 0, 0)" fill-opacity="1.000000" />
<path d="M 128.878906 78.319336 L 128.878906 64.300781 L 129.738281 64.300781 L 129.738281 78.319336 Z " fill="rgb(0, 0, 0)" fill-opacity="1.000000" />
<path d="M 8.450195 61.092285 L 10.136719 61.092285 L 10.136719 55.033691 L 8.117188 56.005859 L 8.117188 54.963867 L 10.125977 54.007812 L 11.210938 54.007812 L 11.210938 61.092285 L 12.875977 61.092285 L 12.875977 62.000000 L 8.450195 62.000000 Z " fill="rgb(0, 0, 0)" fill-opacity="1.000000" />
<path d="M 16.003418 61.086914 L 19.687988 61.086914 L 19.687988 62.000000 L 14.816406 62.000000 L 14.816406 61.086914 Q 15.820801 60.028809 16.572754 59.217773 Q 17.324707 58.406738 17.609375 58.073730 Q 18.146484 57.418457 18.334473 57.012939 Q 18.522461 56.607422 18.522461 56.183105 Q 18.522461 55.511719 18.127686 55.130371 Q 17.732910 54.749023 17.045410 54.749023 Q 16.556641 54.749023 16.019531 54.926270 Q 15.482422 55.103516 14.880859 55.463379 L 14.880859 54.367676 Q 15.434082 54.104492 15.968506 53.970215 Q 16.502930 53.835938 17.023926 53.835938 Q 18.200195 53.835938 18.917236 54.461670 Q 19.634277 55.087402 19.634277 56.102539 Q 19.634277 56.618164 19.395264 57.133789 Q 19.156250 57.649414 18.619141 58.272461 Q 18.318359 58.621582 17.746338 59.239258 Q 17.174316 59.856934 16.003418 61.086914 Z " fill="rgb(0, 0, 0)" fill-opacity="1.000000" />
<path d="M 26.226074 56.193848 L 26.226074 57.160645 Q 25.801758 56.913574 25.372070 56.790039 Q 24.942383 56.666504 24.496582 56.666504 Q 23.825195 56.666504 23.494873 56.884033 Q 23.164551 57.101562 23.164551 57.547363 Q 23.164551 57.950195 23.411621 58.148926 Q 23.658691 58.347656 24.641602 58.535645 L 25.039062 58.610840 Q 25.774902 58.750488 26.153564 59.169434 Q 26.532227 59.588379 26.532227 60.259766 Q 26.532227 61.151367 25.898438 61.653564 Q 25.264648 62.155762 24.136719 62.155762 Q 23.690918 62.155762 23.202148 62.061768 Q 22.713379 61.967773 22.144043 61.779785 L 22.144043 60.759277 Q 22.697266 61.043945 23.202148 61.186279 Q 23.707031 61.328613 24.158203 61.328613 Q 24.813477 61.328613 25.173340 61.062744 Q 25.533203 60.796875 25.533203 60.318848 Q 25.533203 59.631348 24.217285 59.368164 L 24.174316 59.357422 L 23.803711 59.282227 Q 22.949707 59.115723 22.557617 58.720947 Q 22.165527 58.326172 22.165527 57.644043 Q 22.165527 56.779297 22.750977 56.309326 Q 23.336426 55.839355 24.421387 55.839355 Q 24.904785 55.839355 25.350586 55.927979 Q 25.796387 56.016602 26.226074 56.193848 Z " fill="rgb(0, 0, 0)" fill-opacity="1.000000" />
<path d="M 42.208008 65.319336 L 41.251953 65.319336 L 38.308594 59.287598 L 35.370605 65.319336 L 34.414551 65.319336 L 37.835938 58.310059 L 34.414551 51.300781 L 35.370605 51.300781 L 38.308594 57.332520 L 41.251953 51.300781 L 42.208008 51.300781 L 38.791992 58.310059 Z " fill="rgb(0, 0, 0)" fill-opacity="1.000000" />
<path d="M 128.878906 65.319336 L 128.878906 51.300781 L 129.738281 51.300781 L 129.738281 65.319336 Z " fill="rgb(0, 0, 0)" fill-opacity="1.000000" />
<path d="M 8.450195 22.092285 L 10.136719 22.092285 L 10.136719 16.033691 L 8.117188 17.005859 L 8.117188 15.963867 L 10.125977 15.007812 L 11.210938 15.007812 L 11.210938 22.092285 L 12.875977 22.092285 L 12.875977 23.000000 L 8.450195 23.000000 Z " fill="rgb(0, 0, 0)" fill-opacity="1.000000" />
<path d="M 30.878906 33.335938 L 30.878906 25.300781 L 31.738281 25.300781 L 31.738281 32.412109 L 34.729980 32.412109 L 34.729980 33.335938 Z " fill="rgb(0, 0, 0)" fill-opacity="1.000000" />
<path d="M 37.878906 52.319336 L 37.878906 38.300781 L 38.738281 38.300781 L 38.738281 52.319336 Z " fill="rgb(0, 0, 0)" fill-opacity="1.000000" />
<path d="M 128.878906 52.319336 L 128.878906 38.300781 L 129.738281 38.300781 L 129.738281 52.319336 Z " fill="rgb(0, 0, 0)" fill-opacity="1.000000" />
<path d="M 34.892578 33.335938 L 34.892578 32.412109 L 41.729980 32.412109 L 41.729980 33.335938 Z " fill="rgb(0, 0, 0)" fill-opacity="1.000000" />
<path d="M 41.892578 33.335938 L 41.892578 32.412109 L 44.878906 32.412109 L 44.878906 25.300781 L 45.738281 25.300781 L 45.738281 33.335938 Z " fill="rgb(0, 0, 0)" fill-opacity="1.000000" />
<path d="M 121.878906 33.335938 L 121.878906 25.300781 L 122.738281 25.300781 L 122.738281 32.412109 L 125.729980 32.412109 L 125.729980 33.335938 Z " fill="rgb(0, 0, 0)" fill-opacity="1.000000" />
<path d="M 125.892578 33.335938 L 125.892578 32.412109 L 132.729980 32.412109 L 132.729980 33.335938 Z " fill="rgb(0, 0, 0)" fill-opacity="1.000000" />
<path d="M 132.892578 33.335938 L 132.892578 32.412109 L 135.878906 32.412109 L 135.878906 25.300781 L 136.738281 25.300781 L 136.738281 33.335938 Z " fill="rgb(0, 0, 0)" fill-opacity="1.000000" />
<path d="M 17.308594 14.862793 Q 18.592285 14.862793 19.250244 15.910156 Q 19.908203 16.957520 19.908203 19.009277 Q 19.908203 21.061035 19.250244 22.108398 Q 18.592285 23.155762 17.308594 23.155762 Q 16.024902 23.155762 15.369629 22.108398 Q 14.714355 21.061035 14.714355 19.009277 Q 14.714355 16.957520 15.369629 15.910156 Q 16.024902 14.862793 17.308594 14.862793 Z M 17.308594 22.296387 Q 18.071289 22.296387 18.444580 21.485352 Q 18.817871 20.674316 18.817871 19.009277 Q 18.817871 18.123047 18.710449 17.408691 L 16.153809 21.410156 Q 16.556641 22.296387 17.308594 22.296387 Z M 17.308594 15.722168 Q 16.551270 15.722168 16.177979 16.533203 Q 15.804688 17.344238 15.804688 19.009277 Q 15.804688 19.766602 15.906738 20.427246 L 18.409668 16.436523 Q 18.001465 15.722168 17.308594 15.722168 Z " fill="rgb(0, 0, 0)" fill-opacity="1.000000" />
<path d="M 26.226074 17.193848 L 26.226074 18.160645 Q 25.801758 17.913574 25.372070 17.790039 Q 24.942383 17.666504 24.496582 17.666504 Q 23.825195 17.666504 23.494873 17.884033 Q 23.164551 18.101562 23.164551 18.547363 Q 23.164551 18.950195 23.411621 19.148926 Q 23.658691 19.347656 24.641602 19.535645 L 25.039062 19.610840 Q 25.774902 19.750488 26.153564 20.169434 Q 26.532227 20.588379 26.532227 21.259766 Q 26.532227 22.151367 25.898438 22.653564 Q 25.264648 23.155762 24.136719 23.155762 Q 23.690918 23.155762 23.202148 23.061768 Q 22.713379 22.967773 22.144043 22.779785 L 22.144043 21.759277 Q 22.697266 22.043945 23.202148 22.186279 Q 23.707031 22.328613 24.158203 22.328613 Q 24.813477 22.328613 25.173340 22.062744 Q 25.533203 21.796875 25.533203 21.318848 Q 25.533203 20.631348 24.217285 20.368164 L 24.174316 20.357422 L 23.803711 20.282227 Q 22.949707 20.115723 22.557617 19.720947 Q 22.165527 19.326172 22.165527 18.644043 Q 22.165527 17.779297 22.750977 17.309326 Q 23.336426 16.839355 24.421387 16.839355 Q 24.904785 16.839355 25.350586 16.927979 Q 25.796387 17.016602 26.226074 17.193848 Z " fill="rgb(0, 0, 0)" fill-opacity="1.000000" />
<path d="M 30.878906 26.319336 L 30.878906 12.300781 L 31.738281 12.300781 L 31.738281 26.319336 Z " fill="rgb(0, 0, 0)" fill-opacity="1.000000" />
<path d="M 38.308594 15.937012 L 37.164551 20.040527 L 39.452637 20.040527 Z M 37.653320 14.980957 L 38.969238 14.980957 L 41.423828 23.000000 L 40.301270 23.000000 L 39.710449 20.910645 L 36.901367 20.910645 L 36.321289 23.000000 L 35.198730 23.000000 Z " fill="rgb(0, 0, 0)" fill-opacity="1.000000" />
<path d="M 44.878906 26.319336 L 44.878906 12.300781 L 45.738281 12.300781 L 45.738281 26.319336 Z " fill="rgb(0, 0, 0)" fill-opacity="1.000000" />
<path d="M 121.878906 26.319336 L 121.878906 12.300781 L 122.738281 12.300781 L 122.738281 26.319336 Z " fill="rgb(0, 0, 0)" fill-opacity="1.000000" />
<path d="M 127.981934 18.955566 L 127.981934 22.108398 L 129.265625 22.108398 Q 130.210938 22.108398 130.613770 21.778076 Q 131.016602 21.447754 131.016602 20.690430 Q 131.016602 19.691406 130.592285 19.323486 Q 130.167969 18.955566 129.265625 18.955566 Z M 127.981934 15.872559 L 127.981934 18.074707 L 129.244141 18.074707 Q 130.028320 18.074707 130.380127 17.773926 Q 130.731934 17.473145 130.731934 17.016602 Q 130.731934 16.409668 130.385498 16.141113 Q 130.039062 15.872559 129.244141 15.872559 Z M 126.891602 14.980957 L 129.265625 14.980957 Q 130.495605 14.980957 131.161621 15.512695 Q 131.827637 16.044434 131.827637 17.016602 Q 131.827637 17.537598 131.475830 17.961914 Q 131.124023 18.386230 130.420410 18.493652 Q 131.209961 18.611816 131.658447 19.167725 Q 132.106934 19.723633 132.106934 20.797852 Q 132.106934 21.888184 131.392578 22.444092 Q 130.678223 23.000000 129.265625 23.000000 L 126.891602 23.000000 Z " fill="rgb(0, 0, 0)" fill-opacity="1.000000" />
<path d="M 135.878906 26.319336 L 135.878906 12.300781 L 136.738281 12.300781 L 136.738281 26.319336 Z " fill="rgb(0, 0, 0)" fill-opacity="1.000000" />
<path d="M 148.111816 14.980957 L 152.172363 14.980957 L 152.172363 15.894043 L 149.100098 15.894043 L 149.100098 17.865234 Q 149.331055 17.779297 149.564697 17.739014 Q 149.798340 17.698730 150.034668 17.698730 Q 151.280762 17.698730 152.011230 18.434570 Q 152.741699 19.170410 152.741699 20.427246 Q 152.741699 21.694824 151.976318 22.425293 Q 151.210938 23.155762 149.884277 23.155762 Q 149.245117 23.155762 148.716064 23.069824 Q 148.187012 22.983887 147.768066 22.812012 L 147.768066 21.710938 Q 148.262207 21.979492 148.761719 22.111084 Q 149.261230 22.242676 149.782227 22.242676 Q 150.679199 22.242676 151.165283 21.770020 Q 151.651367 21.297363 151.651367 20.427246 Q 151.651367 19.567871 151.149170 19.089844 Q 150.646973 18.611816 149.750000 18.611816 Q 149.314941 18.611816 148.901367 18.711182 Q 148.487793 18.810547 148.111816 19.009277 Z " fill="rgb(0, 0, 0)" fill-opacity="1.000000" />
<path d="M 159.226074 17.193848 L 159.226074 18.160645 Q 158.801758 17.913574 158.372070 17.790039 Q 157.942383 17.666504 157.496582 17.666504 Q 156.825195 17.666504 156.494873 17.884033 Q 156.164551 18.101562 156.164551 18.547363 Q 156.164551 18.950195 156.411621 19.148926 Q 156.658691 19.347656 157.641602 19.535645 L 158.039062 19.610840 Q 158.774902 19.750488 159.153564 20.169434 Q 159.532227 20.588379 159.532227 21.259766 Q 159.532227 22.151367 158.898438 22.653564 Q 158.264648 23.155762 157.136719 23.155762 Q 156.690918 23.155762 156.202148 23.061768 Q 155.713379 22.967773 155.144043 22.779785 L 155.144043 21.759277 Q 155.697266 22.043945 156.202148 22.186279 Q 156.707031 22.328613 157.158203 22.328613 Q 157.813477 22.328613 158.173340 22.062744 Q 158.533203 21.796875 158.533203 21.318848 Q 158.533203 20.631348 157.217285 20.368164 L 157.174316 20.357422 L 156.803711 20.282227 Q 155.949707 20.115723 155.557617 19.720947 Q 155.165527 19.326172 155.165527 18.644043 Q 155.165527 17.779297 155.750977 17.309326 Q 156.336426 16.839355 157.421387 16.839355 Q 157.904785 16.839355 158.350586 16.927979 Q 158.796387 17.016602 159.226074 17.193848 Z " fill="rgb(0, 0, 0)" fill-opacity="1.000000" />
<path d="M 30.878906 13.319336 L 30.878906 6.412109 L 34.729980 6.412109 L 34.729980 7.335938 L 31.738281 7.335938 L 31.738281 13.319336 Z " fill="rgb(0, 0, 0)" fill-opacity="1.000000" />
<path d="M 34.892578 7.335938 L 34.892578 6.412109 L 41.729980 6.412109 L 41.729980 7.335938 Z " fill="rgb(0, 0, 0)" fill-opacity="1.000000" />
<path d="M 44.878906 13.319336 L 44.878906 7.335938 L 41.892578 7.335938 L 41.892578 6.412109 L 45.738281 6.412109 L 45.738281 13.319336 Z " fill="rgb(0, 0, 0)" fill-opacity="1.000000" />
<path d="M 121.878906 13.319336 L 121.878906 6.412109 L 125.729980 6.412109 L 125.729980 7.335938 L 122.738281 7.335938 L 122.738281 13.319336 Z " fill="rgb(0, 0, 0)" fill-opacity="1.000000" />
<path d="M 125.892578 7.335938 L 125.892578 6.412109 L 132.729980 6.412109 L 132.729980 7.335938 Z " fill="rgb(0, 0, 0)" fill-opacity="1.000000" />
<path d="M 135.878906 13.319336 L 135.878906 7.335938 L 132.892578 7.335938 L 132.892578 6.412109 L 136.738281 6.412109 L 136.738281 13.319336 Z " fill="rgb(0, 0, 0)" fill-opacity="1.000000" />
</svg>