<svg xmlns="http://www.w3.org/2000/svg" version="1.1" width="316" height="183">
<path d="M 107.878906 169.319336 L 107.878906 155.300781 L 108.738281 155.300781 L 108.738281 169.319336 Z " fill="rgb(0, 0, 0)" fill-opacity="1.000000" />
<path d="M 108.308594 179.418945 L 105.032227 172.866211 L 111.590332 172.866211 Z " fill="rgb(0, 0, 0)" fill-opacity="1.000000" />
<path d="M 199.308594 179.418945 L 196.032227 172.866211 L 202.590332 172.866211 Z " fill="rgb(0, 0, 0)" fill-opacity="1.000000" />
<path d="M 198.878906 169.319336 L 198.878906 155.300781 L 199.738281 155.300781 L 199.738281 169.319336 Z " fill="rgb(0, 0, 0)" fill-opacity="1.000000" />
<path d="M 8.450195 152.092285 L 10.136719 152.092285 L 10.136719 146.033691 L 8.117188 147.005859 L 8.117188 145.963867 L 10.125977 145.007812 L 11.210938 145.007812 L 11.210938 152.092285 L 12.875977 152.092285 L 12.875977 153.000000 L 8.450195 153.000000 Z " fill="rgb(0, 0, 0)" fill-opacity="1.000000" />
<path d="M 17.308594 149.191895 Q 16.583496 149.191895 16.188721 149.597412 Q 15.793945 150.002930 15.793945 150.744141 Q 15.793945 151.485352 16.194092 151.896240 Q 16.594238 152.307129 17.308594 152.307129 Q 18.039062 152.307129 18.433838 151.901611 Q 18.828613 151.496094 18.828613 150.744141 Q 18.828613 150.008301 18.428467 149.600098 Q 18.028320 149.191895 17.308594 149.191895 Z M 16.363281 148.740723 Q 15.670410 148.563477 15.281006 148.080078 Q 14.891602 147.596680 14.891602 146.914551 Q 14.891602 145.958496 15.541504 145.397217 Q 16.191406 144.835938 17.308594 144.835938 Q 18.431152 144.835938 19.081055 145.397217 Q 19.730957 145.958496 19.730957 146.914551 Q 19.730957 147.596680 19.341553 148.080078 Q 18.952148 148.563477 18.259277 148.740723 Q 19.064941 148.917969 19.491943 149.455078 Q 19.918945 149.992188 19.918945 150.846191 Q 19.918945 151.931152 19.226074 152.543457 Q 18.533203 153.155762 17.308594 153.155762 Q 16.083984 153.155762 15.393799 152.546143 Q 14.703613 151.936523 14.703613 150.856934 Q 14.703613 149.997559 15.130615 149.457764 Q 15.557617 148.917969 16.363281 148.740723 Z M 15.971191 147.016602 Q 15.971191 147.661133 16.314941 147.999512 Q 16.658691 148.337891 17.308594 148.337891 Q 17.963867 148.337891 18.307617 147.999512 Q 18.651367 147.661133 18.651367 147.016602 Q 18.651367 146.361328 18.310303 146.017578 Q 17.969238 145.673828 17.308594 145.673828 Q 16.658691 145.673828 16.314941 146.020264 Q 15.971191 146.366699 15.971191 147.016602 Z " fill="rgb(0, 0, 0)" fill-opacity="1.000000" />
<path d="M 26.226074 147.193848 L 26.226074 148.160645 Q 25.801758 147.913574 25.372070 147.790039 Q 24.942383 147.666504 24.496582 147.666504 Q 23.825195 147.666504 23.494873 147.884033 Q 23.164551 148.101562 23.164551 148.547363 Q 23.164551 148.950195 23.411621 149.148926 Q 23.658691 149.347656 24.641602 149.535645 L 25.039062 149.610840 Q 25.774902 149.750488 26.153564 150.169434 Q 26.532227 150.588379 26.532227 151.259766 Q 26.532227 152.151367 25.898438 152.653564 Q 25.264648 153.155762 24.136719 153.155762 Q 23.690918 153.155762 23.202148 153.061768 Q 22.713379 152.967773 22.144043 152.779785 L 22.144043 151.759277 Q 22.697266 152.043945 23.202148 152.186279 Q 23.707031 152.328613 24.158203 152.328613 Q 24.813477 152.328613 25.173340 152.062744 Q 25.533203 151.796875 25.533203 151.318848 Q 25.533203 150.631348 24.217285 150.368164 L 24.174316 150.357422 L 23.803711 150.282227 Q 22.949707 150.115723 22.557617 149.720947 Q 22.165527 149.326172 22.165527 148.644043 Q 22.165527 147.779297 22.750977 147.309326 Q 23.336426 146.839355 24.421387 146.839355 Q 24.904785 146.839355 25.350586 146.927979 Q 25.796387 147.016602 26.226074 147.193848 Z " fill="rgb(0, 0, 0)" fill-opacity="1.000000" />
<path d="M 46.592285 144.116211 Q 45.877930 145.340820 45.526123 146.557373 Q 45.174316 147.773926 45.174316 149.009277 Q 45.174316 150.239258 45.526123 151.458496 Q 45.877930 152.677734 46.592285 153.913086 L 45.732910 153.913086 Q 44.921875 152.634766 44.524414 151.423584 Q 44.126953 150.212402 44.126953 149.009277 Q 44.126953 147.811523 44.524414 146.597656 Q 44.921875 145.383789 45.732910 144.116211 Z " fill="rgb(0, 0, 0)" fill-opacity="1.000000" />
<path d="M 50.450195 152.092285 L 52.136719 152.092285 L 52.136719 146.033691 L 50.117188 147.005859 L 50.117188 145.963867 L 52.125977 145.007812 L 53.210938 145.007812 L 53.210938 152.092285 L 54.875977 152.092285 L 54.875977 153.000000 L 50.450195 153.000000 Z " fill="rgb(0, 0, 0)" fill-opacity="1.000000" />
<path d="M 59.308594 149.191895 Q 58.583496 149.191895 58.188721 149.597412 Q 57.793945 150.002930 57.793945 150.744141 Q 57.793945 151.485352 58.194092 151.896240 Q 58.594238 152.307129 59.308594 152.307129 Q 60.039062 152.307129 60.433838 151.901611 Q 60.828613 151.496094 60.828613 150.744141 Q 60.828613 150.008301 60.428467 149.600098 Q 60.028320 149.191895 59.308594 149.191895 Z M 58.363281 148.740723 Q 57.670410 148.563477 57.281006 148.080078 Q 56.891602 147.596680 56.891602 146.914551 Q 56.891602 145.958496 57.541504 145.397217 Q 58.191406 144.835938 59.308594 144.835938 Q 60.431152 144.835938 61.081055 145.397217 Q 61.730957 145.958496 61.730957 146.914551 Q 61.730957 147.596680 61.341553 148.080078 Q 60.952148 148.563477 60.259277 148.740723 Q 61.064941 148.917969 61.491943 149.455078 Q 61.918945 149.992188 61.918945 150.846191 Q 61.918945 151.931152 61.226074 152.543457 Q 60.533203 153.155762 59.308594 153.155762 Q 58.083984 153.155762 57.393799 152.546143 Q 56.703613 151.936523 56.703613 150.856934 Q 56.703613 149.997559 57.130615 149.457764 Q 57.557617 148.917969 58.363281 148.740723 Z M 57.971191 147.016602 Q 57.971191 147.661133 58.314941 147.999512 Q 58.658691 148.337891 59.308594 148.337891 Q 59.963867 148.337891 60.307617 147.999512 Q 60.651367 147.661133 60.651367 147.016602 Q 60.651367 146.361328 60.310303 146.017578 Q 59.969238 145.673828 59.308594 145.673828 Q 58.658691 145.673828 58.314941 146.020264 Q 57.971191 146.366699 57.971191 147.016602 Z " fill="rgb(0, 0, 0)" fill-opacity="1.000000" />
<path d="M 68.226074 147.193848 L 68.226074 148.160645 Q 67.801758 147.913574 67.372070 147.790039 Q 66.942383 147.666504 66.496582 147.666504 Q 65.825195 147.666504 65.494873 147.884033 Q 65.164551 148.101562 65.164551 148.547363 Q 65.164551 148.950195 65.411621 149.148926 Q 65.658691 149.347656 66.641602 149.535645 L 67.039062 149.610840 Q 67.774902 149.750488 68.153564 150.169434 Q 68.532227 150.588379 68.532227 151.259766 Q 68.532227 152.151367 67.898438 152.653564 Q 67.264648 153.155762 66.136719 153.155762 Q 65.690918 153.155762 65.202148 153.061768 Q 64.713379 152.967773 64.144043 152.779785 L 64.144043 151.759277 Q 64.697266 152.043945 65.202148 152.186279 Q 65.707031 152.328613 66.158203 152.328613 Q 66.813477 152.328613 67.173340 152.062744 Q 67.533203 151.796875 67.533203 151.318848 Q 67.533203 150.631348 66.217285 150.368164 L 66.174316 150.357422 L 65.803711 150.282227 Q 64.949707 150.115723 64.557617 149.720947 Q 64.165527 149.326172 64.165527 148.644043 Q 64.165527 147.779297 64.750977 147.309326 Q 65.336426 146.839355 66.421387 146.839355 Q 66.904785 146.839355 67.350586 146.927979 Q 67.796387 147.016602 68.226074 147.193848 Z " fill="rgb(0, 0, 0)" fill-opacity="1.000000" />
<path d="M 72.374023 151.061035 L 74.049805 151.061035 L 74.049805 152.484375 L 72.857422 154.799316 L 71.783203 154.804688 L 72.374023 152.484375 Z " fill="rgb(0, 0, 0)" fill-opacity="1.000000" />
<path d="M 87.308594 144.862793 Q 88.592285 144.862793 89.250244 145.910156 Q 89.908203 146.957520 89.908203 149.009277 Q 89.908203 151.061035 89.250244 152.108398 Q 88.592285 153.155762 87.308594 153.155762 Q 86.024902 153.155762 85.369629 152.108398 Q 84.714355 151.061035 84.714355 149.009277 Q 84.714355 146.957520 85.369629 145.910156 Q 86.024902 144.862793 87.308594 144.862793 Z M 87.308594 152.296387 Q 88.071289 152.296387 88.444580 151.485352 Q 88.817871 150.674316 88.817871 149.009277 Q 88.817871 148.123047 88.710449 147.408691 L 86.153809 151.410156 Q 86.556641 152.296387 87.308594 152.296387 Z M 87.308594 145.722168 Q 86.551270 145.722168 86.177979 146.533203 Q 85.804688 147.344238 85.804688 149.009277 Q 85.804688 149.766602 85.906738 150.427246 L 88.409668 146.436523 Q 88.001465 145.722168 87.308594 145.722168 Z " fill="rgb(0, 0, 0)" fill-opacity="1.000000" />
<path d="M 92.869141 144.116211 L 93.728516 144.116211 Q 94.539551 145.383789 94.937012 146.597656 Q 95.334473 147.811523 95.334473 149.009277 Q 95.334473 150.217773 94.937012 151.431641 Q 94.539551 152.645508 93.728516 153.913086 L 92.869141 153.913086 Q 93.583496 152.666992 93.935303 151.447754 Q 94.287109 150.228516 94.287109 149.009277 Q 94.287109 147.784668 93.935303 146.565430 Q 93.583496 145.346191 92.869141 144.116211 Z " fill="rgb(0, 0, 0)" fill-opacity="1.000000" />
<path d="M 108.308594 153.418945 L 105.032227 146.866211 L 111.590332 146.866211 Z " fill="rgb(0, 0, 0)" fill-opacity="1.000000" />
<path d="M 198.878906 156.319336 L 198.878906 142.300781 L 199.738281 142.300781 L 199.738281 156.319336 Z " fill="rgb(0, 0, 0)" fill-opacity="1.000000" />
<path d="M 107.878906 91.319336 L 107.878906 77.300781 L 108.738281 77.300781 L 108.738281 91.319336 Z " fill="rgb(0, 0, 0)" fill-opacity="1.000000" />
<path d="M 107.878906 104.319336 L 107.878906 90.300781 L 108.738281 90.300781 L 108.738281 104.319336 Z " fill="rgb(0, 0, 0)" fill-opacity="1.000000" />
<path d="M 107.878906 117.319336 L 107.878906 103.300781 L 108.738281 103.300781 L 108.738281 117.319336 Z " fill="rgb(0, 0, 0)" fill-opacity="1.000000" />
<path d="M 107.878906 130.319336 L 107.878906 116.300781 L 108.738281 116.300781 L 108.738281 130.319336 Z " fill="rgb(0, 0, 0)" fill-opacity="1.000000" />
<path d="M 107.878906 143.319336 L 107.878906 129.300781 L 108.738281 129.300781 L 108.738281 143.319336 Z " fill="rgb(0, 0, 0)" fill-opacity="1.000000" />
<path d="M 119.208008 91.319336 L 118.251953 91.319336 L 111.414551 77.300781 L 112.370605 77.300781 Z " fill="rgb(0, 0, 0)" fill-opacity="1.000000" />
<path d="M 111.414551 143.319336 L 118.251953 129.300781 L 119.208008 129.300781 L 112.370605 143.319336 Z " fill="rgb(0, 0, 0)" fill-opacity="1.000000" />
<path d="M 118.892578 137.335938 L 118.892578 136.412109 L 125.729980 136.412109 L 125.729980 137.335938 Z " fill="rgb(0, 0, 0)" fill-opacity="1.000000" />
<path d="M 130.082031 136.213379 Q 130.500977 136.320801 130.796387 136.618896 Q 131.091797 136.916992 131.532227 137.808594 L 132.622559 140.000000 L 131.457031 140.000000 L 130.500977 137.975098 Q 130.087402 137.110352 129.757080 136.860596 Q 129.426758 136.610840 128.895020 136.610840 L 127.858398 136.610840 L 127.858398 140.000000 L 126.768066 140.000000 L 126.768066 131.980957 L 129.002441 131.980957 Q 130.323730 131.980957 131.027344 132.577148 Q 131.730957 133.173340 131.730957 134.301270 Q 131.730957 135.096191 131.298584 135.598389 Q 130.866211 136.100586 130.082031 136.213379 Z M 127.858398 132.872559 L 127.858398 135.719238 L 129.045410 135.719238 Q 129.824219 135.719238 130.205566 135.370117 Q 130.586914 135.020996 130.586914 134.301270 Q 130.586914 133.608398 130.181396 133.240479 Q 129.775879 132.872559 129.002441 132.872559 Z " fill="rgb(0, 0, 0)" fill-opacity="1.000000" />
<path d="M 139.015625 136.498047 L 139.015625 136.981445 L 134.734863 136.981445 L 134.734863 137.013672 Q 134.691895 138.243652 135.204834 138.780762 Q 135.717773 139.317871 136.652344 139.317871 Q 137.125000 139.317871 137.640625 139.167480 Q 138.156250 139.017090 138.741699 138.710938 L 138.741699 139.693848 Q 138.177734 139.924805 137.654053 140.040283 Q 137.130371 140.155762 136.641602 140.155762 Q 135.239746 140.155762 134.450195 139.315186 Q 133.660645 138.474609 133.660645 136.997559 Q 133.660645 135.558105 134.434082 134.698730 Q 135.207520 133.839355 136.496582 133.839355 Q 137.645996 133.839355 138.309326 134.618164 Q 138.972656 135.396973 139.015625 136.498047 Z M 138.027344 136.208008 Q 137.962891 135.584961 137.573486 135.131104 Q 137.184082 134.677246 136.453613 134.677246 Q 135.739258 134.677246 135.277344 135.149902 Q 134.815430 135.622559 134.772461 136.213379 Z " fill="rgb(0, 0, 0)" fill-opacity="1.000000" />
<path d="M 145.226074 134.193848 L 145.226074 135.160645 Q 144.801758 134.913574 144.372070 134.790039 Q 143.942383 134.666504 143.496582 134.666504 Q 142.825195 134.666504 142.494873 134.884033 Q 142.164551 135.101562 142.164551 135.547363 Q 142.164551 135.950195 142.411621 136.148926 Q 142.658691 136.347656 143.641602 136.535645 L 144.039062 136.610840 Q 144.774902 136.750488 145.153564 137.169434 Q 145.532227 137.588379 145.532227 138.259766 Q 145.532227 139.151367 144.898438 139.653564 Q 144.264648 140.155762 143.136719 140.155762 Q 142.690918 140.155762 142.202148 140.061768 Q 141.713379 139.967773 141.144043 139.779785 L 141.144043 138.759277 Q 141.697266 139.043945 142.202148 139.186279 Q 142.707031 139.328613 143.158203 139.328613 Q 143.813477 139.328613 144.173340 139.062744 Q 144.533203 138.796875 144.533203 138.318848 Q 144.533203 137.631348 143.217285 137.368164 L 143.174316 137.357422 L 142.803711 137.282227 Q 141.949707 137.115723 141.557617 136.720947 Q 141.165527 136.326172 141.165527 135.644043 Q 141.165527 134.779297 141.750977 134.309326 Q 142.336426 133.839355 143.421387 133.839355 Q 143.904785 133.839355 144.350586 133.927979 Q 144.796387 134.016602 145.226074 134.193848 Z " fill="rgb(0, 0, 0)" fill-opacity="1.000000" />
<path d="M 149.014160 139.242676 L 149.014160 142.288086 L 148.020508 142.288086 L 148.020508 133.984375 L 149.014160 133.984375 L 149.014160 134.752441 Q 149.261230 134.306641 149.672119 134.072998 Q 150.083008 133.839355 150.620117 133.839355 Q 151.710449 133.839355 152.330811 134.682617 Q 152.951172 135.525879 152.951172 137.019043 Q 152.951172 138.485352 152.328125 139.320557 Q 151.705078 140.155762 150.620117 140.155762 Q 150.072266 140.155762 149.661377 139.922119 Q 149.250488 139.688477 149.014160 139.242676 Z M 151.914551 136.997559 Q 151.914551 135.848145 151.552002 135.262695 Q 151.189453 134.677246 150.475098 134.677246 Q 149.755371 134.677246 149.384766 135.265381 Q 149.014160 135.853516 149.014160 136.997559 Q 149.014160 138.136230 149.384766 138.727051 Q 149.755371 139.317871 150.475098 139.317871 Q 151.189453 139.317871 151.552002 138.732422 Q 151.914551 138.146973 151.914551 136.997559 Z " fill="rgb(0, 0, 0)" fill-opacity="1.000000" />
<path d="M 157.308594 134.677246 Q 156.556641 134.677246 156.169922 135.262695 Q 155.783203 135.848145 155.783203 136.997559 Q 155.783203 138.141602 156.169922 138.729736 Q 156.556641 139.317871 157.308594 139.317871 Q 158.065918 139.317871 158.452637 138.729736 Q 158.839355 138.141602 158.839355 136.997559 Q 158.839355 135.848145 158.452637 135.262695 Q 158.065918 134.677246 157.308594 134.677246 Z M 157.308594 133.839355 Q 158.560059 133.839355 159.223389 134.650391 Q 159.886719 135.461426 159.886719 136.997559 Q 159.886719 138.539062 159.226074 139.347412 Q 158.565430 140.155762 157.308594 140.155762 Q 156.057129 140.155762 155.396484 139.347412 Q 154.735840 138.539062 154.735840 136.997559 Q 154.735840 135.461426 155.396484 134.650391 Q 156.057129 133.839355 157.308594 133.839355 Z " fill="rgb(0, 0, 0)" fill-opacity="1.000000" />
<path d="M 166.645020 136.272461 L 166.645020 140.000000 L 165.651367 140.000000 L 165.651367 136.272461 Q 165.651367 135.461426 165.366699 135.080078 Q 165.082031 134.698730 164.475098 134.698730 Q 163.782227 134.698730 163.408936 135.190186 Q 163.035645 135.681641 163.035645 136.600098 L 163.035645 140.000000 L 162.047363 140.000000 L 162.047363 133.984375 L 163.035645 133.984375 L 163.035645 134.886719 Q 163.298828 134.371094 163.750000 134.105225 Q 164.201172 133.839355 164.818848 133.839355 Q 165.737305 133.839355 166.191162 134.443604 Q 166.645020 135.047852 166.645020 136.272461 Z " fill="rgb(0, 0, 0)" fill-opacity="1.000000" />
<path d="M 173.226074 134.193848 L 173.226074 135.160645 Q 172.801758 134.913574 172.372070 134.790039 Q 171.942383 134.666504 171.496582 134.666504 Q 170.825195 134.666504 170.494873 134.884033 Q 170.164551 135.101562 170.164551 135.547363 Q 170.164551 135.950195 170.411621 136.148926 Q 170.658691 136.347656 171.641602 136.535645 L 172.039062 136.610840 Q 172.774902 136.750488 173.153564 137.169434 Q 173.532227 137.588379 173.532227 138.259766 Q 173.532227 139.151367 172.898438 139.653564 Q 172.264648 140.155762 171.136719 140.155762 Q 170.690918 140.155762 170.202148 140.061768 Q 169.713379 139.967773 169.144043 139.779785 L 169.144043 138.759277 Q 169.697266 139.043945 170.202148 139.186279 Q 170.707031 139.328613 171.158203 139.328613 Q 171.813477 139.328613 172.173340 139.062744 Q 172.533203 138.796875 172.533203 138.318848 Q 172.533203 137.631348 171.217285 137.368164 L 171.174316 137.357422 L 170.803711 137.282227 Q 169.949707 137.115723 169.557617 136.720947 Q 169.165527 136.326172 169.165527 135.644043 Q 169.165527 134.779297 169.750977 134.309326 Q 170.336426 133.839355 171.421387 133.839355 Q 171.904785 133.839355 172.350586 133.927979 Q 172.796387 134.016602 173.226074 134.193848 Z " fill="rgb(0, 0, 0)" fill-opacity="1.000000" />
<path d="M 181.015625 136.498047 L 181.015625 136.981445 L 176.734863 136.981445 L 176.734863 137.013672 Q 176.691895 138.243652 177.204834 138.780762 Q 177.717773 139.317871 178.652344 139.317871 Q 179.125000 139.317871 179.640625 139.167480 Q 180.156250 139.017090 180.741699 138.710938 L 180.741699 139.693848 Q 180.177734 139.924805 179.654053 140.040283 Q 179.130371 140.155762 178.641602 140.155762 Q 177.239746 140.155762 176.450195 139.315186 Q 175.660645 138.474609 175.660645 136.997559 Q 175.660645 135.558105 176.434082 134.698730 Q 177.207520 133.839355 178.496582 133.839355 Q 179.645996 133.839355 180.309326 134.618164 Q 180.972656 135.396973 181.015625 136.498047 Z M 180.027344 136.208008 Q 179.962891 135.584961 179.573486 135.131104 Q 179.184082 134.677246 178.453613 134.677246 Q 177.739258 134.677246 177.277344 135.149902 Q 176.815430 135.622559 176.772461 136.213379 Z " fill="rgb(0, 0, 0)" fill-opacity="1.000000" />
<path d="M 181.892578 137.335938 L 181.892578 136.412109 L 188.729980 136.412109 L 188.729980 137.335938 Z " fill="rgb(0, 0, 0)" fill-opacity="1.000000" />
<path d="M 188.414551 143.319336 L 195.251953 129.300781 L 196.208008 129.300781 L 189.370605 143.319336 Z " fill="rgb(0, 0, 0)" fill-opacity="1.000000" />
<path d="M 198.878906 143.319336 L 198.878906 129.300781 L 199.738281 129.300781 L 199.738281 143.319336 Z " fill="rgb(0, 0, 0)" fill-opacity="1.000000" />
<path d="M 199.308594 101.418945 L 196.032227 94.866211 L 202.590332 94.866211 Z " fill="rgb(0, 0, 0)" fill-opacity="1.000000" />
<path d="M 198.878906 117.319336 L 198.878906 103.300781 L 199.738281 103.300781 L 199.738281 117.319336 Z " fill="rgb(0, 0, 0)" fill-opacity="1.000000" />
<path d="M 203.208008 130.319336 L 202.251953 130.319336 L 199.308594 124.287598 L 196.370605 130.319336 L 195.414551 130.319336 L 198.835938 123.310059 L 195.414551 116.300781 L 196.370605 116.300781 L 199.308594 122.332520 L 202.251953 116.300781 L 203.208008 116.300781 L 199.791992 123.310059 Z " fill="rgb(0, 0, 0)" fill-opacity="1.000000" />
<path d="M 214.592285 118.116211 Q 213.877930 119.340820 213.526123 120.557373 Q 213.174316 121.773926 213.174316 123.009277 Q 213.174316 124.239258 213.526123 125.458496 Q 213.877930 126.677734 214.592285 127.913086 L 213.732910 127.913086 Q 212.921875 126.634766 212.524414 125.423584 Q 212.126953 124.212402 212.126953 123.009277 Q 212.126953 121.811523 212.524414 120.597656 Q 212.921875 119.383789 213.732910 118.116211 Z " fill="rgb(0, 0, 0)" fill-opacity="1.000000" />
<path d="M 218.450195 126.092285 L 220.136719 126.092285 L 220.136719 120.033691 L 218.117188 121.005859 L 218.117188 119.963867 L 220.125977 119.007812 L 221.210938 119.007812 L 221.210938 126.092285 L 222.875977 126.092285 L 222.875977 127.000000 L 218.450195 127.000000 Z " fill="rgb(0, 0, 0)" fill-opacity="1.000000" />
<path d="M 226.003418 126.086914 L 229.687988 126.086914 L 229.687988 127.000000 L 224.816406 127.000000 L 224.816406 126.086914 Q 225.820801 125.028809 226.572754 124.217773 Q 227.324707 123.406738 227.609375 123.073730 Q 228.146484 122.418457 228.334473 122.012939 Q 228.522461 121.607422 228.522461 121.183105 Q 228.522461 120.511719 228.127686 120.130371 Q 227.732910 119.749023 227.045410 119.749023 Q 226.556641 119.749023 226.019531 119.926270 Q 225.482422 120.103516 224.880859 120.463379 L 224.880859 119.367676 Q 225.434082 119.104492 225.968506 118.970215 Q 226.502930 118.835938 227.023926 118.835938 Q 228.200195 118.835938 228.917236 119.461670 Q 229.634277 120.087402 229.634277 121.102539 Q 229.634277 121.618164 229.395264 122.133789 Q 229.156250 122.649414 228.619141 123.272461 Q 228.318359 123.621582 227.746338 124.239258 Q 227.174316 124.856934 226.003418 126.086914 Z " fill="rgb(0, 0, 0)" fill-opacity="1.000000" />
<path d="M 236.226074 121.193848 L 236.226074 122.160645 Q 235.801758 121.913574 235.372070 121.790039 Q 234.942383 121.666504 234.496582 121.666504 Q 233.825195 121.666504 233.494873 121.884033 Q 233.164551 122.101562 233.164551 122.547363 Q 233.164551 122.950195 233.411621 123.148926 Q 233.658691 123.347656 234.641602 123.535645 L 235.039062 123.610840 Q 235.774902 123.750488 236.153564 124.169434 Q 236.532227 124.588379 236.532227 125.259766 Q 236.532227 126.151367 235.898438 126.653564 Q 235.264648 127.155762 234.136719 127.155762 Q 233.690918 127.155762 233.202148 127.061768 Q 232.713379 126.967773 232.144043 126.779785 L 232.144043 125.759277 Q 232.697266 126.043945 233.202148 126.186279 Q 233.707031 126.328613 234.158203 126.328613 Q 234.813477 126.328613 235.173340 126.062744 Q 235.533203 125.796875 235.533203 125.318848 Q 235.533203 124.631348 234.217285 124.368164 L 234.174316 124.357422 L 233.803711 124.282227 Q 232.949707 124.115723 232.557617 123.720947 Q 232.165527 123.326172 232.165527 122.644043 Q 232.165527 121.779297 232.750977 121.309326 Q 233.336426 120.839355 234.421387 120.839355 Q 234.904785 120.839355 235.350586 120.927979 Q 235.796387 121.016602 236.226074 121.193848 Z " fill="rgb(0, 0, 0)" fill-opacity="1.000000" />
<path d="M 240.374023 125.061035 L 242.049805 125.061035 L 242.049805 126.484375 L 240.857422 128.799316 L 239.783203 128.804688 L 240.374023 126.484375 Z " fill="rgb(0, 0, 0)" fill-opacity="1.000000" />
<path d="M 254.003418 126.086914 L 257.687988 126.086914 L 257.687988 127.000000 L 252.816406 127.000000 L 252.816406 126.086914 Q 253.820801 125.028809 254.572754 124.217773 Q 255.324707 123.406738 255.609375 123.073730 Q 256.146484 122.418457 256.334473 122.012939 Q 256.522461 121.607422 256.522461 121.183105 Q 256.522461 120.511719 256.127686 120.130371 Q 255.732910 119.749023 255.045410 119.749023 Q 254.556641 119.749023 254.019531 119.926270 Q 253.482422 120.103516 252.880859 120.463379 L 252.880859 119.367676 Q 253.434082 119.104492 253.968506 118.970215 Q 254.502930 118.835938 255.023926 118.835938 Q 256.200195 118.835938 256.917236 119.461670 Q 257.634277 120.087402 257.634277 121.102539 Q 257.634277 121.618164 257.395264 122.133789 Q 257.156250 122.649414 256.619141 123.272461 Q 256.318359 123.621582 255.746338 124.239258 Q 255.174316 124.856934 254.003418 126.086914 Z " fill="rgb(0, 0, 0)" fill-opacity="1.000000" />
<path d="M 260.869141 118.116211 L 261.728516 118.116211 Q 262.539551 119.383789 262.937012 120.597656 Q 263.334473 121.811523 263.334473 123.009277 Q 263.334473 124.217773 262.937012 125.431641 Q 262.539551 126.645508 261.728516 127.913086 L 260.869141 127.913086 Q 261.583496 126.666992 261.935303 125.447754 Q 262.287109 124.228516 262.287109 123.009277 Q 262.287109 121.784668 261.935303 120.565430 Q 261.583496 119.346191 260.869141 118.116211 Z " fill="rgb(0, 0, 0)" fill-opacity="1.000000" />
<path d="M 281.450195 126.092285 L 283.136719 126.092285 L 283.136719 120.033691 L 281.117188 121.005859 L 281.117188 119.963867 L 283.125977 119.007812 L 284.210938 119.007812 L 284.210938 126.092285 L 285.875977 126.092285 L 285.875977 127.000000 L 281.450195 127.000000 Z " fill="rgb(0, 0, 0)" fill-opacity="1.000000" />
<path d="M 288.450195 126.092285 L 290.136719 126.092285 L 290.136719 120.033691 L 288.117188 121.005859 L 288.117188 119.963867 L 290.125977 119.007812 L 291.210938 119.007812 L 291.210938 126.092285 L 292.875977 126.092285 L 292.875977 127.000000 L 288.450195 127.000000 Z " fill="rgb(0, 0, 0)" fill-opacity="1.000000" />
<path d="M 299.226074 121.193848 L 299.226074 122.160645 Q 298.801758 121.913574 298.372070 121.790039 Q 297.942383 121.666504 297.496582 121.666504 Q 296.825195 121.666504 296.494873 121.884033 Q 296.164551 122.101562 296.164551 122.547363 Q 296.164551 122.950195 296.411621 123.148926 Q 296.658691 123.347656 297.641602 123.535645 L 298.039062 123.610840 Q 298.774902 123.750488 299.153564 124.169434 Q 299.532227 124.588379 299.532227 125.259766 Q 299.532227 126.151367 298.898438 126.653564 Q 298.264648 127.155762 297.136719 127.155762 Q 296.690918 127.155762 296.202148 127.061768 Q 295.713379 126.967773 295.144043 126.779785 L 295.144043 125.759277 Q 295.697266 126.043945 296.202148 126.186279 Q 296.707031 126.328613 297.158203 126.328613 Q 297.813477 126.328613 298.173340 126.062744 Q 298.533203 125.796875 298.533203 125.318848 Q 298.533203 124.631348 297.217285 124.368164 L 297.174316 124.357422 L 296.803711 124.282227 Q 295.949707 124.115723 295.557617 123.720947 Q 295.165527 123.326172 295.165527 122.644043 Q 295.165527 121.779297 295.750977 121.309326 Q 296.336426 120.839355 297.421387 120.839355 Q 297.904785 120.839355 298.350586 120.927979 Q 298.796387 121.016602 299.226074 121.193848 Z " fill="rgb(0, 0, 0)" fill-opacity="1.000000" />
<path d="M 214.592285 92.116211 Q 213.877930 93.340820 213.526123 94.557373 Q 213.174316 95.773926 213.174316 97.009277 Q 213.174316 98.239258 213.526123 99.458496 Q 213.877930 100.677734 214.592285 101.913086 L 213.732910 101.913086 Q 212.921875 100.634766 212.524414 99.423584 Q 212.126953 98.212402 212.126953 97.009277 Q 212.126953 95.811523 212.524414 94.597656 Q 212.921875 93.383789 213.732910 92.116211 Z " fill="rgb(0, 0, 0)" fill-opacity="1.000000" />
<path d="M 218.450195 100.092285 L 220.136719 100.092285 L 220.136719 94.033691 L 218.117188 95.005859 L 218.117188 93.963867 L 220.125977 93.007812 L 221.210938 93.007812 L 221.210938 100.092285 L 222.875977 100.092285 L 222.875977 101.000000 L 218.450195 101.000000 Z " fill="rgb(0, 0, 0)" fill-opacity="1.000000" />
<path d="M 226.003418 100.086914 L 229.687988 100.086914 L 229.687988 101.000000 L 224.816406 101.000000 L 224.816406 100.086914 Q 225.820801 99.028809 226.572754 98.217773 Q 227.324707 97.406738 227.609375 97.073730 Q 228.146484 96.418457 228.334473 96.012939 Q 228.522461 95.607422 228.522461 95.183105 Q 228.522461 94.511719 228.127686 94.130371 Q 227.732910 93.749023 227.045410 93.749023 Q 226.556641 93.749023 226.019531 93.926270 Q 225.482422 94.103516 224.880859 94.463379 L 224.880859 93.367676 Q 225.434082 93.104492 225.968506 92.970215 Q 226.502930 92.835938 227.023926 92.835938 Q 228.200195 92.835938 228.917236 93.461670 Q 229.634277 94.087402 229.634277 95.102539 Q 229.634277 95.618164 229.395264 96.133789 Q 229.156250 96.649414 228.619141 97.272461 Q 228.318359 97.621582 227.746338 98.239258 Q 227.174316 98.856934 226.003418 100.086914 Z " fill="rgb(0, 0, 0)" fill-opacity="1.000000" />
<path d="M 236.226074 95.193848 L 236.226074 96.160645 Q 235.801758 95.913574 235.372070 95.790039 Q 234.942383 95.666504 234.496582 95.666504 Q 233.825195 95.666504 233.494873 95.884033 Q 233.164551 96.101562 233.164551 96.547363 Q 233.164551 96.950195 233.411621 97.148926 Q 233.658691 97.347656 234.641602 97.535645 L 235.039062 97.610840 Q 235.774902 97.750488 236.153564 98.169434 Q 236.532227 98.588379 236.532227 99.259766 Q 236.532227 100.151367 235.898438 100.653564 Q 235.264648 101.155762 234.136719 101.155762 Q 233.690918 101.155762 233.202148 101.061768 Q 232.713379 100.967773 232.144043 100.779785 L 232.144043 99.759277 Q 232.697266 100.043945 233.202148 100.186279 Q 233.707031 100.328613 234.158203 100.328613 Q 234.813477 100.328613 235.173340 100.062744 Q 235.533203 99.796875 235.533203 99.318848 Q 235.533203 98.631348 234.217285 98.368164 L 234.174316 98.357422 L 233.803711 98.282227 Q 232.949707 98.115723 232.557617 97.720947 Q 232.165527 97.326172 232.165527 96.644043 Q 232.165527 95.779297 232.750977 95.309326 Q 233.336426 94.839355 234.421387 94.839355 Q 234.904785 94.839355 235.350586 94.927979 Q 235.796387 95.016602 236.226074 95.193848 Z " fill="rgb(0, 0, 0)" fill-opacity="1.000000" />
<path d="M 240.374023 99.061035 L 242.049805 99.061035 L 242.049805 100.484375 L 240.857422 102.799316 L 239.783203 102.804688 L 240.374023 100.484375 Z " fill="rgb(0, 0, 0)" fill-opacity="1.000000" />
<path d="M 253.450195 100.092285 L 255.136719 100.092285 L 255.136719 94.033691 L 253.117188 95.005859 L 253.117188 93.963867 L 255.125977 93.007812 L 256.210938 93.007812 L 256.210938 100.092285 L 257.875977 100.092285 L 257.875977 101.000000 L 253.450195 101.000000 Z " fill="rgb(0, 0, 0)" fill-opacity="1.000000" />
<path d="M 260.869141 92.116211 L 261.728516 92.116211 Q 262.539551 93.383789 262.937012 94.597656 Q 263.334473 95.811523 263.334473 97.009277 Q 263.334473 98.217773 262.937012 99.431641 Q 262.539551 100.645508 261.728516 101.913086 L 260.869141 101.913086 Q 261.583496 100.666992 261.935303 99.447754 Q 262.287109 98.228516 262.287109 97.009277 Q 262.287109 95.784668 261.935303 94.565430 Q 261.583496 93.346191 260.869141 92.116211 Z " fill="rgb(0, 0, 0)" fill-opacity="1.000000" />
<path d="M 290.201172 97.444336 Q 290.894043 97.444336 291.288818 96.944824 Q 291.683594 96.445312 291.683594 95.564453 Q 291.683594 94.683594 291.288818 94.184082 Q 290.894043 93.684570 290.201172 93.684570 Q 289.481445 93.684570 289.116211 94.159912 Q 288.750977 94.635254 288.750977 95.564453 Q 288.750977 96.499023 289.113525 96.971680 Q 289.476074 97.444336 290.201172 97.444336 Z M 288.267578 100.833496 L 288.267578 99.834473 Q 288.605957 100.033203 288.987305 100.137939 Q 289.368652 100.242676 289.782227 100.242676 Q 290.813477 100.242676 291.342529 99.466553 Q 291.871582 98.690430 291.871582 97.181152 Q 291.619141 97.718262 291.162598 98.005615 Q 290.706055 98.292969 290.115234 98.292969 Q 288.955078 98.292969 288.318604 97.578613 Q 287.682129 96.864258 287.682129 95.553711 Q 287.682129 94.259277 288.334717 93.547607 Q 288.987305 92.835938 290.179688 92.835938 Q 291.576172 92.835938 292.226074 93.840332 Q 292.875977 94.844727 292.875977 96.998535 Q 292.875977 99.023438 292.094482 100.089600 Q 291.312988 101.155762 289.825195 101.155762 Q 289.433105 101.155762 289.035645 101.072510 Q 288.638184 100.989258 288.267578 100.833496 Z " fill="rgb(0, 0, 0)" fill-opacity="1.000000" />
<path d="M 299.226074 95.193848 L 299.226074 96.160645 Q 298.801758 95.913574 298.372070 95.790039 Q 297.942383 95.666504 297.496582 95.666504 Q 296.825195 95.666504 296.494873 95.884033 Q 296.164551 96.101562 296.164551 96.547363 Q 296.164551 96.950195 296.411621 97.148926 Q 296.658691 97.347656 297.641602 97.535645 L 298.039062 97.610840 Q 298.774902 97.750488 299.153564 98.169434 Q 299.532227 98.588379 299.532227 99.259766 Q 299.532227 100.151367 298.898438 100.653564 Q 298.264648 101.155762 297.136719 101.155762 Q 296.690918 101.155762 296.202148 101.061768 Q 295.713379 100.967773 295.144043 100.779785 L 295.144043 99.759277 Q 295.697266 100.043945 296.202148 100.186279 Q 296.707031 100.328613 297.158203 100.328613 Q 297.813477 100.328613 298.173340 100.062744 Q 298.533203 99.796875 298.533203 99.318848 Q 298.533203 98.631348 297.217285 98.368164 L 297.174316 98.357422 L 296.803711 98.282227 Q 295.949707 98.115723 295.557617 97.720947 Q 295.165527 97.326172 295.165527 96.644043 Q 295.165527 95.779297 295.750977 95.309326 Q 296.336426 94.839355 297.421387 94.839355 Q 297.904785 94.839355 298.350586 94.927979 Q 298.796387 95.016602 299.226074 95.193848 Z " fill="rgb(0, 0, 0)" fill-opacity="1.000000" />
<path d="M 118.892578 85.335938 L 118.892578 84.412109 L 125.729980 84.412109 L 125.729980 85.335938 Z " fill="rgb(0, 0, 0)" fill-opacity="1.000000" />
<path d="M 130.082031 84.213379 Q 130.500977 84.320801 130.796387 84.618896 Q 131.091797 84.916992 131.532227 85.808594 L 132.622559 88.000000 L 131.457031 88.000000 L 130.500977 85.975098 Q 130.087402 85.110352 129.757080 84.860596 Q 129.426758 84.610840 128.895020 84.610840 L 127.858398 84.610840 L 127.858398 88.000000 L 126.768066 88.000000 L 126.768066 79.980957 L 129.002441 79.980957 Q 130.323730 79.980957 131.027344 80.577148 Q 131.730957 81.173340 131.730957 82.301270 Q 131.730957 83.096191 131.298584 83.598389 Q 130.866211 84.100586 130.082031 84.213379 Z M 127.858398 80.872559 L 127.858398 83.719238 L 129.045410 83.719238 Q 129.824219 83.719238 130.205566 83.370117 Q 130.586914 83.020996 130.586914 82.301270 Q 130.586914 81.608398 130.181396 81.240479 Q 129.775879 80.872559 129.002441 80.872559 Z " fill="rgb(0, 0, 0)" fill-opacity="1.000000" />
<path d="M 139.015625 84.498047 L 139.015625 84.981445 L 134.734863 84.981445 L 134.734863 85.013672 Q 134.691895 86.243652 135.204834 86.780762 Q 135.717773 87.317871 136.652344 87.317871 Q 137.125000 87.317871 137.640625 87.167480 Q 138.156250 87.017090 138.741699 86.710938 L 138.741699 87.693848 Q 138.177734 87.924805 137.654053 88.040283 Q 137.130371 88.155762 136.641602 88.155762 Q 135.239746 88.155762 134.450195 87.315186 Q 133.660645 86.474609 133.660645 84.997559 Q 133.660645 83.558105 134.434082 82.698730 Q 135.207520 81.839355 136.496582 81.839355 Q 137.645996 81.839355 138.309326 82.618164 Q 138.972656 83.396973 139.015625 84.498047 Z M 138.027344 84.208008 Q 137.962891 83.584961 137.573486 83.131104 Q 137.184082 82.677246 136.453613 82.677246 Q 135.739258 82.677246 135.277344 83.149902 Q 134.815430 83.622559 134.772461 84.213379 Z " fill="rgb(0, 0, 0)" fill-opacity="1.000000" />
<path d="M 141.783203 85.019043 Q 141.783203 86.168457 142.145752 86.753906 Q 142.508301 87.339355 143.222656 87.339355 Q 143.937012 87.339355 144.304932 86.751221 Q 144.672852 86.163086 144.672852 85.019043 Q 144.672852 83.875000 144.304932 83.286865 Q 143.937012 82.698730 143.222656 82.698730 Q 142.508301 82.698730 142.145752 83.284180 Q 141.783203 83.869629 141.783203 85.019043 Z M 144.672852 87.253418 Q 144.431152 87.699219 144.020264 87.938232 Q 143.609375 88.177246 143.066895 88.177246 Q 141.987305 88.177246 141.361572 87.342041 Q 140.735840 86.506836 140.735840 85.040527 Q 140.735840 83.547363 141.358887 82.704102 Q 141.981934 81.860840 143.066895 81.860840 Q 143.604004 81.860840 144.014893 82.094482 Q 144.425781 82.328125 144.672852 82.773926 L 144.672852 82.005859 L 145.666504 82.005859 L 145.666504 90.309570 L 144.672852 90.309570 Z " fill="rgb(0, 0, 0)" fill-opacity="1.000000" />
<path d="M 148.047363 85.722656 L 148.047363 81.995117 L 149.035645 81.995117 L 149.035645 85.722656 Q 149.035645 86.533691 149.322998 86.915039 Q 149.610352 87.296387 150.211914 87.296387 Q 150.910156 87.296387 151.280762 86.804932 Q 151.651367 86.313477 151.651367 85.395020 L 151.651367 81.995117 L 152.645020 81.995117 L 152.645020 88.000000 L 151.651367 88.000000 L 151.651367 87.097656 Q 151.388184 87.618652 150.934326 87.887207 Q 150.480469 88.155762 149.873535 88.155762 Q 148.949707 88.155762 148.498535 87.551514 Q 148.047363 86.947266 148.047363 85.722656 Z " fill="rgb(0, 0, 0)" fill-opacity="1.000000" />
<path d="M 160.015625 84.498047 L 160.015625 84.981445 L 155.734863 84.981445 L 155.734863 85.013672 Q 155.691895 86.243652 156.204834 86.780762 Q 156.717773 87.317871 157.652344 87.317871 Q 158.125000 87.317871 158.640625 87.167480 Q 159.156250 87.017090 159.741699 86.710938 L 159.741699 87.693848 Q 159.177734 87.924805 158.654053 88.040283 Q 158.130371 88.155762 157.641602 88.155762 Q 156.239746 88.155762 155.450195 87.315186 Q 154.660645 86.474609 154.660645 84.997559 Q 154.660645 83.558105 155.434082 82.698730 Q 156.207520 81.839355 157.496582 81.839355 Q 158.645996 81.839355 159.309326 82.618164 Q 159.972656 83.396973 160.015625 84.498047 Z M 159.027344 84.208008 Q 158.962891 83.584961 158.573486 83.131104 Q 158.184082 82.677246 157.453613 82.677246 Q 156.739258 82.677246 156.277344 83.149902 Q 155.815430 83.622559 155.772461 84.213379 Z " fill="rgb(0, 0, 0)" fill-opacity="1.000000" />
<path d="M 166.226074 82.193848 L 166.226074 83.160645 Q 165.801758 82.913574 165.372070 82.790039 Q 164.942383 82.666504 164.496582 82.666504 Q 163.825195 82.666504 163.494873 82.884033 Q 163.164551 83.101562 163.164551 83.547363 Q 163.164551 83.950195 163.411621 84.148926 Q 163.658691 84.347656 164.641602 84.535645 L 165.039062 84.610840 Q 165.774902 84.750488 166.153564 85.169434 Q 166.532227 85.588379 166.532227 86.259766 Q 166.532227 87.151367 165.898438 87.653564 Q 165.264648 88.155762 164.136719 88.155762 Q 163.690918 88.155762 163.202148 88.061768 Q 162.713379 87.967773 162.144043 87.779785 L 162.144043 86.759277 Q 162.697266 87.043945 163.202148 87.186279 Q 163.707031 87.328613 164.158203 87.328613 Q 164.813477 87.328613 165.173340 87.062744 Q 165.533203 86.796875 165.533203 86.318848 Q 165.533203 85.631348 164.217285 85.368164 L 164.174316 85.357422 L 163.803711 85.282227 Q 162.949707 85.115723 162.557617 84.720947 Q 162.165527 84.326172 162.165527 83.644043 Q 162.165527 82.779297 162.750977 82.309326 Q 163.336426 81.839355 164.421387 81.839355 Q 164.904785 81.839355 165.350586 81.927979 Q 165.796387 82.016602 166.226074 82.193848 Z " fill="rgb(0, 0, 0)" fill-opacity="1.000000" />
<path d="M 171.297852 80.276367 L 171.297852 81.984375 L 173.542969 81.984375 L 173.542969 82.752441 L 171.297852 82.752441 L 171.297852 86.018066 Q 171.297852 86.684082 171.550293 86.947266 Q 171.802734 87.210449 172.431152 87.210449 L 173.542969 87.210449 L 173.542969 88.000000 L 172.334473 88.000000 Q 171.222656 88.000000 170.766113 87.554199 Q 170.309570 87.108398 170.309570 86.018066 L 170.309570 82.752441 L 168.703613 82.752441 L 168.703613 81.984375 L 170.309570 81.984375 L 170.309570 80.276367 Z " fill="rgb(0, 0, 0)" fill-opacity="1.000000" />
<path d="M 174.892578 85.335938 L 174.892578 84.412109 L 181.729980 84.412109 L 181.729980 85.335938 Z " fill="rgb(0, 0, 0)" fill-opacity="1.000000" />
<path d="M 181.892578 85.335938 L 181.892578 84.412109 L 188.729980 84.412109 L 188.729980 85.335938 Z " fill="rgb(0, 0, 0)" fill-opacity="1.000000" />
<path d="M 196.208008 91.319336 L 195.251953 91.319336 L 188.414551 77.300781 L 189.370605 77.300781 Z " fill="rgb(0, 0, 0)" fill-opacity="1.000000" />
<path d="M 198.878906 91.319336 L 198.878906 77.300781 L 199.738281 77.300781 L 199.738281 91.319336 Z " fill="rgb(0, 0, 0)" fill-opacity="1.000000" />
<path d="M 8.450195 74.092285 L 10.136719 74.092285 L 10.136719 68.033691 L 8.117188 69.005859 L 8.117188 67.963867 L 10.125977 67.007812 L 11.210938 67.007812 L 11.210938 74.092285 L 12.875977 74.092285 L 12.875977 75.000000 L 8.450195 75.000000 Z " fill="rgb(0, 0, 0)" fill-opacity="1.000000" />
<path d="M 16.003418 74.086914 L 19.687988 74.086914 L 19.687988 75.000000 L 14.816406 75.000000 L 14.816406 74.086914 Q 15.820801 73.028809 16.572754 72.217773 Q 17.324707 71.406738 17.609375 71.073730 Q 18.146484 70.418457 18.334473 70.012939 Q 18.522461 69.607422 18.522461 69.183105 Q 18.522461 68.511719 18.127686 68.130371 Q 17.732910 67.749023 17.045410 67.749023 Q 16.556641 67.749023 16.019531 67.926270 Q 15.482422 68.103516 14.880859 68.463379 L 14.880859 67.367676 Q 15.434082 67.104492 15.968506 66.970215 Q 16.502930 66.835938 17.023926 66.835938 Q 18.200195 66.835938 18.917236 67.461670 Q 19.634277 68.087402 19.634277 69.102539 Q 19.634277 69.618164 19.395264 70.133789 Q 19.156250 70.649414 18.619141 71.272461 Q 18.318359 71.621582 17.746338 72.239258 Q 17.174316 72.856934 16.003418 74.086914 Z " fill="rgb(0, 0, 0)" fill-opacity="1.000000" />
<path d="M 26.226074 69.193848 L 26.226074 70.160645 Q 25.801758 69.913574 25.372070 69.790039 Q 24.942383 69.666504 24.496582 69.666504 Q 23.825195 69.666504 23.494873 69.884033 Q 23.164551 70.101562 23.164551 70.547363 Q 23.164551 70.950195 23.411621 71.148926 Q 23.658691 71.347656 24.641602 71.535645 L 25.039062 71.610840 Q 25.774902 71.750488 26.153564 72.169434 Q 26.532227 72.588379 26.532227 73.259766 Q 26.532227 74.151367 25.898438 74.653564 Q 25.264648 75.155762 24.136719 75.155762 Q 23.690918 75.155762 23.202148 75.061768 Q 22.713379 74.967773 22.144043 74.779785 L 22.144043 73.759277 Q 22.697266 74.043945 23.202148 74.186279 Q 23.707031 74.328613 24.158203 74.328613 Q 24.813477 74.328613 25.173340 74.062744 Q 25.533203 73.796875 25.533203 73.318848 Q 25.533203 72.631348 24.217285 72.368164 L 24.174316 72.357422 L 23.803711 72.282227 Q 22.949707 72.115723 22.557617 71.720947 Q 22.165527 71.326172 22.165527 70.644043 Q 22.165527 69.779297 22.750977 69.309326 Q 23.336426 68.839355 24.421387 68.839355 Q 24.904785 68.839355 25.350586 68.927979 Q 25.796387 69.016602 26.226074 69.193848 Z " fill="rgb(0, 0, 0)" fill-opacity="1.000000" />
<path d="M 46.592285 66.116211 Q 45.877930 67.340820 45.526123 68.557373 Q 45.174316 69.773926 45.174316 71.009277 Q 45.174316 72.239258 45.526123 73.458496 Q 45.877930 74.677734 46.592285 75.913086 L 45.732910 75.913086 Q 44.921875 74.634766 44.524414 73.423584 Q 44.126953 72.212402 44.126953 71.009277 Q 44.126953 69.811523 44.524414 68.597656 Q 44.921875 67.383789 45.732910 66.116211 Z " fill="rgb(0, 0, 0)" fill-opacity="1.000000" />
<path d="M 50.450195 74.092285 L 52.136719 74.092285 L 52.136719 68.033691 L 50.117188 69.005859 L 50.117188 67.963867 L 52.125977 67.007812 L 53.210938 67.007812 L 53.210938 74.092285 L 54.875977 74.092285 L 54.875977 75.000000 L 50.450195 75.000000 Z " fill="rgb(0, 0, 0)" fill-opacity="1.000000" />
<path d="M 58.003418 74.086914 L 61.687988 74.086914 L 61.687988 75.000000 L 56.816406 75.000000 L 56.816406 74.086914 Q 57.820801 73.028809 58.572754 72.217773 Q 59.324707 71.406738 59.609375 71.073730 Q 60.146484 70.418457 60.334473 70.012939 Q 60.522461 69.607422 60.522461 69.183105 Q 60.522461 68.511719 60.127686 68.130371 Q 59.732910 67.749023 59.045410 67.749023 Q 58.556641 67.749023 58.019531 67.926270 Q 57.482422 68.103516 56.880859 68.463379 L 56.880859 67.367676 Q 57.434082 67.104492 57.968506 66.970215 Q 58.502930 66.835938 59.023926 66.835938 Q 60.200195 66.835938 60.917236 67.461670 Q 61.634277 68.087402 61.634277 69.102539 Q 61.634277 69.618164 61.395264 70.133789 Q 61.156250 70.649414 60.619141 71.272461 Q 60.318359 71.621582 59.746338 72.239258 Q 59.174316 72.856934 58.003418 74.086914 Z " fill="rgb(0, 0, 0)" fill-opacity="1.000000" />
<path d="M 68.226074 69.193848 L 68.226074 70.160645 Q 67.801758 69.913574 67.372070 69.790039 Q 66.942383 69.666504 66.496582 69.666504 Q 65.825195 69.666504 65.494873 69.884033 Q 65.164551 70.101562 65.164551 70.547363 Q 65.164551 70.950195 65.411621 71.148926 Q 65.658691 71.347656 66.641602 71.535645 L 67.039062 71.610840 Q 67.774902 71.750488 68.153564 72.169434 Q 68.532227 72.588379 68.532227 73.259766 Q 68.532227 74.151367 67.898438 74.653564 Q 67.264648 75.155762 66.136719 75.155762 Q 65.690918 75.155762 65.202148 75.061768 Q 64.713379 74.967773 64.144043 74.779785 L 64.144043 73.759277 Q 64.697266 74.043945 65.202148 74.186279 Q 65.707031 74.328613 66.158203 74.328613 Q 66.813477 74.328613 67.173340 74.062744 Q 67.533203 73.796875 67.533203 73.318848 Q 67.533203 72.631348 66.217285 72.368164 L 66.174316 72.357422 L 65.803711 72.282227 Q 64.949707 72.115723 64.557617 71.720947 Q 64.165527 71.326172 64.165527 70.644043 Q 64.165527 69.779297 64.750977 69.309326 Q 65.336426 68.839355 66.421387 68.839355 Q 66.904785 68.839355 67.350586 68.927979 Q 67.796387 69.016602 68.226074 69.193848 Z " fill="rgb(0, 0, 0)" fill-opacity="1.000000" />
<path d="M 72.374023 73.061035 L 74.049805 73.061035 L 74.049805 74.484375 L 72.857422 76.799316 L 71.783203 76.804688 L 72.374023 74.484375 Z " fill="rgb(0, 0, 0)" fill-opacity="1.000000" />
<path d="M 87.308594 66.862793 Q 88.592285 66.862793 89.250244 67.910156 Q 89.908203 68.957520 89.908203 71.009277 Q 89.908203 73.061035 89.250244 74.108398 Q 88.592285 75.155762 87.308594 75.155762 Q 86.024902 75.155762 85.369629 74.108398 Q 84.714355 73.061035 84.714355 71.009277 Q 84.714355 68.957520 85.369629 67.910156 Q 86.024902 66.862793 87.308594 66.862793 Z M 87.308594 74.296387 Q 88.071289 74.296387 88.444580 73.485352 Q 88.817871 72.674316 88.817871 71.009277 Q 88.817871 70.123047 88.710449 69.408691 L 86.153809 73.410156 Q 86.556641 74.296387 87.308594 74.296387 Z M 87.308594 67.722168 Q 86.551270 67.722168 86.177979 68.533203 Q 85.804688 69.344238 85.804688 71.009277 Q 85.804688 71.766602 85.906738 72.427246 L 88.409668 68.436523 Q 88.001465 67.722168 87.308594 67.722168 Z " fill="rgb(0, 0, 0)" fill-opacity="1.000000" />
<path d="M 92.869141 66.116211 L 93.728516 66.116211 Q 94.539551 67.383789 94.937012 68.597656 Q 95.334473 69.811523 95.334473 71.009277 Q 95.334473 72.217773 94.937012 73.431641 Q 94.539551 74.645508 93.728516 75.913086 L 92.869141 75.913086 Q 93.583496 74.666992 93.935303 73.447754 Q 94.287109 72.228516 94.287109 71.009277 Q 94.287109 69.784668 93.935303 68.565430 Q 93.583496 67.346191 92.869141 66.116211 Z " fill="rgb(0, 0, 0)" fill-opacity="1.000000" />
<path d="M 112.208008 78.319336 L 111.251953 78.319336 L 108.308594 72.287598 L 105.370605 78.319336 L 104.414551 78.319336 L 107.835938 71.310059 L 104.414551 64.300781 L 105.370605 64.300781 L 108.308594 70.332520 L 111.251953 64.300781 L 112.208008 64.300781 L 108.791992 71.310059 Z " fill="rgb(0, 0, 0)" fill-opacity="1.000000" />
<path d="M 198.878906 78.319336 L 198.878906 64.300781 L 199.738281 64.300781 L 199.738281 78.319336 Z " fill="rgb(0, 0, 0)" fill-opacity="1.000000" />
<path d="M 8.450195 35.092285 L 10.136719 35.092285 L 10.136719 29.033691 L 8.117188 30.005859 L 8.117188 28.963867 L 10.125977 28.007812 L 11.210938 28.007812 L 11.210938 35.092285 L 12.875977 35.092285 L 12.875977 36.000000 L 8.450195 36.000000 Z " fill="rgb(0, 0, 0)" fill-opacity="1.000000" />
<path d="M 100.878906 46.335938 L 100.878906 38.300781 L 101.738281 38.300781 L 101.738281 45.412109 L 104.729980 45.412109 L 104.729980 46.335938 Z " fill="rgb(0, 0, 0)" fill-opacity="1.000000" />
<path d="M 107.878906 65.319336 L 107.878906 51.300781 L 108.738281 51.300781 L 108.738281 65.319336 Z " fill="rgb(0, 0, 0)" fill-opacity="1.000000" />
<path d="M 198.878906 65.319336 L 198.878906 51.300781 L 199.738281 51.300781 L 199.738281 65.319336 Z " fill="rgb(0, 0, 0)" fill-opacity="1.000000" />
<path d="M 104.892578 46.335938 L 104.892578 45.412109 L 111.729980 45.412109 L 111.729980 46.335938 Z " fill="rgb(0, 0, 0)" fill-opacity="1.000000" />
<path d="M 111.892578 46.335938 L 111.892578 45.412109 L 114.878906 45.412109 L 114.878906 38.300781 L 115.738281 38.300781 L 115.738281 46.335938 Z " fill="rgb(0, 0, 0)" fill-opacity="1.000000" />
<path d="M 191.878906 46.335938 L 191.878906 38.300781 L 192.738281 38.300781 L 192.738281 45.412109 L 195.729980 45.412109 L 195.729980 46.335938 Z " fill="rgb(0, 0, 0)" fill-opacity="1.000000" />
<path d="M 195.892578 46.335938 L 195.892578 45.412109 L 202.729980 45.412109 L 202.729980 46.335938 Z " fill="rgb(0, 0, 0)" fill-opacity="1.000000" />
<path d="M 202.892578 46.335938 L 202.892578 45.412109 L 205.878906 45.412109 L 205.878906 38.300781 L 206.738281 38.300781 L 206.738281 46.335938 Z " fill="rgb(0, 0, 0)" fill-opacity="1.000000" />
<path d="M 17.308594 27.862793 Q 18.592285 27.862793 19.250244 28.910156 Q 19.908203 29.957520 19.908203 32.009277 Q 19.908203 34.061035 19.250244 35.108398 Q 18.592285 36.155762 17.308594 36.155762 Q 16.024902 36.155762 15.369629 35.108398 Q 14.714355 34.061035 14.714355 32.009277 Q 14.714355 29.957520 15.369629 28.910156 Q 16.024902 27.862793 17.308594 27.862793 Z M 17.308594 35.296387 Q 18.071289 35.296387 18.444580 34.485352 Q 18.817871 33.674316 18.817871 32.009277 Q 18.817871 31.123047 18.710449 30.408691 L 16.153809 34.410156 Q 16.556641 35.296387 17.308594 35.296387 Z M 17.308594 28.722168 Q 16.551270 28.722168 16.177979 29.533203 Q 15.804688 30.344238 15.804688 32.009277 Q 15.804688 32.766602 15.906738 33.427246 L 18.409668 29.436523 Q 18.001465 28.722168 17.308594 28.722168 Z " fill="rgb(0, 0, 0)" fill-opacity="1.000000" />
<path d="M 26.226074 30.193848 L 26.226074 31.160645 Q 25.801758 30.913574 25.372070 30.790039 Q 24.942383 30.666504 24.496582 30.666504 Q 23.825195 30.666504 23.494873 30.884033 Q 23.164551 31.101562 23.164551 31.547363 Q 23.164551 31.950195 23.411621 32.148926 Q 23.658691 32.347656 24.641602 32.535645 L 25.039062 32.610840 Q 25.774902 32.750488 26.153564 33.169434 Q 26.532227 33.588379 26.532227 34.259766 Q 26.532227 35.151367 25.898438 35.653564 Q 25.264648 36.155762 24.136719 36.155762 Q 23.690918 36.155762 23.202148 36.061768 Q 22.713379 35.967773 22.144043 35.779785 L 22.144043 34.759277 Q 22.697266 35.043945 23.202148 35.186279 Q 23.707031 35.328613 24.158203 35.328613 Q 24.813477 35.328613 25.173340 35.062744 Q 25.533203 34.796875 25.533203 34.318848 Q 25.533203 33.631348 24.217285 33.368164 L 24.174316 33.357422 L 23.803711 33.282227 Q 22.949707 33.115723 22.557617 32.720947 Q 22.165527 32.326172 22.165527 31.644043 Q 22.165527 30.779297 22.750977 30.309326 Q 23.336426 29.839355 24.421387 29.839355 Q 24.904785 29.839355 25.350586 29.927979 Q 25.796387 30.016602 26.226074 30.193848 Z " fill="rgb(0, 0, 0)" fill-opacity="1.000000" />
<path d="M 46.592285 27.116211 Q 45.877930 28.340820 45.526123 29.557373 Q 45.174316 30.773926 45.174316 32.009277 Q 45.174316 33.239258 45.526123 34.458496 Q 45.877930 35.677734 46.592285 36.913086 L 45.732910 36.913086 Q 44.921875 35.634766 44.524414 34.423584 Q 44.126953 33.212402 44.126953 32.009277 Q 44.126953 30.811523 44.524414 29.597656 Q 44.921875 28.383789 45.732910 27.116211 Z " fill="rgb(0, 0, 0)" fill-opacity="1.000000" />
<path d="M 50.450195 35.092285 L 52.136719 35.092285 L 52.136719 29.033691 L 50.117188 30.005859 L 50.117188 28.963867 L 52.125977 28.007812 L 53.210938 28.007812 L 53.210938 35.092285 L 54.875977 35.092285 L 54.875977 36.000000 L 50.450195 36.000000 Z " fill="rgb(0, 0, 0)" fill-opacity="1.000000" />
<path d="M 59.308594 27.862793 Q 60.592285 27.862793 61.250244 28.910156 Q 61.908203 29.957520 61.908203 32.009277 Q 61.908203 34.061035 61.250244 35.108398 Q 60.592285 36.155762 59.308594 36.155762 Q 58.024902 36.155762 57.369629 35.108398 Q 56.714355 34.061035 56.714355 32.009277 Q 56.714355 29.957520 57.369629 28.910156 Q 58.024902 27.862793 59.308594 27.862793 Z M 59.308594 35.296387 Q 60.071289 35.296387 60.444580 34.485352 Q 60.817871 33.674316 60.817871 32.009277 Q 60.817871 31.123047 60.710449 30.408691 L 58.153809 34.410156 Q 58.556641 35.296387 59.308594 35.296387 Z M 59.308594 28.722168 Q 58.551270 28.722168 58.177979 29.533203 Q 57.804688 30.344238 57.804688 32.009277 Q 57.804688 32.766602 57.906738 33.427246 L 60.409668 29.436523 Q 60.001465 28.722168 59.308594 28.722168 Z " fill="rgb(0, 0, 0)" fill-opacity="1.000000" />
<path d="M 68.226074 30.193848 L 68.226074 31.160645 Q 67.801758 30.913574 67.372070 30.790039 Q 66.942383 30.666504 66.496582 30.666504 Q 65.825195 30.666504 65.494873 30.884033 Q 65.164551 31.101562 65.164551 31.547363 Q 65.164551 31.950195 65.411621 32.148926 Q 65.658691 32.347656 66.641602 32.535645 L 67.039062 32.610840 Q 67.774902 32.750488 68.153564 33.169434 Q 68.532227 33.588379 68.532227 34.259766 Q 68.532227 35.151367 67.898438 35.653564 Q 67.264648 36.155762 66.136719 36.155762 Q 65.690918 36.155762 65.202148 36.061768 Q 64.713379 35.967773 64.144043 35.779785 L 64.144043 34.759277 Q 64.697266 35.043945 65.202148 35.186279 Q 65.707031 35.328613 66.158203 35.328613 Q 66.813477 35.328613 67.173340 35.062744 Q 67.533203 34.796875 67.533203 34.318848 Q 67.533203 33.631348 66.217285 33.368164 L 66.174316 33.357422 L 65.803711 33.282227 Q 64.949707 33.115723 64.557617 32.720947 Q 64.165527 32.326172 64.165527 31.644043 Q 64.165527 30.779297 64.750977 30.309326 Q 65.336426 29.839355 66.421387 29.839355 Q 66.904785 29.839355 67.350586 29.927979 Q 67.796387 30.016602 68.226074 30.193848 Z " fill="rgb(0, 0, 0)" fill-opacity="1.000000" />
<path d="M 72.374023 34.061035 L 74.049805 34.061035 L 74.049805 35.484375 L 72.857422 37.799316 L 71.783203 37.804688 L 72.374023 35.484375 Z " fill="rgb(0, 0, 0)" fill-opacity="1.000000" />
<path d="M 87.308594 27.862793 Q 88.592285 27.862793 89.250244 28.910156 Q 89.908203 29.957520 89.908203 32.009277 Q 89.908203 34.061035 89.250244 35.108398 Q 88.592285 36.155762 87.308594 36.155762 Q 86.024902 36.155762 85.369629 35.108398 Q 84.714355 34.061035 84.714355 32.009277 Q 84.714355 29.957520 85.369629 28.910156 Q 86.024902 27.862793 87.308594 27.862793 Z M 87.308594 35.296387 Q 88.071289 35.296387 88.444580 34.485352 Q 88.817871 33.674316 88.817871 32.009277 Q 88.817871 31.123047 88.710449 30.408691 L 86.153809 34.410156 Q 86.556641 35.296387 87.308594 35.296387 Z M 87.308594 28.722168 Q 86.551270 28.722168 86.177979 29.533203 Q 85.804688 30.344238 85.804688 32.009277 Q 85.804688 32.766602 85.906738 33.427246 L 88.409668 29.436523 Q 88.001465 28.722168 87.308594 28.722168 Z " fill="rgb(0, 0, 0)" fill-opacity="1.000000" />
<path d="M 92.869141 27.116211 L 93.728516 27.116211 Q 94.539551 28.383789 94.937012 29.597656 Q 95.334473 30.811523 95.334473 32.009277 Q 95.334473 33.217773 94.937012 34.431641 Q 94.539551 35.645508 93.728516 36.913086 L 92.869141 36.913086 Q 93.583496 35.666992 93.935303 34.447754 Q 94.287109 33.228516 94.287109 32.009277 Q 94.287109 30.784668 93.935303 29.565430 Q 93.583496 28.346191 92.869141 27.116211 Z " fill="rgb(0, 0, 0)" fill-opacity="1.000000" />
<path d="M 100.878906 39.319336 L 100.878906 25.300781 L 101.738281 25.300781 L 101.738281 39.319336 Z " fill="rgb(0, 0, 0)" fill-opacity="1.000000" />
<path d="M 108.308594 28.937012 L 107.164551 33.040527 L 109.452637 33.040527 Z M 107.653320 27.980957 L 108.969238 27.980957 L 111.423828 36.000000 L 110.301270 36.000000 L 109.710449 33.910645 L 106.901367 33.910645 L 106.321289 36.000000 L 105.198730 36.000000 Z " fill="rgb(0, 0, 0)" fill-opacity="1.000000" />
<path d="M 114.878906 39.319336 L 114.878906 25.300781 L 115.738281 25.300781 L 115.738281 39.319336 Z " fill="rgb(0, 0, 0)" fill-opacity="1.000000" />
<path d="M 191.878906 39.319336 L 191.878906 25.300781 L 192.738281 25.300781 L 192.738281 39.319336 Z " fill="rgb(0, 0, 0)" fill-opacity="1.000000" />
<path d="M 197.981934 31.955566 L 197.981934 35.108398 L 199.265625 35.108398 Q 200.210938 35.108398 200.613770 34.778076 Q 201.016602 34.447754 201.016602 33.690430 Q 201.016602 32.691406 200.592285 32.323486 Q 200.167969 31.955566 199.265625 31.955566 Z M 197.981934 28.872559 L 197.981934 31.074707 L 199.244141 31.074707 Q 200.028320 31.074707 200.380127 30.773926 Q 200.731934 30.473145 200.731934 30.016602 Q 200.731934 29.409668 200.385498 29.141113 Q 200.039062 28.872559 199.244141 28.872559 Z M 196.891602 27.980957 L 199.265625 27.980957 Q 200.495605 27.980957 201.161621 28.512695 Q 201.827637 29.044434 201.827637 30.016602 Q 201.827637 30.537598 201.475830 30.961914 Q 201.124023 31.386230 200.420410 31.493652 Q 201.209961 31.611816 201.658447 32.167725 Q 202.106934 32.723633 202.106934 33.797852 Q 202.106934 34.888184 201.392578 35.444092 Q 200.678223 36.000000 199.265625 36.000000 L 196.891602 36.000000 Z " fill="rgb(0, 0, 0)" fill-opacity="1.000000" />
<path d="M 205.878906 39.319336 L 205.878906 25.300781 L 206.738281 25.300781 L 206.738281 39.319336 Z " fill="rgb(0, 0, 0)" fill-opacity="1.000000" />
<path d="M 221.592285 27.116211 Q 220.877930 28.340820 220.526123 29.557373 Q 220.174316 30.773926 220.174316 32.009277 Q 220.174316 33.239258 220.526123 34.458496 Q 220.877930 35.677734 221.592285 36.913086 L 220.732910 36.913086 Q 219.921875 35.634766 219.524414 34.423584 Q 219.126953 33.212402 219.126953 32.009277 Q 219.126953 30.811523 219.524414 29.597656 Q 219.921875 28.383789 220.732910 27.116211 Z " fill="rgb(0, 0, 0)" fill-opacity="1.000000" />
<path d="M 225.111816 27.980957 L 229.172363 27.980957 L 229.172363 28.894043 L 226.100098 28.894043 L 226.100098 30.865234 Q 226.331055 30.779297 226.564697 30.739014 Q 226.798340 30.698730 227.034668 30.698730 Q 228.280762 30.698730 229.011230 31.434570 Q 229.741699 32.170410 229.741699 33.427246 Q 229.741699 34.694824 228.976318 35.425293 Q 228.210938 36.155762 226.884277 36.155762 Q 226.245117 36.155762 225.716064 36.069824 Q 225.187012 35.983887 224.768066 35.812012 L 224.768066 34.710938 Q 225.262207 34.979492 225.761719 35.111084 Q 226.261230 35.242676 226.782227 35.242676 Q 227.679199 35.242676 228.165283 34.770020 Q 228.651367 34.297363 228.651367 33.427246 Q 228.651367 32.567871 228.149170 32.089844 Q 227.646973 31.611816 226.750000 31.611816 Q 226.314941 31.611816 225.901367 31.711182 Q 225.487793 31.810547 225.111816 32.009277 Z " fill="rgb(0, 0, 0)" fill-opacity="1.000000" />
<path d="M 236.226074 30.193848 L 236.226074 31.160645 Q 235.801758 30.913574 235.372070 30.790039 Q 234.942383 30.666504 234.496582 30.666504 Q 233.825195 30.666504 233.494873 30.884033 Q 233.164551 31.101562 233.164551 31.547363 Q 233.164551 31.950195 233.411621 32.148926 Q 233.658691 32.347656 234.641602 32.535645 L 235.039062 32.610840 Q 235.774902 32.750488 236.153564 33.169434 Q 236.532227 33.588379 236.532227 34.259766 Q 236.532227 35.151367 235.898438 35.653564 Q 235.264648 36.155762 234.136719 36.155762 Q 233.690918 36.155762 233.202148 36.061768 Q 232.713379 35.967773 232.144043 35.779785 L 232.144043 34.759277 Q 232.697266 35.043945 233.202148 35.186279 Q 233.707031 35.328613 234.158203 35.328613 Q 234.813477 35.328613 235.173340 35.062744 Q 235.533203 34.796875 235.533203 34.318848 Q 235.533203 33.631348 234.217285 33.368164 L 234.174316 33.357422 L 233.803711 33.282227 Q 232.949707 33.115723 232.557617 32.720947 Q 232.165527 32.326172 232.165527 31.644043 Q 232.165527 30.779297 232.750977 30.309326 Q 233.336426 29.839355 234.421387 29.839355 Q 234.904785 29.839355 235.350586 29.927979 Q 235.796387 30.016602 236.226074 30.193848 Z " fill="rgb(0, 0, 0)" fill-opacity="1.000000" />
<path d="M 240.374023 34.061035 L 242.049805 34.061035 L 242.049805 35.484375 L 240.857422 37.799316 L 239.783203 37.804688 L 240.374023 35.484375 Z " fill="rgb(0, 0, 0)" fill-opacity="1.000000" />
<path d="M 255.308594 27.862793 Q 256.592285 27.862793 257.250244 28.910156 Q 257.908203 29.957520 257.908203 32.009277 Q 257.908203 34.061035 257.250244 35.108398 Q 256.592285 36.155762 255.308594 36.155762 Q 254.024902 36.155762 253.369629 35.108398 Q 252.714355 34.061035 252.714355 32.009277 Q 252.714355 29.957520 253.369629 28.910156 Q 254.024902 27.862793 255.308594 27.862793 Z M 255.308594 35.296387 Q 256.071289 35.296387 256.444580 34.485352 Q 256.817871 33.674316 256.817871 32.009277 Q 256.817871 31.123047 256.710449 30.408691 L 254.153809 34.410156 Q 254.556641 35.296387 255.308594 35.296387 Z M 255.308594 28.722168 Q 254.551270 28.722168 254.177979 29.533203 Q 253.804688 30.344238 253.804688 32.009277 Q 253.804688 32.766602 253.906738 33.427246 L 256.409668 29.436523 Q 256.001465 28.722168 255.308594 28.722168 Z " fill="rgb(0, 0, 0)" fill-opacity="1.000000" />
<path d="M 260.869141 27.116211 L 261.728516 27.116211 Q 262.539551 28.383789 262.937012 29.597656 Q 263.334473 30.811523 263.334473 32.009277 Q 263.334473 33.217773 262.937012 34.431641 Q 262.539551 35.645508 261.728516 36.913086 L 260.869141 36.913086 Q 261.583496 35.666992 261.935303 34.447754 Q 262.287109 33.228516 262.287109 32.009277 Q 262.287109 30.784668 261.935303 29.565430 Q 261.583496 28.346191 260.869141 27.116211 Z " fill="rgb(0, 0, 0)" fill-opacity="1.000000" />
<path d="M 288.111816 27.980957 L 292.172363 27.980957 L 292.172363 28.894043 L 289.100098 28.894043 L 289.100098 30.865234 Q 289.331055 30.779297 289.564697 30.739014 Q 289.798340 30.698730 290.034668 30.698730 Q 291.280762 30.698730 292.011230 31.434570 Q 292.741699 32.170410 292.741699 33.427246 Q 292.741699 34.694824 291.976318 35.425293 Q 291.210938 36.155762 289.884277 36.155762 Q 289.245117 36.155762 288.716064 36.069824 Q 288.187012 35.983887 287.768066 35.812012 L 287.768066 34.710938 Q 288.262207 34.979492 288.761719 35.111084 Q 289.261230 35.242676 289.782227 35.242676 Q 290.679199 35.242676 291.165283 34.770020 Q 291.651367 34.297363 291.651367 33.427246 Q 291.651367 32.567871 291.149170 32.089844 Q 290.646973 31.611816 289.750000 31.611816 Q 289.314941 31.611816 288.901367 31.711182 Q 288.487793 31.810547 288.111816 32.009277 Z " fill="rgb(0, 0, 0)" fill-opacity="1.000000" />
<path d="M 299.226074 30.193848 L 299.226074 31.160645 Q 298.801758 30.913574 298.372070 30.790039 Q 297.942383 30.666504 297.496582 30.666504 Q 296.825195 30.666504 296.494873 30.884033 Q 296.164551 31.101562 296.164551 31.547363 Q 296.164551 31.950195 296.411621 32.148926 Q 296.658691 32.347656 297.641602 32.535645 L 298.039062 32.610840 Q 298.774902 32.750488 299.153564 33.169434 Q 299.532227 33.588379 299.532227 34.259766 Q 299.532227 35.151367 298.898438 35.653564 Q 298.264648 36.155762 297.136719 36.155762 Q 296.690918 36.155762 296.202148 36.061768 Q 295.713379 35.967773 295.144043 35.779785 L 295.144043 34.759277 Q 295.697266 35.043945 296.202148 35.186279 Q 296.707031 35.328613 297.158203 35.328613 Q 297.813477 35.328613 298.173340 35.062744 Q 298.533203 34.796875 298.533203 34.318848 Q 298.533203 33.631348 297.217285 33.368164 L 297.174316 33.357422 L 296.803711 33.282227 Q 295.949707 33.115723 295.557617 32.720947 Q 295.165527 32.326172 295.165527 31.644043 Q 295.165527 30.779297 295.750977 30.309326 Q 296.336426 29.839355 297.421387 29.839355 Q 297.904785 29.839355 298.350586 29.927979 Q 298.796387 30.016602 299.226074 30.193848 Z " fill="rgb(0, 0, 0)" fill-opacity="1.000000" />
<path d="M 100.878906 26.319336 L 100.878906 19.412109 L 104.729980 19.412109 L 104.729980 20.335938 L 101.738281 20.335938 L 101.738281 26.319336 Z " fill="rgb(0, 0, 0)" fill-opacity="1.000000" />
<path d="M 104.892578 20.335938 L 104.892578 19.412109 L 111.729980 19.412109 L 111.729980 20.335938 Z " fill="rgb(0, 0, 0)" fill-opacity="1.000000" />
<path d="M 114.878906 26.319336 L 114.878906 20.335938 L 111.892578 20.335938 L 111.892578 19.412109 L 115.738281 19.412109 L 115.738281 26.319336 Z " fill="rgb(0, 0, 0)" fill-opacity="1.000000" />
<path d="M 191.878906 26.319336 L 191.878906 19.412109 L 195.729980 19.412109 L 195.729980 20.335938 L 192.738281 20.335938 L 192.738281 26.319336 Z " fill="rgb(0, 0, 0)" fill-opacity="1.000000" />
<path d="M 195.892578 20.335938 L 195.892578 19.412109 L 202.729980 19.412109 L 202.729980 20.335938 Z " fill="rgb(0, 0, 0)" fill-opacity="1.000000" />
<path d="M 205.878906 26.319336 L 205.878906 20.335938 L 202.892578 20.335938 L 202.892578 19.412109 L 206.738281 19.412109 L 206.738281 26.319336 Z " fill="rgb(0, 0, 0)" fill-opacity="1.000000" />
<path d="M 7.000000 1.980957 L 8.058105 1.980957 L 8.826172 8.490723 L 9.739258 4.183105 L 10.872559 4.183105 L 11.796387 8.501465 L 12.564453 1.980957 L 13.622559 1.980957 L 12.424805 10.000000 L 11.398926 10.000000 L 10.308594 5.235840 L 9.223633 10.000000 L 8.197754 10.000000 Z " fill="rgb(0, 0, 0)" fill-opacity="1.000000" />
<path d="M 17.770508 6.976074 L 17.442871 6.976074 Q 16.578125 6.976074 16.140381 7.279541 Q 15.702637 7.583008 15.702637 8.184570 Q 15.702637 8.727051 16.030273 9.027832 Q 16.357910 9.328613 16.937988 9.328613 Q 17.754395 9.328613 18.221680 8.761963 Q 18.688965 8.195312 18.694336 7.196289 L 18.694336 6.976074 Z M 19.687988 6.567871 L 19.687988 10.000000 L 18.694336 10.000000 L 18.694336 9.108398 Q 18.377441 9.645508 17.896729 9.900635 Q 17.416016 10.155762 16.728516 10.155762 Q 15.810059 10.155762 15.262207 9.637451 Q 14.714355 9.119141 14.714355 8.249023 Q 14.714355 7.244629 15.388428 6.723633 Q 16.062500 6.202637 17.367676 6.202637 L 18.694336 6.202637 L 18.694336 6.046875 Q 18.688965 5.327148 18.329102 5.002197 Q 17.969238 4.677246 17.179688 4.677246 Q 16.674805 4.677246 16.159180 4.822266 Q 15.643555 4.967285 15.154785 5.246582 L 15.154785 4.258301 Q 15.702637 4.048828 16.204834 3.944092 Q 16.707031 3.839355 17.179688 3.839355 Q 17.926270 3.839355 18.455322 4.059570 Q 18.984375 4.279785 19.312012 4.720215 Q 19.516113 4.988770 19.602051 5.383545 Q 19.687988 5.778320 19.687988 6.567871 Z " fill="rgb(0, 0, 0)" fill-opacity="1.000000" />
<path d="M 24.861816 7.824707 Q 24.861816 8.490723 25.106201 8.829102 Q 25.350586 9.167480 25.828613 9.167480 L 26.983398 9.167480 L 26.983398 10.000000 L 25.731934 10.000000 Q 24.845703 10.000000 24.359619 9.433350 Q 23.873535 8.866699 23.873535 7.824707 L 23.873535 2.383789 L 22.289062 2.383789 L 22.289062 1.610352 L 24.861816 1.610352 Z " fill="rgb(0, 0, 0)" fill-opacity="1.000000" />
<path d="M 31.861816 7.824707 Q 31.861816 8.490723 32.106201 8.829102 Q 32.350586 9.167480 32.828613 9.167480 L 33.983398 9.167480 L 33.983398 10.000000 L 32.731934 10.000000 Q 31.845703 10.000000 31.359619 9.433350 Q 30.873535 8.866699 30.873535 7.824707 L 30.873535 2.383789 L 29.289062 2.383789 L 29.289062 1.610352 L 31.861816 1.610352 Z " fill="rgb(0, 0, 0)" fill-opacity="1.000000" />
<path d="M 49.735840 1.980957 L 50.826172 1.980957 L 50.826172 5.053223 L 53.796387 5.053223 L 53.796387 1.980957 L 54.886719 1.980957 L 54.886719 10.000000 L 53.796387 10.000000 L 53.796387 5.966309 L 50.826172 5.966309 L 50.826172 10.000000 L 49.735840 10.000000 Z " fill="rgb(0, 0, 0)" fill-opacity="1.000000" />
<path d="M 60.608398 8.066406 Q 60.361328 8.694824 59.979980 9.720703 Q 59.448242 11.138672 59.265625 11.450195 Q 59.018555 11.869141 58.647949 12.078613 Q 58.277344 12.288086 57.783203 12.288086 L 56.988281 12.288086 L 56.988281 11.460938 L 57.573730 11.460938 Q 58.008789 11.460938 58.255859 11.208496 Q 58.502930 10.956055 58.884277 9.903320 L 56.558594 3.984375 L 57.605957 3.984375 L 59.389160 8.689453 L 61.145508 3.984375 L 62.192871 3.984375 Z " fill="rgb(0, 0, 0)" fill-opacity="1.000000" />
<path d="M 67.930664 6.997559 Q 67.930664 5.848145 67.565430 5.262695 Q 67.200195 4.677246 66.485840 4.677246 Q 65.766113 4.677246 65.395508 5.265381 Q 65.024902 5.853516 65.024902 6.997559 Q 65.024902 8.136230 65.395508 8.727051 Q 65.766113 9.317871 66.485840 9.317871 Q 67.200195 9.317871 67.565430 8.732422 Q 67.930664 8.146973 67.930664 6.997559 Z M 65.024902 4.752441 Q 65.261230 4.312012 65.677490 4.075684 Q 66.093750 3.839355 66.641602 3.839355 Q 67.726562 3.839355 68.349609 4.674561 Q 68.972656 5.509766 68.972656 6.976074 Q 68.972656 8.463867 68.346924 9.309814 Q 67.721191 10.155762 66.630859 10.155762 Q 66.093750 10.155762 65.682861 9.922119 Q 65.271973 9.688477 65.024902 9.242676 L 65.024902 10.000000 L 64.036621 10.000000 L 64.036621 1.642578 L 65.024902 1.642578 Z " fill="rgb(0, 0, 0)" fill-opacity="1.000000" />
<path d="M 76.203613 5.225098 Q 75.886719 4.978027 75.559082 4.865234 Q 75.231445 4.752441 74.839355 4.752441 Q 73.915527 4.752441 73.426758 5.332520 Q 72.937988 5.912598 72.937988 7.008301 L 72.937988 10.000000 L 71.944336 10.000000 L 71.944336 3.984375 L 72.937988 3.984375 L 72.937988 5.160645 Q 73.185059 4.521484 73.697998 4.180420 Q 74.210938 3.839355 74.914551 3.839355 Q 75.279785 3.839355 75.596680 3.930664 Q 75.913574 4.021973 76.203613 4.215332 Z " fill="rgb(0, 0, 0)" fill-opacity="1.000000" />
<path d="M 78.697266 4.005859 L 81.227051 4.005859 L 81.227051 9.231934 L 83.187500 9.231934 L 83.187500 10.000000 L 78.278320 10.000000 L 78.278320 9.231934 L 80.238770 9.231934 L 80.238770 4.773926 L 78.697266 4.773926 Z M 80.238770 1.669434 L 81.227051 1.669434 L 81.227051 2.915527 L 80.238770 2.915527 Z " fill="rgb(0, 0, 0)" fill-opacity="1.000000" />
<path d="M 88.608398 4.752441 L 88.608398 1.642578 L 89.596680 1.642578 L 89.596680 10.000000 L 88.608398 10.000000 L 88.608398 9.242676 Q 88.361328 9.688477 87.950439 9.922119 Q 87.539551 10.155762 87.002441 10.155762 Q 85.912109 10.155762 85.286377 9.309814 Q 84.660645 8.463867 84.660645 6.976074 Q 84.660645 5.509766 85.289062 4.674561 Q 85.917480 3.839355 87.002441 3.839355 Q 87.544922 3.839355 87.958496 4.072998 Q 88.372070 4.306641 88.608398 4.752441 Z M 85.702637 6.997559 Q 85.702637 8.146973 86.067871 8.732422 Q 86.433105 9.317871 87.147461 9.317871 Q 87.861816 9.317871 88.235107 8.727051 Q 88.608398 8.136230 88.608398 6.997559 Q 88.608398 5.853516 88.235107 5.265381 Q 87.861816 4.677246 87.147461 4.677246 Q 86.433105 4.677246 86.067871 5.262695 Q 85.702637 5.848145 85.702637 6.997559 Z " fill="rgb(0, 0, 0)" fill-opacity="1.000000" />
<path d="M 210.735840 1.980957 L 211.826172 1.980957 L 211.826172 5.053223 L 214.796387 5.053223 L 214.796387 1.980957 L 215.886719 1.980957 L 215.886719 10.000000 L 214.796387 10.000000 L 214.796387 5.966309 L 211.826172 5.966309 L 211.826172 10.000000 L 210.735840 10.000000 Z " fill="rgb(0, 0, 0)" fill-opacity="1.000000" />
<path d="M 221.608398 8.066406 Q 221.361328 8.694824 220.979980 9.720703 Q 220.448242 11.138672 220.265625 11.450195 Q 220.018555 11.869141 219.647949 12.078613 Q 219.277344 12.288086 218.783203 12.288086 L 217.988281 12.288086 L 217.988281 11.460938 L 218.573730 11.460938 Q 219.008789 11.460938 219.255859 11.208496 Q 219.502930 10.956055 219.884277 9.903320 L 217.558594 3.984375 L 218.605957 3.984375 L 220.389160 8.689453 L 222.145508 3.984375 L 223.192871 3.984375 Z " fill="rgb(0, 0, 0)" fill-opacity="1.000000" />
<path d="M 228.930664 6.997559 Q 228.930664 5.848145 228.565430 5.262695 Q 228.200195 4.677246 227.485840 4.677246 Q 226.766113 4.677246 226.395508 5.265381 Q 226.024902 5.853516 226.024902 6.997559 Q 226.024902 8.136230 226.395508 8.727051 Q 226.766113 9.317871 227.485840 9.317871 Q 228.200195 9.317871 228.565430 8.732422 Q 228.930664 8.146973 228.930664 6.997559 Z M 226.024902 4.752441 Q 226.261230 4.312012 226.677490 4.075684 Q 227.093750 3.839355 227.641602 3.839355 Q 228.726562 3.839355 229.349609 4.674561 Q 229.972656 5.509766 229.972656 6.976074 Q 229.972656 8.463867 229.346924 9.309814 Q 228.721191 10.155762 227.630859 10.155762 Q 227.093750 10.155762 226.682861 9.922119 Q 226.271973 9.688477 226.024902 9.242676 L 226.024902 10.000000 L 225.036621 10.000000 L 225.036621 1.642578 L 226.024902 1.642578 Z " fill="rgb(0, 0, 0)" fill-opacity="1.000000" />
<path d="M 237.203613 5.225098 Q 236.886719 4.978027 236.559082 4.865234 Q 236.231445 4.752441 235.839355 4.752441 Q 234.915527 4.752441 234.426758 5.332520 Q 233.937988 5.912598 233.937988 7.008301 L 233.937988 10.000000 L 232.944336 10.000000 L 232.944336 3.984375 L 233.937988 3.984375 L 233.937988 5.160645 Q 234.185059 4.521484 234.697998 4.180420 Q 235.210938 3.839355 235.914551 3.839355 Q 236.279785 3.839355 236.596680 3.930664 Q 236.913574 4.021973 237.203613 4.215332 Z " fill="rgb(0, 0, 0)" fill-opacity="1.000000" />
<path d="M 239.697266 4.005859 L 242.227051 4.005859 L 242.227051 9.231934 L 244.187500 9.231934 L 244.187500 10.000000 L 239.278320 10.000000 L 239.278320 9.231934 L 241.238770 9.231934 L 241.238770 4.773926 L 239.697266 4.773926 Z M 241.238770 1.669434 L 242.227051 1.669434 L 242.227051 2.915527 L 241.238770 2.915527 Z " fill="rgb(0, 0, 0)" fill-opacity="1.000000" />
<path d="M 249.608398 4.752441 L 249.608398 1.642578 L 250.596680 1.642578 L 250.596680 10.000000 L 249.608398 10.000000 L 249.608398 9.242676 Q 249.361328 9.688477 248.950439 9.922119 Q 248.539551 10.155762 248.002441 10.155762 Q 246.912109 10.155762 246.286377 9.309814 Q 245.660645 8.463867 245.660645 6.976074 Q 245.660645 5.509766 246.289062 4.674561 Q 246.917480 3.839355 248.002441 3.839355 Q 248.544922 3.839355 248.958496 4.072998 Q 249.372070 4.306641 249.608398 4.752441 Z M 246.702637 6.997559 Q 246.702637 8.146973 247.067871 8.732422 Q 247.433105 9.317871 248.147461 9.317871 Q 248.861816 9.317871 249.235107 8.727051 Q 249.608398 8.136230 249.608398 6.997559 Q 249.608398 5.853516 249.235107 5.265381 Q 248.861816 4.677246 248.147461 4.677246 Q 247.433105 4.677246 247.067871 5.262695 Q 246.702637 5.848145 246.702637 6.997559 Z " fill="rgb(0, 0, 0)" fill-opacity="1.000000" />
<path d="M 280.000000 1.980957 L 281.058105 1.980957 L 281.826172 8.490723 L 282.739258 4.183105 L 283.872559 4.183105 L 284.796387 8.501465 L 285.564453 1.980957 L 286.622559 1.980957 L 285.424805 10.000000 L 284.398926 10.000000 L 283.308594 5.235840 L 282.223633 10.000000 L 281.197754 10.000000 Z " fill="rgb(0, 0, 0)" fill-opacity="1.000000" />
<path d="M 290.770508 6.976074 L 290.442871 6.976074 Q 289.578125 6.976074 289.140381 7.279541 Q 288.702637 7.583008 288.702637 8.184570 Q 288.702637 8.727051 289.030273 9.027832 Q 289.357910 9.328613 289.937988 9.328613 Q 290.754395 9.328613 291.221680 8.761963 Q 291.688965 8.195312 291.694336 7.196289 L 291.694336 6.976074 Z M 292.687988 6.567871 L 292.687988 10.000000 L 291.694336 10.000000 L 291.694336 9.108398 Q 291.377441 9.645508 290.896729 9.900635 Q 290.416016 10.155762 289.728516 10.155762 Q 288.810059 10.155762 288.262207 9.637451 Q 287.714355 9.119141 287.714355 8.249023 Q 287.714355 7.244629 288.388428 6.723633 Q 289.062500 6.202637 290.367676 6.202637 L 291.694336 6.202637 L 291.694336 6.046875 Q 291.688965 5.327148 291.329102 5.002197 Q 290.969238 4.677246 290.179688 4.677246 Q 289.674805 4.677246 289.159180 4.822266 Q 288.643555 4.967285 288.154785 5.246582 L 288.154785 4.258301 Q 288.702637 4.048828 289.204834 3.944092 Q 289.707031 3.839355 290.179688 3.839355 Q 290.926270 3.839355 291.455322 4.059570 Q 291.984375 4.279785 292.312012 4.720215 Q 292.516113 4.988770 292.602051 5.383545 Q 292.687988 5.778320 292.687988 6.567871 Z " fill="rgb(0, 0, 0)" fill-opacity="1.000000" />
<path d="M 297.861816 7.824707 Q 297.861816 8.490723 298.106201 8.829102 Q 298.350586 9.167480 298.828613 9.167480 L 299.983398 9.167480 L 299.983398 10.000000 L 298.731934 10.000000 Q 297.845703 10.000000 297.359619 9.433350 Q 296.873535 8.866699 296.873535 7.824707 L 296.873535 2.383789 L 295.289062 2.383789 L 295.289062 1.610352 L 297.861816 1.610352 Z " fill="rgb(0, 0, 0)" fill-opacity="1.000000" />
<path d="M 304.861816 7.824707 Q 304.861816 8.490723 305.106201 8.829102 Q 305.350586 9.167480 305.828613 9.167480 L 306.983398 9.167480 L 306.983398 10.000000 L 305.731934 10.000000 Q 304.845703 10.000000 304.359619 9.433350 Q 303.873535 8.866699 303.873535 7.824707 L 303.873535 2.383789 L 302.289062 2.383789 L 302.289062 1.610352 L 304.861816 1.610352 Z " fill="rgb(0, 0, 0)" fill-opacity="1.000000" />
</svg>