<svg xmlns="http://www.w3.org/2000/svg" version="1.1" width="113" height="209">
<path d="M 2.878906 13.319336 L 2.878906 6.412109 L 6.729980 6.412109 L 6.729980 7.335938 L 3.738281 7.335938 L 3.738281 13.319336 Z " fill="rgb(0, 0, 0)" fill-opacity="1.000000" />
<path d="M 2.878906 26.319336 L 2.878906 12.300781 L 3.738281 12.300781 L 3.738281 26.319336 Z " fill="rgb(0, 0, 0)" fill-opacity="1.000000" />
<path d="M 2.878906 39.319336 L 2.878906 25.300781 L 3.738281 25.300781 L 3.738281 32.412109 L 6.729980 32.412109 L 6.729980 33.335938 L 3.738281 33.335938 L 3.738281 39.319336 Z " fill="rgb(0, 0, 0)" fill-opacity="1.000000" />
<path d="M 2.878906 52.319336 L 2.878906 38.300781 L 3.738281 38.300781 L 3.738281 52.319336 Z " fill="rgb(0, 0, 0)" fill-opacity="1.000000" />
<path d="M 2.878906 65.319336 L 2.878906 51.300781 L 3.738281 51.300781 L 3.738281 58.412109 L 6.729980 58.412109 L 6.729980 59.335938 L 3.738281 59.335938 L 3.738281 65.319336 Z " fill="rgb(0, 0, 0)" fill-opacity="1.000000" />
<path d="M 2.878906 78.319336 L 2.878906 64.300781 L 3.738281 64.300781 L 3.738281 78.319336 Z " fill="rgb(0, 0, 0)" fill-opacity="1.000000" />
<path d="M 2.878906 91.319336 L 2.878906 77.300781 L 3.738281 77.300781 L 3.738281 84.412109 L 6.729980 84.412109 L 6.729980 85.335938 L 3.738281 85.335938 L 3.738281 91.319336 Z " fill="rgb(0, 0, 0)" fill-opacity="1.000000" />
<path d="M 2.878906 104.319336 L 2.878906 90.300781 L 3.738281 90.300781 L 3.738281 104.319336 Z " fill="rgb(0, 0, 0)" fill-opacity="1.000000" />
<path d="M 2.878906 111.335938 L 2.878906 103.300781 L 3.738281 103.300781 L 3.738281 110.412109 L 6.729980 110.412109 L 6.729980 111.335938 Z " fill="rgb(0, 0, 0)" fill-opacity="1.000000" />
<path d="M 8.251465 131.980957 L 12.972656 131.980957 L 12.972656 132.894043 L 9.341797 132.894043 L 9.341797 135.042480 L 12.634277 135.042480 L 12.634277 135.955566 L 9.341797 135.955566 L 9.341797 140.000000 L 8.251465 140.000000 Z " fill="rgb(0, 0, 0)" fill-opacity="1.000000" />
<path d="M 7.789551 162.922363 L 7.789551 157.980957 L 8.879883 157.980957 L 8.879883 163.416504 Q 8.879883 164.001953 8.912109 164.251709 Q 8.944336 164.501465 9.024902 164.635742 Q 9.196777 164.952637 9.521729 165.113770 Q 9.846680 165.274902 10.308594 165.274902 Q 10.775879 165.274902 11.098145 165.113770 Q 11.420410 164.952637 11.597656 164.635742 Q 11.678223 164.501465 11.710449 164.254395 Q 11.742676 164.007324 11.742676 163.427246 L 11.742676 157.980957 L 12.827637 157.980957 L 12.827637 162.922363 Q 12.827637 164.152344 12.674561 164.670654 Q 12.521484 165.188965 12.145508 165.527344 Q 11.791016 165.844238 11.334473 166.000000 Q 10.877930 166.155762 10.308594 166.155762 Q 9.744629 166.155762 9.288086 166.000000 Q 8.831543 165.844238 8.471680 165.527344 Q 8.101074 165.194336 7.945312 164.665283 Q 7.789551 164.136230 7.789551 162.922363 Z " fill="rgb(0, 0, 0)" fill-opacity="1.000000" />
<path d="M 9.014160 178.242676 L 9.014160 181.288086 L 8.020508 181.288086 L 8.020508 172.984375 L 9.014160 172.984375 L 9.014160 173.752441 Q 9.261230 173.306641 9.672119 173.072998 Q 10.083008 172.839355 10.620117 172.839355 Q 11.710449 172.839355 12.330811 173.682617 Q 12.951172 174.525879 12.951172 176.019043 Q 12.951172 177.485352 12.328125 178.320557 Q 11.705078 179.155762 10.620117 179.155762 Q 10.072266 179.155762 9.661377 178.922119 Q 9.250488 178.688477 9.014160 178.242676 Z M 11.914551 175.997559 Q 11.914551 174.848145 11.552002 174.262695 Q 11.189453 173.677246 10.475098 173.677246 Q 9.755371 173.677246 9.384766 174.265381 Q 9.014160 174.853516 9.014160 175.997559 Q 9.014160 177.136230 9.384766 177.727051 Q 9.755371 178.317871 10.475098 178.317871 Q 11.189453 178.317871 11.552002 177.732422 Q 11.914551 177.146973 11.914551 175.997559 Z " fill="rgb(0, 0, 0)" fill-opacity="1.000000" />
<path d="M 7.252441 183.980957 L 13.370117 183.980957 L 13.370117 184.894043 L 10.861816 184.894043 L 10.861816 192.000000 L 9.771484 192.000000 L 9.771484 184.894043 L 7.252441 184.894043 Z " fill="rgb(0, 0, 0)" fill-opacity="1.000000" />
<path d="M 15.047363 189.722656 L 15.047363 185.995117 L 16.035645 185.995117 L 16.035645 189.722656 Q 16.035645 190.533691 16.322998 190.915039 Q 16.610352 191.296387 17.211914 191.296387 Q 17.910156 191.296387 18.280762 190.804932 Q 18.651367 190.313477 18.651367 189.395020 L 18.651367 185.995117 L 19.645020 185.995117 L 19.645020 192.000000 L 18.651367 192.000000 L 18.651367 191.097656 Q 18.388184 191.618652 17.934326 191.887207 Q 17.480469 192.155762 16.873535 192.155762 Q 15.949707 192.155762 15.498535 191.551514 Q 15.047363 190.947266 15.047363 189.722656 Z " fill="rgb(0, 0, 0)" fill-opacity="1.000000" />
<path d="M 27.203613 187.225098 Q 26.886719 186.978027 26.559082 186.865234 Q 26.231445 186.752441 25.839355 186.752441 Q 24.915527 186.752441 24.426758 187.332520 Q 23.937988 187.912598 23.937988 189.008301 L 23.937988 192.000000 L 22.944336 192.000000 L 22.944336 185.984375 L 23.937988 185.984375 L 23.937988 187.160645 Q 24.185059 186.521484 24.697998 186.180420 Q 25.210938 185.839355 25.914551 185.839355 Q 26.279785 185.839355 26.596680 185.930664 Q 26.913574 186.021973 27.203613 186.215332 Z " fill="rgb(0, 0, 0)" fill-opacity="1.000000" />
<path d="M 32.930664 188.997559 Q 32.930664 187.848145 32.565430 187.262695 Q 32.200195 186.677246 31.485840 186.677246 Q 30.766113 186.677246 30.395508 187.265381 Q 30.024902 187.853516 30.024902 188.997559 Q 30.024902 190.136230 30.395508 190.727051 Q 30.766113 191.317871 31.485840 191.317871 Q 32.200195 191.317871 32.565430 190.732422 Q 32.930664 190.146973 32.930664 188.997559 Z M 30.024902 186.752441 Q 30.261230 186.312012 30.677490 186.075684 Q 31.093750 185.839355 31.641602 185.839355 Q 32.726562 185.839355 33.349609 186.674561 Q 33.972656 187.509766 33.972656 188.976074 Q 33.972656 190.463867 33.346924 191.309814 Q 32.721191 192.155762 31.630859 192.155762 Q 31.093750 192.155762 30.682861 191.922119 Q 30.271973 191.688477 30.024902 191.242676 L 30.024902 192.000000 L 29.036621 192.000000 L 29.036621 183.642578 L 30.024902 183.642578 Z " fill="rgb(0, 0, 0)" fill-opacity="1.000000" />
<path d="M 36.697266 186.005859 L 39.227051 186.005859 L 39.227051 191.231934 L 41.187500 191.231934 L 41.187500 192.000000 L 36.278320 192.000000 L 36.278320 191.231934 L 38.238770 191.231934 L 38.238770 186.773926 L 36.697266 186.773926 Z M 38.238770 183.669434 L 39.227051 183.669434 L 39.227051 184.915527 L 38.238770 184.915527 Z " fill="rgb(0, 0, 0)" fill-opacity="1.000000" />
<path d="M 47.645020 188.272461 L 47.645020 192.000000 L 46.651367 192.000000 L 46.651367 188.272461 Q 46.651367 187.461426 46.366699 187.080078 Q 46.082031 186.698730 45.475098 186.698730 Q 44.782227 186.698730 44.408936 187.190186 Q 44.035645 187.681641 44.035645 188.600098 L 44.035645 192.000000 L 43.047363 192.000000 L 43.047363 185.984375 L 44.035645 185.984375 L 44.035645 186.886719 Q 44.298828 186.371094 44.750000 186.105225 Q 45.201172 185.839355 45.818848 185.839355 Q 46.737305 185.839355 47.191162 186.443604 Q 47.645020 187.047852 47.645020 188.272461 Z " fill="rgb(0, 0, 0)" fill-opacity="1.000000" />
<path d="M 55.015625 188.498047 L 55.015625 188.981445 L 50.734863 188.981445 L 50.734863 189.013672 Q 50.691895 190.243652 51.204834 190.780762 Q 51.717773 191.317871 52.652344 191.317871 Q 53.125000 191.317871 53.640625 191.167480 Q 54.156250 191.017090 54.741699 190.710938 L 54.741699 191.693848 Q 54.177734 191.924805 53.654053 192.040283 Q 53.130371 192.155762 52.641602 192.155762 Q 51.239746 192.155762 50.450195 191.315186 Q 49.660645 190.474609 49.660645 188.997559 Q 49.660645 187.558105 50.434082 186.698730 Q 51.207520 185.839355 52.496582 185.839355 Q 53.645996 185.839355 54.309326 186.618164 Q 54.972656 187.396973 55.015625 188.498047 Z M 54.027344 188.208008 Q 53.962891 187.584961 53.573486 187.131104 Q 53.184082 186.677246 52.453613 186.677246 Q 51.739258 186.677246 51.277344 187.149902 Q 50.815430 187.622559 50.772461 188.213379 Z " fill="rgb(0, 0, 0)" fill-opacity="1.000000" />
<path d="M 61.226074 186.193848 L 61.226074 187.160645 Q 60.801758 186.913574 60.372070 186.790039 Q 59.942383 186.666504 59.496582 186.666504 Q 58.825195 186.666504 58.494873 186.884033 Q 58.164551 187.101562 58.164551 187.547363 Q 58.164551 187.950195 58.411621 188.148926 Q 58.658691 188.347656 59.641602 188.535645 L 60.039062 188.610840 Q 60.774902 188.750488 61.153564 189.169434 Q 61.532227 189.588379 61.532227 190.259766 Q 61.532227 191.151367 60.898438 191.653564 Q 60.264648 192.155762 59.136719 192.155762 Q 58.690918 192.155762 58.202148 192.061768 Q 57.713379 191.967773 57.144043 191.779785 L 57.144043 190.759277 Q 57.697266 191.043945 58.202148 191.186279 Q 58.707031 191.328613 59.158203 191.328613 Q 59.813477 191.328613 60.173340 191.062744 Q 60.533203 190.796875 60.533203 190.318848 Q 60.533203 189.631348 59.217285 189.368164 L 59.174316 189.357422 L 58.803711 189.282227 Q 57.949707 189.115723 57.557617 188.720947 Q 57.165527 188.326172 57.165527 187.644043 Q 57.165527 186.779297 57.750977 186.309326 Q 58.336426 185.839355 59.421387 185.839355 Q 59.904785 185.839355 60.350586 185.927979 Q 60.796387 186.016602 61.226074 186.193848 Z " fill="rgb(0, 0, 0)" fill-opacity="1.000000" />
<path d="M 17.308594 173.677246 Q 16.556641 173.677246 16.169922 174.262695 Q 15.783203 174.848145 15.783203 175.997559 Q 15.783203 177.141602 16.169922 177.729736 Q 16.556641 178.317871 17.308594 178.317871 Q 18.065918 178.317871 18.452637 177.729736 Q 18.839355 177.141602 18.839355 175.997559 Q 18.839355 174.848145 18.452637 174.262695 Q 18.065918 173.677246 17.308594 173.677246 Z M 17.308594 172.839355 Q 18.560059 172.839355 19.223389 173.650391 Q 19.886719 174.461426 19.886719 175.997559 Q 19.886719 177.539062 19.226074 178.347412 Q 18.565430 179.155762 17.308594 179.155762 Q 16.057129 179.155762 15.396484 178.347412 Q 14.735840 177.539062 14.735840 175.997559 Q 14.735840 174.461426 15.396484 173.650391 Q 16.057129 172.839355 17.308594 172.839355 Z " fill="rgb(0, 0, 0)" fill-opacity="1.000000" />
<path d="M 26.226074 173.193848 L 26.226074 174.160645 Q 25.801758 173.913574 25.372070 173.790039 Q 24.942383 173.666504 24.496582 173.666504 Q 23.825195 173.666504 23.494873 173.884033 Q 23.164551 174.101562 23.164551 174.547363 Q 23.164551 174.950195 23.411621 175.148926 Q 23.658691 175.347656 24.641602 175.535645 L 25.039062 175.610840 Q 25.774902 175.750488 26.153564 176.169434 Q 26.532227 176.588379 26.532227 177.259766 Q 26.532227 178.151367 25.898438 178.653564 Q 25.264648 179.155762 24.136719 179.155762 Q 23.690918 179.155762 23.202148 179.061768 Q 22.713379 178.967773 22.144043 178.779785 L 22.144043 177.759277 Q 22.697266 178.043945 23.202148 178.186279 Q 23.707031 178.328613 24.158203 178.328613 Q 24.813477 178.328613 25.173340 178.062744 Q 25.533203 177.796875 25.533203 177.318848 Q 25.533203 176.631348 24.217285 176.368164 L 24.174316 176.357422 L 23.803711 176.282227 Q 22.949707 176.115723 22.557617 175.720947 Q 22.165527 175.326172 22.165527 174.644043 Q 22.165527 173.779297 22.750977 173.309326 Q 23.336426 172.839355 24.421387 172.839355 Q 24.904785 172.839355 25.350586 172.927979 Q 25.796387 173.016602 26.226074 173.193848 Z " fill="rgb(0, 0, 0)" fill-opacity="1.000000" />
<path d="M 29.697266 173.005859 L 32.227051 173.005859 L 32.227051 178.231934 L 34.187500 178.231934 L 34.187500 179.000000 L 29.278320 179.000000 L 29.278320 178.231934 L 31.238770 178.231934 L 31.238770 173.773926 L 29.697266 173.773926 Z M 31.238770 170.669434 L 32.227051 170.669434 L 32.227051 171.915527 L 31.238770 171.915527 Z " fill="rgb(0, 0, 0)" fill-opacity="1.000000" />
<path d="M 38.297852 171.276367 L 38.297852 172.984375 L 40.542969 172.984375 L 40.542969 173.752441 L 38.297852 173.752441 L 38.297852 177.018066 Q 38.297852 177.684082 38.550293 177.947266 Q 38.802734 178.210449 39.431152 178.210449 L 40.542969 178.210449 L 40.542969 179.000000 L 39.334473 179.000000 Q 38.222656 179.000000 37.766113 178.554199 Q 37.309570 178.108398 37.309570 177.018066 L 37.309570 173.752441 L 35.703613 173.752441 L 35.703613 172.984375 L 37.309570 172.984375 L 37.309570 171.276367 Z " fill="rgb(0, 0, 0)" fill-opacity="1.000000" />
<path d="M 43.697266 173.005859 L 46.227051 173.005859 L 46.227051 178.231934 L 48.187500 178.231934 L 48.187500 179.000000 L 43.278320 179.000000 L 43.278320 178.231934 L 45.238770 178.231934 L 45.238770 173.773926 L 43.697266 173.773926 Z M 45.238770 170.669434 L 46.227051 170.669434 L 46.227051 171.915527 L 45.238770 171.915527 Z " fill="rgb(0, 0, 0)" fill-opacity="1.000000" />
<path d="M 52.308594 173.677246 Q 51.556641 173.677246 51.169922 174.262695 Q 50.783203 174.848145 50.783203 175.997559 Q 50.783203 177.141602 51.169922 177.729736 Q 51.556641 178.317871 52.308594 178.317871 Q 53.065918 178.317871 53.452637 177.729736 Q 53.839355 177.141602 53.839355 175.997559 Q 53.839355 174.848145 53.452637 174.262695 Q 53.065918 173.677246 52.308594 173.677246 Z M 52.308594 172.839355 Q 53.560059 172.839355 54.223389 173.650391 Q 54.886719 174.461426 54.886719 175.997559 Q 54.886719 177.539062 54.226074 178.347412 Q 53.565430 179.155762 52.308594 179.155762 Q 51.057129 179.155762 50.396484 178.347412 Q 49.735840 177.539062 49.735840 175.997559 Q 49.735840 174.461426 50.396484 173.650391 Q 51.057129 172.839355 52.308594 172.839355 Z " fill="rgb(0, 0, 0)" fill-opacity="1.000000" />
<path d="M 61.645020 175.272461 L 61.645020 179.000000 L 60.651367 179.000000 L 60.651367 175.272461 Q 60.651367 174.461426 60.366699 174.080078 Q 60.082031 173.698730 59.475098 173.698730 Q 58.782227 173.698730 58.408936 174.190186 Q 58.035645 174.681641 58.035645 175.600098 L 58.035645 179.000000 L 57.047363 179.000000 L 57.047363 172.984375 L 58.035645 172.984375 L 58.035645 173.886719 Q 58.298828 173.371094 58.750000 173.105225 Q 59.201172 172.839355 59.818848 172.839355 Q 60.737305 172.839355 61.191162 173.443604 Q 61.645020 174.047852 61.645020 175.272461 Z " fill="rgb(0, 0, 0)" fill-opacity="1.000000" />
<path d="M 68.226074 173.193848 L 68.226074 174.160645 Q 67.801758 173.913574 67.372070 173.790039 Q 66.942383 173.666504 66.496582 173.666504 Q 65.825195 173.666504 65.494873 173.884033 Q 65.164551 174.101562 65.164551 174.547363 Q 65.164551 174.950195 65.411621 175.148926 Q 65.658691 175.347656 66.641602 175.535645 L 67.039062 175.610840 Q 67.774902 175.750488 68.153564 176.169434 Q 68.532227 176.588379 68.532227 177.259766 Q 68.532227 178.151367 67.898438 178.653564 Q 67.264648 179.155762 66.136719 179.155762 Q 65.690918 179.155762 65.202148 179.061768 Q 64.713379 178.967773 64.144043 178.779785 L 64.144043 177.759277 Q 64.697266 178.043945 65.202148 178.186279 Q 65.707031 178.328613 66.158203 178.328613 Q 66.813477 178.328613 67.173340 178.062744 Q 67.533203 177.796875 67.533203 177.318848 Q 67.533203 176.631348 66.217285 176.368164 L 66.174316 176.357422 L 65.803711 176.282227 Q 64.949707 176.115723 64.557617 175.720947 Q 64.165527 175.326172 64.165527 174.644043 Q 64.165527 173.779297 64.750977 173.309326 Q 65.336426 172.839355 66.421387 172.839355 Q 66.904785 172.839355 67.350586 172.927979 Q 67.796387 173.016602 68.226074 173.193848 Z " fill="rgb(0, 0, 0)" fill-opacity="1.000000" />
<path d="M 80.770508 175.976074 L 80.442871 175.976074 Q 79.578125 175.976074 79.140381 176.279541 Q 78.702637 176.583008 78.702637 177.184570 Q 78.702637 177.727051 79.030273 178.027832 Q 79.357910 178.328613 79.937988 178.328613 Q 80.754395 178.328613 81.221680 177.761963 Q 81.688965 177.195312 81.694336 176.196289 L 81.694336 175.976074 Z M 82.687988 175.567871 L 82.687988 179.000000 L 81.694336 179.000000 L 81.694336 178.108398 Q 81.377441 178.645508 80.896729 178.900635 Q 80.416016 179.155762 79.728516 179.155762 Q 78.810059 179.155762 78.262207 178.637451 Q 77.714355 178.119141 77.714355 177.249023 Q 77.714355 176.244629 78.388428 175.723633 Q 79.062500 175.202637 80.367676 175.202637 L 81.694336 175.202637 L 81.694336 175.046875 Q 81.688965 174.327148 81.329102 174.002197 Q 80.969238 173.677246 80.179688 173.677246 Q 79.674805 173.677246 79.159180 173.822266 Q 78.643555 173.967285 78.154785 174.246582 L 78.154785 173.258301 Q 78.702637 173.048828 79.204834 172.944092 Q 79.707031 172.839355 80.179688 172.839355 Q 80.926270 172.839355 81.455322 173.059570 Q 81.984375 173.279785 82.312012 173.720215 Q 82.516113 173.988770 82.602051 174.383545 Q 82.687988 174.778320 82.687988 175.567871 Z " fill="rgb(0, 0, 0)" fill-opacity="1.000000" />
<path d="M 90.203613 174.225098 Q 89.886719 173.978027 89.559082 173.865234 Q 89.231445 173.752441 88.839355 173.752441 Q 87.915527 173.752441 87.426758 174.332520 Q 86.937988 174.912598 86.937988 176.008301 L 86.937988 179.000000 L 85.944336 179.000000 L 85.944336 172.984375 L 86.937988 172.984375 L 86.937988 174.160645 Q 87.185059 173.521484 87.697998 173.180420 Q 88.210938 172.839355 88.914551 172.839355 Q 89.279785 172.839355 89.596680 172.930664 Q 89.913574 173.021973 90.203613 173.215332 Z " fill="rgb(0, 0, 0)" fill-opacity="1.000000" />
<path d="M 97.015625 175.498047 L 97.015625 175.981445 L 92.734863 175.981445 L 92.734863 176.013672 Q 92.691895 177.243652 93.204834 177.780762 Q 93.717773 178.317871 94.652344 178.317871 Q 95.125000 178.317871 95.640625 178.167480 Q 96.156250 178.017090 96.741699 177.710938 L 96.741699 178.693848 Q 96.177734 178.924805 95.654053 179.040283 Q 95.130371 179.155762 94.641602 179.155762 Q 93.239746 179.155762 92.450195 178.315186 Q 91.660645 177.474609 91.660645 175.997559 Q 91.660645 174.558105 92.434082 173.698730 Q 93.207520 172.839355 94.496582 172.839355 Q 95.645996 172.839355 96.309326 173.618164 Q 96.972656 174.396973 97.015625 175.498047 Z M 96.027344 175.208008 Q 95.962891 174.584961 95.573486 174.131104 Q 95.184082 173.677246 94.453613 173.677246 Q 93.739258 173.677246 93.277344 174.149902 Q 92.815430 174.622559 92.772461 175.213379 Z " fill="rgb(0, 0, 0)" fill-opacity="1.000000" />
<path d="M 19.645020 162.272461 L 19.645020 166.000000 L 18.651367 166.000000 L 18.651367 162.272461 Q 18.651367 161.461426 18.366699 161.080078 Q 18.082031 160.698730 17.475098 160.698730 Q 16.782227 160.698730 16.408936 161.190186 Q 16.035645 161.681641 16.035645 162.600098 L 16.035645 166.000000 L 15.047363 166.000000 L 15.047363 159.984375 L 16.035645 159.984375 L 16.035645 160.886719 Q 16.298828 160.371094 16.750000 160.105225 Q 17.201172 159.839355 17.818848 159.839355 Q 18.737305 159.839355 19.191162 160.443604 Q 19.645020 161.047852 19.645020 162.272461 Z " fill="rgb(0, 0, 0)" fill-opacity="1.000000" />
<path d="M 21.547852 162.111328 L 27.241211 162.111328 L 27.241211 163.019043 L 21.547852 163.019043 Z " fill="rgb(0, 0, 0)" fill-opacity="1.000000" />
<path d="M 31.861816 163.824707 Q 31.861816 164.490723 32.106201 164.829102 Q 32.350586 165.167480 32.828613 165.167480 L 33.983398 165.167480 L 33.983398 166.000000 L 32.731934 166.000000 Q 31.845703 166.000000 31.359619 165.433350 Q 30.873535 164.866699 30.873535 163.824707 L 30.873535 158.383789 L 29.289062 158.383789 L 29.289062 157.610352 L 31.861816 157.610352 Z " fill="rgb(0, 0, 0)" fill-opacity="1.000000" />
<path d="M 38.770508 162.976074 L 38.442871 162.976074 Q 37.578125 162.976074 37.140381 163.279541 Q 36.702637 163.583008 36.702637 164.184570 Q 36.702637 164.727051 37.030273 165.027832 Q 37.357910 165.328613 37.937988 165.328613 Q 38.754395 165.328613 39.221680 164.761963 Q 39.688965 164.195312 39.694336 163.196289 L 39.694336 162.976074 Z M 40.687988 162.567871 L 40.687988 166.000000 L 39.694336 166.000000 L 39.694336 165.108398 Q 39.377441 165.645508 38.896729 165.900635 Q 38.416016 166.155762 37.728516 166.155762 Q 36.810059 166.155762 36.262207 165.637451 Q 35.714355 165.119141 35.714355 164.249023 Q 35.714355 163.244629 36.388428 162.723633 Q 37.062500 162.202637 38.367676 162.202637 L 39.694336 162.202637 L 39.694336 162.046875 Q 39.688965 161.327148 39.329102 161.002197 Q 38.969238 160.677246 38.179688 160.677246 Q 37.674805 160.677246 37.159180 160.822266 Q 36.643555 160.967285 36.154785 161.246582 L 36.154785 160.258301 Q 36.702637 160.048828 37.204834 159.944092 Q 37.707031 159.839355 38.179688 159.839355 Q 38.926270 159.839355 39.455322 160.059570 Q 39.984375 160.279785 40.312012 160.720215 Q 40.516113 160.988770 40.602051 161.383545 Q 40.687988 161.778320 40.687988 162.567871 Z " fill="rgb(0, 0, 0)" fill-opacity="1.000000" />
<path d="M 46.930664 162.997559 Q 46.930664 161.848145 46.565430 161.262695 Q 46.200195 160.677246 45.485840 160.677246 Q 44.766113 160.677246 44.395508 161.265381 Q 44.024902 161.853516 44.024902 162.997559 Q 44.024902 164.136230 44.395508 164.727051 Q 44.766113 165.317871 45.485840 165.317871 Q 46.200195 165.317871 46.565430 164.732422 Q 46.930664 164.146973 46.930664 162.997559 Z M 44.024902 160.752441 Q 44.261230 160.312012 44.677490 160.075684 Q 45.093750 159.839355 45.641602 159.839355 Q 46.726562 159.839355 47.349609 160.674561 Q 47.972656 161.509766 47.972656 162.976074 Q 47.972656 164.463867 47.346924 165.309814 Q 46.721191 166.155762 45.630859 166.155762 Q 45.093750 166.155762 44.682861 165.922119 Q 44.271973 165.688477 44.024902 165.242676 L 44.024902 166.000000 L 43.036621 166.000000 L 43.036621 157.642578 L 44.024902 157.642578 Z " fill="rgb(0, 0, 0)" fill-opacity="1.000000" />
<path d="M 52.861816 163.824707 Q 52.861816 164.490723 53.106201 164.829102 Q 53.350586 165.167480 53.828613 165.167480 L 54.983398 165.167480 L 54.983398 166.000000 L 53.731934 166.000000 Q 52.845703 166.000000 52.359619 165.433350 Q 51.873535 164.866699 51.873535 163.824707 L 51.873535 158.383789 L 50.289062 158.383789 L 50.289062 157.610352 L 52.861816 157.610352 Z " fill="rgb(0, 0, 0)" fill-opacity="1.000000" />
<path d="M 62.015625 162.498047 L 62.015625 162.981445 L 57.734863 162.981445 L 57.734863 163.013672 Q 57.691895 164.243652 58.204834 164.780762 Q 58.717773 165.317871 59.652344 165.317871 Q 60.125000 165.317871 60.640625 165.167480 Q 61.156250 165.017090 61.741699 164.710938 L 61.741699 165.693848 Q 61.177734 165.924805 60.654053 166.040283 Q 60.130371 166.155762 59.641602 166.155762 Q 58.239746 166.155762 57.450195 165.315186 Q 56.660645 164.474609 56.660645 162.997559 Q 56.660645 161.558105 57.434082 160.698730 Q 58.207520 159.839355 59.496582 159.839355 Q 60.645996 159.839355 61.309326 160.618164 Q 61.972656 161.396973 62.015625 162.498047 Z M 61.027344 162.208008 Q 60.962891 161.584961 60.573486 161.131104 Q 60.184082 160.677246 59.453613 160.677246 Q 58.739258 160.677246 58.277344 161.149902 Q 57.815430 161.622559 57.772461 162.213379 Z " fill="rgb(0, 0, 0)" fill-opacity="1.000000" />
<path d="M 67.608398 160.752441 L 67.608398 157.642578 L 68.596680 157.642578 L 68.596680 166.000000 L 67.608398 166.000000 L 67.608398 165.242676 Q 67.361328 165.688477 66.950439 165.922119 Q 66.539551 166.155762 66.002441 166.155762 Q 64.912109 166.155762 64.286377 165.309814 Q 63.660645 164.463867 63.660645 162.976074 Q 63.660645 161.509766 64.289062 160.674561 Q 64.917480 159.839355 66.002441 159.839355 Q 66.544922 159.839355 66.958496 160.072998 Q 67.372070 160.306641 67.608398 160.752441 Z M 64.702637 162.997559 Q 64.702637 164.146973 65.067871 164.732422 Q 65.433105 165.317871 66.147461 165.317871 Q 66.861816 165.317871 67.235107 164.727051 Q 67.608398 164.136230 67.608398 162.997559 Q 67.608398 161.853516 67.235107 161.265381 Q 66.861816 160.677246 66.147461 160.677246 Q 65.433105 160.677246 65.067871 161.262695 Q 64.702637 161.848145 64.702637 162.997559 Z " fill="rgb(0, 0, 0)" fill-opacity="1.000000" />
<path d="M 16.304199 133.989746 L 17.979980 133.989746 L 17.979980 135.928711 L 16.304199 135.928711 Z M 16.304199 138.044922 L 17.979980 138.044922 L 17.979980 140.000000 L 16.304199 140.000000 Z " fill="rgb(0, 0, 0)" fill-opacity="1.000000" />
<path d="M 29.251465 131.980957 L 33.972656 131.980957 L 33.972656 132.894043 L 30.341797 132.894043 L 30.341797 135.042480 L 33.634277 135.042480 L 33.634277 135.955566 L 30.341797 135.955566 L 30.341797 140.000000 L 29.251465 140.000000 Z " fill="rgb(0, 0, 0)" fill-opacity="1.000000" />
<path d="M 38.770508 136.976074 L 38.442871 136.976074 Q 37.578125 136.976074 37.140381 137.279541 Q 36.702637 137.583008 36.702637 138.184570 Q 36.702637 138.727051 37.030273 139.027832 Q 37.357910 139.328613 37.937988 139.328613 Q 38.754395 139.328613 39.221680 138.761963 Q 39.688965 138.195312 39.694336 137.196289 L 39.694336 136.976074 Z M 40.687988 136.567871 L 40.687988 140.000000 L 39.694336 140.000000 L 39.694336 139.108398 Q 39.377441 139.645508 38.896729 139.900635 Q 38.416016 140.155762 37.728516 140.155762 Q 36.810059 140.155762 36.262207 139.637451 Q 35.714355 139.119141 35.714355 138.249023 Q 35.714355 137.244629 36.388428 136.723633 Q 37.062500 136.202637 38.367676 136.202637 L 39.694336 136.202637 L 39.694336 136.046875 Q 39.688965 135.327148 39.329102 135.002197 Q 38.969238 134.677246 38.179688 134.677246 Q 37.674805 134.677246 37.159180 134.822266 Q 36.643555 134.967285 36.154785 135.246582 L 36.154785 134.258301 Q 36.702637 134.048828 37.204834 133.944092 Q 37.707031 133.839355 38.179688 133.839355 Q 38.926270 133.839355 39.455322 134.059570 Q 39.984375 134.279785 40.312012 134.720215 Q 40.516113 134.988770 40.602051 135.383545 Q 40.687988 135.778320 40.687988 136.567871 Z " fill="rgb(0, 0, 0)" fill-opacity="1.000000" />
<path d="M 47.645020 136.272461 L 47.645020 140.000000 L 46.651367 140.000000 L 46.651367 136.272461 Q 46.651367 135.461426 46.366699 135.080078 Q 46.082031 134.698730 45.475098 134.698730 Q 44.782227 134.698730 44.408936 135.190186 Q 44.035645 135.681641 44.035645 136.600098 L 44.035645 140.000000 L 43.047363 140.000000 L 43.047363 133.984375 L 44.035645 133.984375 L 44.035645 134.886719 Q 44.298828 134.371094 44.750000 134.105225 Q 45.201172 133.839355 45.818848 133.839355 Q 46.737305 133.839355 47.191162 134.443604 Q 47.645020 135.047852 47.645020 136.272461 Z " fill="rgb(0, 0, 0)" fill-opacity="1.000000" />
<path d="M 58.014160 139.242676 L 58.014160 142.288086 L 57.020508 142.288086 L 57.020508 133.984375 L 58.014160 133.984375 L 58.014160 134.752441 Q 58.261230 134.306641 58.672119 134.072998 Q 59.083008 133.839355 59.620117 133.839355 Q 60.710449 133.839355 61.330811 134.682617 Q 61.951172 135.525879 61.951172 137.019043 Q 61.951172 138.485352 61.328125 139.320557 Q 60.705078 140.155762 59.620117 140.155762 Q 59.072266 140.155762 58.661377 139.922119 Q 58.250488 139.688477 58.014160 139.242676 Z M 60.914551 136.997559 Q 60.914551 135.848145 60.552002 135.262695 Q 60.189453 134.677246 59.475098 134.677246 Q 58.755371 134.677246 58.384766 135.265381 Q 58.014160 135.853516 58.014160 136.997559 Q 58.014160 138.136230 58.384766 138.727051 Q 58.755371 139.317871 59.475098 139.317871 Q 60.189453 139.317871 60.552002 138.732422 Q 60.914551 138.146973 60.914551 136.997559 Z " fill="rgb(0, 0, 0)" fill-opacity="1.000000" />
<path d="M 66.308594 134.677246 Q 65.556641 134.677246 65.169922 135.262695 Q 64.783203 135.848145 64.783203 136.997559 Q 64.783203 138.141602 65.169922 138.729736 Q 65.556641 139.317871 66.308594 139.317871 Q 67.065918 139.317871 67.452637 138.729736 Q 67.839355 138.141602 67.839355 136.997559 Q 67.839355 135.848145 67.452637 135.262695 Q 67.065918 134.677246 66.308594 134.677246 Z M 66.308594 133.839355 Q 67.560059 133.839355 68.223389 134.650391 Q 68.886719 135.461426 68.886719 136.997559 Q 68.886719 138.539062 68.226074 139.347412 Q 67.565430 140.155762 66.308594 140.155762 Q 65.057129 140.155762 64.396484 139.347412 Q 63.735840 138.539062 63.735840 136.997559 Q 63.735840 135.461426 64.396484 134.650391 Q 65.057129 133.839355 66.308594 133.839355 Z " fill="rgb(0, 0, 0)" fill-opacity="1.000000" />
<path d="M 75.226074 134.193848 L 75.226074 135.160645 Q 74.801758 134.913574 74.372070 134.790039 Q 73.942383 134.666504 73.496582 134.666504 Q 72.825195 134.666504 72.494873 134.884033 Q 72.164551 135.101562 72.164551 135.547363 Q 72.164551 135.950195 72.411621 136.148926 Q 72.658691 136.347656 73.641602 136.535645 L 74.039062 136.610840 Q 74.774902 136.750488 75.153564 137.169434 Q 75.532227 137.588379 75.532227 138.259766 Q 75.532227 139.151367 74.898438 139.653564 Q 74.264648 140.155762 73.136719 140.155762 Q 72.690918 140.155762 72.202148 140.061768 Q 71.713379 139.967773 71.144043 139.779785 L 71.144043 138.759277 Q 71.697266 139.043945 72.202148 139.186279 Q 72.707031 139.328613 73.158203 139.328613 Q 73.813477 139.328613 74.173340 139.062744 Q 74.533203 138.796875 74.533203 138.318848 Q 74.533203 137.631348 73.217285 137.368164 L 73.174316 137.357422 L 72.803711 137.282227 Q 71.949707 137.115723 71.557617 136.720947 Q 71.165527 136.326172 71.165527 135.644043 Q 71.165527 134.779297 71.750977 134.309326 Q 72.336426 133.839355 73.421387 133.839355 Q 73.904785 133.839355 74.350586 133.927979 Q 74.796387 134.016602 75.226074 134.193848 Z " fill="rgb(0, 0, 0)" fill-opacity="1.000000" />
<path d="M 78.697266 134.005859 L 81.227051 134.005859 L 81.227051 139.231934 L 83.187500 139.231934 L 83.187500 140.000000 L 78.278320 140.000000 L 78.278320 139.231934 L 80.238770 139.231934 L 80.238770 134.773926 L 78.697266 134.773926 Z M 80.238770 131.669434 L 81.227051 131.669434 L 81.227051 132.915527 L 80.238770 132.915527 Z " fill="rgb(0, 0, 0)" fill-opacity="1.000000" />
<path d="M 87.297852 132.276367 L 87.297852 133.984375 L 89.542969 133.984375 L 89.542969 134.752441 L 87.297852 134.752441 L 87.297852 138.018066 Q 87.297852 138.684082 87.550293 138.947266 Q 87.802734 139.210449 88.431152 139.210449 L 89.542969 139.210449 L 89.542969 140.000000 L 88.334473 140.000000 Q 87.222656 140.000000 86.766113 139.554199 Q 86.309570 139.108398 86.309570 138.018066 L 86.309570 134.752441 L 84.703613 134.752441 L 84.703613 133.984375 L 86.309570 133.984375 L 86.309570 132.276367 Z " fill="rgb(0, 0, 0)" fill-opacity="1.000000" />
<path d="M 92.697266 134.005859 L 95.227051 134.005859 L 95.227051 139.231934 L 97.187500 139.231934 L 97.187500 140.000000 L 92.278320 140.000000 L 92.278320 139.231934 L 94.238770 139.231934 L 94.238770 134.773926 L 92.697266 134.773926 Z M 94.238770 131.669434 L 95.227051 131.669434 L 95.227051 132.915527 L 94.238770 132.915527 Z " fill="rgb(0, 0, 0)" fill-opacity="1.000000" />
<path d="M 101.308594 134.677246 Q 100.556641 134.677246 100.169922 135.262695 Q 99.783203 135.848145 99.783203 136.997559 Q 99.783203 138.141602 100.169922 138.729736 Q 100.556641 139.317871 101.308594 139.317871 Q 102.065918 139.317871 102.452637 138.729736 Q 102.839355 138.141602 102.839355 136.997559 Q 102.839355 135.848145 102.452637 135.262695 Q 102.065918 134.677246 101.308594 134.677246 Z M 101.308594 133.839355 Q 102.560059 133.839355 103.223389 134.650391 Q 103.886719 135.461426 103.886719 136.997559 Q 103.886719 138.539062 103.226074 139.347412 Q 102.565430 140.155762 101.308594 140.155762 Q 100.057129 140.155762 99.396484 139.347412 Q 98.735840 138.539062 98.735840 136.997559 Q 98.735840 135.461426 99.396484 134.650391 Q 100.057129 133.839355 101.308594 133.839355 Z " fill="rgb(0, 0, 0)" fill-opacity="1.000000" />
<path d="M 110.645020 136.272461 L 110.645020 140.000000 L 109.651367 140.000000 L 109.651367 136.272461 Q 109.651367 135.461426 109.366699 135.080078 Q 109.082031 134.698730 108.475098 134.698730 Q 107.782227 134.698730 107.408936 135.190186 Q 107.035645 135.681641 107.035645 136.600098 L 107.035645 140.000000 L 106.047363 140.000000 L 106.047363 133.984375 L 107.035645 133.984375 L 107.035645 134.886719 Q 107.298828 134.371094 107.750000 134.105225 Q 108.201172 133.839355 108.818848 133.839355 Q 109.737305 133.839355 110.191162 134.443604 Q 110.645020 135.047852 110.645020 136.272461 Z " fill="rgb(0, 0, 0)" fill-opacity="1.000000" />
<path d="M 6.892578 111.335938 L 6.892578 110.412109 L 13.729980 110.412109 L 13.729980 111.335938 Z " fill="rgb(0, 0, 0)" fill-opacity="1.000000" />
<path d="M 13.892578 111.335938 L 13.892578 110.412109 L 20.729980 110.412109 L 20.729980 111.335938 Z " fill="rgb(0, 0, 0)" fill-opacity="1.000000" />
<path d="M 20.892578 111.335938 L 20.892578 110.412109 L 23.878906 110.412109 L 23.878906 103.300781 L 24.738281 103.300781 L 24.738281 110.412109 L 27.729980 110.412109 L 27.729980 111.335938 Z " fill="rgb(0, 0, 0)" fill-opacity="1.000000" />
<path d="M 27.892578 111.335938 L 27.892578 110.412109 L 34.729980 110.412109 L 34.729980 111.335938 Z " fill="rgb(0, 0, 0)" fill-opacity="1.000000" />
<path d="M 34.892578 111.335938 L 34.892578 110.412109 L 41.729980 110.412109 L 41.729980 111.335938 Z " fill="rgb(0, 0, 0)" fill-opacity="1.000000" />
<path d="M 41.892578 111.335938 L 41.892578 110.412109 L 44.878906 110.412109 L 44.878906 103.300781 L 45.738281 103.300781 L 45.738281 110.412109 L 48.729980 110.412109 L 48.729980 111.335938 Z " fill="rgb(0, 0, 0)" fill-opacity="1.000000" />
<path d="M 48.892578 111.335938 L 48.892578 110.412109 L 55.729980 110.412109 L 55.729980 111.335938 Z " fill="rgb(0, 0, 0)" fill-opacity="1.000000" />
<path d="M 55.892578 111.335938 L 55.892578 110.412109 L 62.729980 110.412109 L 62.729980 111.335938 Z " fill="rgb(0, 0, 0)" fill-opacity="1.000000" />
<path d="M 62.892578 111.335938 L 62.892578 110.412109 L 65.878906 110.412109 L 65.878906 103.300781 L 66.738281 103.300781 L 66.738281 110.412109 L 69.729980 110.412109 L 69.729980 111.335938 Z " fill="rgb(0, 0, 0)" fill-opacity="1.000000" />
<path d="M 69.892578 111.335938 L 69.892578 110.412109 L 76.729980 110.412109 L 76.729980 111.335938 Z " fill="rgb(0, 0, 0)" fill-opacity="1.000000" />
<path d="M 76.892578 111.335938 L 76.892578 110.412109 L 83.729980 110.412109 L 83.729980 111.335938 Z " fill="rgb(0, 0, 0)" fill-opacity="1.000000" />
<path d="M 83.892578 111.335938 L 83.892578 110.412109 L 86.878906 110.412109 L 86.878906 103.300781 L 87.738281 103.300781 L 87.738281 110.412109 L 90.729980 110.412109 L 90.729980 111.335938 Z " fill="rgb(0, 0, 0)" fill-opacity="1.000000" />
<path d="M 90.892578 111.335938 L 90.892578 110.412109 L 97.729980 110.412109 L 97.729980 111.335938 Z " fill="rgb(0, 0, 0)" fill-opacity="1.000000" />
<path d="M 97.892578 111.335938 L 97.892578 110.412109 L 104.729980 110.412109 L 104.729980 111.335938 Z " fill="rgb(0, 0, 0)" fill-opacity="1.000000" />
<path d="M 104.892578 111.335938 L 104.892578 110.412109 L 107.878906 110.412109 L 107.878906 103.300781 L 108.738281 103.300781 L 108.738281 111.335938 Z " fill="rgb(0, 0, 0)" fill-opacity="1.000000" />
<path d="M 8.251465 92.980957 L 12.972656 92.980957 L 12.972656 93.894043 L 9.341797 93.894043 L 9.341797 96.042480 L 12.634277 96.042480 L 12.634277 96.955566 L 9.341797 96.955566 L 9.341797 101.000000 L 8.251465 101.000000 Z " fill="rgb(0, 0, 0)" fill-opacity="1.000000" />
<path d="M 23.878906 104.319336 L 23.878906 90.300781 L 24.738281 90.300781 L 24.738281 104.319336 Z " fill="rgb(0, 0, 0)" fill-opacity="1.000000" />
<path d="M 44.878906 104.319336 L 44.878906 90.300781 L 45.738281 90.300781 L 45.738281 104.319336 Z " fill="rgb(0, 0, 0)" fill-opacity="1.000000" />
<path d="M 65.878906 104.319336 L 65.878906 90.300781 L 66.738281 90.300781 L 66.738281 104.319336 Z " fill="rgb(0, 0, 0)" fill-opacity="1.000000" />
<path d="M 86.878906 104.319336 L 86.878906 90.300781 L 87.738281 90.300781 L 87.738281 104.319336 Z " fill="rgb(0, 0, 0)" fill-opacity="1.000000" />
<path d="M 92.251465 92.980957 L 96.972656 92.980957 L 96.972656 93.894043 L 93.341797 93.894043 L 93.341797 96.042480 L 96.634277 96.042480 L 96.634277 96.955566 L 93.341797 96.955566 L 93.341797 101.000000 L 92.251465 101.000000 Z " fill="rgb(0, 0, 0)" fill-opacity="1.000000" />
<path d="M 107.878906 104.319336 L 107.878906 90.300781 L 108.738281 90.300781 L 108.738281 104.319336 Z " fill="rgb(0, 0, 0)" fill-opacity="1.000000" />
<path d="M 6.892578 85.335938 L 6.892578 84.412109 L 13.729980 84.412109 L 13.729980 85.335938 Z " fill="rgb(0, 0, 0)" fill-opacity="1.000000" />
<path d="M 13.892578 85.335938 L 13.892578 84.412109 L 20.729980 84.412109 L 20.729980 85.335938 Z " fill="rgb(0, 0, 0)" fill-opacity="1.000000" />
<path d="M 24.738281 85.335938 L 24.738281 91.319336 L 23.878906 91.319336 L 23.878906 85.335938 L 20.892578 85.335938 L 20.892578 84.412109 L 23.878906 84.412109 L 23.878906 77.300781 L 24.738281 77.300781 L 24.738281 84.412109 L 27.729980 84.412109 L 27.729980 85.335938 Z " fill="rgb(0, 0, 0)" fill-opacity="1.000000" />
<path d="M 27.892578 85.335938 L 27.892578 84.412109 L 34.729980 84.412109 L 34.729980 85.335938 Z " fill="rgb(0, 0, 0)" fill-opacity="1.000000" />
<path d="M 34.892578 85.335938 L 34.892578 84.412109 L 41.729980 84.412109 L 41.729980 85.335938 Z " fill="rgb(0, 0, 0)" fill-opacity="1.000000" />
<path d="M 45.738281 85.335938 L 45.738281 91.319336 L 44.878906 91.319336 L 44.878906 85.335938 L 41.892578 85.335938 L 41.892578 84.412109 L 44.878906 84.412109 L 44.878906 77.300781 L 45.738281 77.300781 L 45.738281 84.412109 L 48.729980 84.412109 L 48.729980 85.335938 Z " fill="rgb(0, 0, 0)" fill-opacity="1.000000" />
<path d="M 48.892578 85.335938 L 48.892578 84.412109 L 55.729980 84.412109 L 55.729980 85.335938 Z " fill="rgb(0, 0, 0)" fill-opacity="1.000000" />
<path d="M 55.892578 85.335938 L 55.892578 84.412109 L 62.729980 84.412109 L 62.729980 85.335938 Z " fill="rgb(0, 0, 0)" fill-opacity="1.000000" />
<path d="M 66.738281 85.335938 L 66.738281 91.319336 L 65.878906 91.319336 L 65.878906 85.335938 L 62.892578 85.335938 L 62.892578 84.412109 L 65.878906 84.412109 L 65.878906 77.300781 L 66.738281 77.300781 L 66.738281 84.412109 L 69.729980 84.412109 L 69.729980 85.335938 Z " fill="rgb(0, 0, 0)" fill-opacity="1.000000" />
<path d="M 69.892578 85.335938 L 69.892578 84.412109 L 76.729980 84.412109 L 76.729980 85.335938 Z " fill="rgb(0, 0, 0)" fill-opacity="1.000000" />
<path d="M 76.892578 85.335938 L 76.892578 84.412109 L 83.729980 84.412109 L 83.729980 85.335938 Z " fill="rgb(0, 0, 0)" fill-opacity="1.000000" />
<path d="M 87.738281 85.335938 L 87.738281 91.319336 L 86.878906 91.319336 L 86.878906 85.335938 L 83.892578 85.335938 L 83.892578 84.412109 L 86.878906 84.412109 L 86.878906 77.300781 L 87.738281 77.300781 L 87.738281 84.412109 L 90.729980 84.412109 L 90.729980 85.335938 Z " fill="rgb(0, 0, 0)" fill-opacity="1.000000" />
<path d="M 90.892578 85.335938 L 90.892578 84.412109 L 97.729980 84.412109 L 97.729980 85.335938 Z " fill="rgb(0, 0, 0)" fill-opacity="1.000000" />
<path d="M 97.892578 85.335938 L 97.892578 84.412109 L 104.729980 84.412109 L 104.729980 85.335938 Z " fill="rgb(0, 0, 0)" fill-opacity="1.000000" />
<path d="M 107.878906 91.319336 L 107.878906 85.335938 L 104.892578 85.335938 L 104.892578 84.412109 L 107.878906 84.412109 L 107.878906 77.300781 L 108.738281 77.300781 L 108.738281 91.319336 Z " fill="rgb(0, 0, 0)" fill-opacity="1.000000" />
<path d="M 23.878906 78.319336 L 23.878906 64.300781 L 24.738281 64.300781 L 24.738281 78.319336 Z " fill="rgb(0, 0, 0)" fill-opacity="1.000000" />
<path d="M 44.878906 78.319336 L 44.878906 64.300781 L 45.738281 64.300781 L 45.738281 78.319336 Z " fill="rgb(0, 0, 0)" fill-opacity="1.000000" />
<path d="M 65.878906 78.319336 L 65.878906 64.300781 L 66.738281 64.300781 L 66.738281 78.319336 Z " fill="rgb(0, 0, 0)" fill-opacity="1.000000" />
<path d="M 71.251465 66.980957 L 75.972656 66.980957 L 75.972656 67.894043 L 72.341797 67.894043 L 72.341797 70.042480 L 75.634277 70.042480 L 75.634277 70.955566 L 72.341797 70.955566 L 72.341797 75.000000 L 71.251465 75.000000 Z " fill="rgb(0, 0, 0)" fill-opacity="1.000000" />
<path d="M 86.878906 78.319336 L 86.878906 64.300781 L 87.738281 64.300781 L 87.738281 78.319336 Z " fill="rgb(0, 0, 0)" fill-opacity="1.000000" />
<path d="M 107.878906 78.319336 L 107.878906 64.300781 L 108.738281 64.300781 L 108.738281 78.319336 Z " fill="rgb(0, 0, 0)" fill-opacity="1.000000" />
<path d="M 6.892578 59.335938 L 6.892578 58.412109 L 13.729980 58.412109 L 13.729980 59.335938 Z " fill="rgb(0, 0, 0)" fill-opacity="1.000000" />
<path d="M 13.892578 59.335938 L 13.892578 58.412109 L 20.729980 58.412109 L 20.729980 59.335938 Z " fill="rgb(0, 0, 0)" fill-opacity="1.000000" />
<path d="M 24.738281 59.335938 L 24.738281 65.319336 L 23.878906 65.319336 L 23.878906 59.335938 L 20.892578 59.335938 L 20.892578 58.412109 L 23.878906 58.412109 L 23.878906 51.300781 L 24.738281 51.300781 L 24.738281 58.412109 L 27.729980 58.412109 L 27.729980 59.335938 Z " fill="rgb(0, 0, 0)" fill-opacity="1.000000" />
<path d="M 27.892578 59.335938 L 27.892578 58.412109 L 34.729980 58.412109 L 34.729980 59.335938 Z " fill="rgb(0, 0, 0)" fill-opacity="1.000000" />
<path d="M 34.892578 59.335938 L 34.892578 58.412109 L 41.729980 58.412109 L 41.729980 59.335938 Z " fill="rgb(0, 0, 0)" fill-opacity="1.000000" />
<path d="M 45.738281 59.335938 L 45.738281 65.319336 L 44.878906 65.319336 L 44.878906 59.335938 L 41.892578 59.335938 L 41.892578 58.412109 L 44.878906 58.412109 L 44.878906 51.300781 L 45.738281 51.300781 L 45.738281 58.412109 L 48.729980 58.412109 L 48.729980 59.335938 Z " fill="rgb(0, 0, 0)" fill-opacity="1.000000" />
<path d="M 48.892578 59.335938 L 48.892578 58.412109 L 55.729980 58.412109 L 55.729980 59.335938 Z " fill="rgb(0, 0, 0)" fill-opacity="1.000000" />
<path d="M 55.892578 59.335938 L 55.892578 58.412109 L 62.729980 58.412109 L 62.729980 59.335938 Z " fill="rgb(0, 0, 0)" fill-opacity="1.000000" />
<path d="M 66.738281 59.335938 L 66.738281 65.319336 L 65.878906 65.319336 L 65.878906 59.335938 L 62.892578 59.335938 L 62.892578 58.412109 L 65.878906 58.412109 L 65.878906 51.300781 L 66.738281 51.300781 L 66.738281 58.412109 L 69.729980 58.412109 L 69.729980 59.335938 Z " fill="rgb(0, 0, 0)" fill-opacity="1.000000" />
<path d="M 69.892578 59.335938 L 69.892578 58.412109 L 76.729980 58.412109 L 76.729980 59.335938 Z " fill="rgb(0, 0, 0)" fill-opacity="1.000000" />
<path d="M 76.892578 59.335938 L 76.892578 58.412109 L 83.729980 58.412109 L 83.729980 59.335938 Z " fill="rgb(0, 0, 0)" fill-opacity="1.000000" />
<path d="M 87.738281 59.335938 L 87.738281 65.319336 L 86.878906 65.319336 L 86.878906 59.335938 L 83.892578 59.335938 L 83.892578 58.412109 L 86.878906 58.412109 L 86.878906 51.300781 L 87.738281 51.300781 L 87.738281 58.412109 L 90.729980 58.412109 L 90.729980 59.335938 Z " fill="rgb(0, 0, 0)" fill-opacity="1.000000" />
<path d="M 90.892578 59.335938 L 90.892578 58.412109 L 97.729980 58.412109 L 97.729980 59.335938 Z " fill="rgb(0, 0, 0)" fill-opacity="1.000000" />
<path d="M 97.892578 59.335938 L 97.892578 58.412109 L 104.729980 58.412109 L 104.729980 59.335938 Z " fill="rgb(0, 0, 0)" fill-opacity="1.000000" />
<path d="M 107.878906 65.319336 L 107.878906 59.335938 L 104.892578 59.335938 L 104.892578 58.412109 L 107.878906 58.412109 L 107.878906 51.300781 L 108.738281 51.300781 L 108.738281 65.319336 Z " fill="rgb(0, 0, 0)" fill-opacity="1.000000" />
<path d="M 23.878906 52.319336 L 23.878906 38.300781 L 24.738281 38.300781 L 24.738281 52.319336 Z " fill="rgb(0, 0, 0)" fill-opacity="1.000000" />
<path d="M 44.878906 52.319336 L 44.878906 38.300781 L 45.738281 38.300781 L 45.738281 52.319336 Z " fill="rgb(0, 0, 0)" fill-opacity="1.000000" />
<path d="M 50.251465 40.980957 L 54.972656 40.980957 L 54.972656 41.894043 L 51.341797 41.894043 L 51.341797 44.042480 L 54.634277 44.042480 L 54.634277 44.955566 L 51.341797 44.955566 L 51.341797 49.000000 L 50.251465 49.000000 Z " fill="rgb(0, 0, 0)" fill-opacity="1.000000" />
<path d="M 65.878906 52.319336 L 65.878906 38.300781 L 66.738281 38.300781 L 66.738281 52.319336 Z " fill="rgb(0, 0, 0)" fill-opacity="1.000000" />
<path d="M 86.878906 52.319336 L 86.878906 38.300781 L 87.738281 38.300781 L 87.738281 52.319336 Z " fill="rgb(0, 0, 0)" fill-opacity="1.000000" />
<path d="M 107.878906 52.319336 L 107.878906 38.300781 L 108.738281 38.300781 L 108.738281 52.319336 Z " fill="rgb(0, 0, 0)" fill-opacity="1.000000" />
<path d="M 6.892578 33.335938 L 6.892578 32.412109 L 13.729980 32.412109 L 13.729980 33.335938 Z " fill="rgb(0, 0, 0)" fill-opacity="1.000000" />
<path d="M 13.892578 33.335938 L 13.892578 32.412109 L 20.729980 32.412109 L 20.729980 33.335938 Z " fill="rgb(0, 0, 0)" fill-opacity="1.000000" />
<path d="M 24.738281 33.335938 L 24.738281 39.319336 L 23.878906 39.319336 L 23.878906 33.335938 L 20.892578 33.335938 L 20.892578 32.412109 L 23.878906 32.412109 L 23.878906 25.300781 L 24.738281 25.300781 L 24.738281 32.412109 L 27.729980 32.412109 L 27.729980 33.335938 Z " fill="rgb(0, 0, 0)" fill-opacity="1.000000" />
<path d="M 27.892578 33.335938 L 27.892578 32.412109 L 34.729980 32.412109 L 34.729980 33.335938 Z " fill="rgb(0, 0, 0)" fill-opacity="1.000000" />
<path d="M 34.892578 33.335938 L 34.892578 32.412109 L 41.729980 32.412109 L 41.729980 33.335938 Z " fill="rgb(0, 0, 0)" fill-opacity="1.000000" />
<path d="M 45.738281 33.335938 L 45.738281 39.319336 L 44.878906 39.319336 L 44.878906 33.335938 L 41.892578 33.335938 L 41.892578 32.412109 L 44.878906 32.412109 L 44.878906 25.300781 L 45.738281 25.300781 L 45.738281 32.412109 L 48.729980 32.412109 L 48.729980 33.335938 Z " fill="rgb(0, 0, 0)" fill-opacity="1.000000" />
<path d="M 48.892578 33.335938 L 48.892578 32.412109 L 55.729980 32.412109 L 55.729980 33.335938 Z " fill="rgb(0, 0, 0)" fill-opacity="1.000000" />
<path d="M 55.892578 33.335938 L 55.892578 32.412109 L 62.729980 32.412109 L 62.729980 33.335938 Z " fill="rgb(0, 0, 0)" fill-opacity="1.000000" />
<path d="M 66.738281 33.335938 L 66.738281 39.319336 L 65.878906 39.319336 L 65.878906 33.335938 L 62.892578 33.335938 L 62.892578 32.412109 L 65.878906 32.412109 L 65.878906 25.300781 L 66.738281 25.300781 L 66.738281 32.412109 L 69.729980 32.412109 L 69.729980 33.335938 Z " fill="rgb(0, 0, 0)" fill-opacity="1.000000" />
<path d="M 69.892578 33.335938 L 69.892578 32.412109 L 76.729980 32.412109 L 76.729980 33.335938 Z " fill="rgb(0, 0, 0)" fill-opacity="1.000000" />
<path d="M 76.892578 33.335938 L 76.892578 32.412109 L 83.729980 32.412109 L 83.729980 33.335938 Z " fill="rgb(0, 0, 0)" fill-opacity="1.000000" />
<path d="M 87.738281 33.335938 L 87.738281 39.319336 L 86.878906 39.319336 L 86.878906 33.335938 L 83.892578 33.335938 L 83.892578 32.412109 L 86.878906 32.412109 L 86.878906 25.300781 L 87.738281 25.300781 L 87.738281 32.412109 L 90.729980 32.412109 L 90.729980 33.335938 Z " fill="rgb(0, 0, 0)" fill-opacity="1.000000" />
<path d="M 90.892578 33.335938 L 90.892578 32.412109 L 97.729980 32.412109 L 97.729980 33.335938 Z " fill="rgb(0, 0, 0)" fill-opacity="1.000000" />
<path d="M 97.892578 33.335938 L 97.892578 32.412109 L 104.729980 32.412109 L 104.729980 33.335938 Z " fill="rgb(0, 0, 0)" fill-opacity="1.000000" />
<path d="M 107.878906 39.319336 L 107.878906 33.335938 L 104.892578 33.335938 L 104.892578 32.412109 L 107.878906 32.412109 L 107.878906 25.300781 L 108.738281 25.300781 L 108.738281 39.319336 Z " fill="rgb(0, 0, 0)" fill-opacity="1.000000" />
<path d="M 8.251465 14.980957 L 12.972656 14.980957 L 12.972656 15.894043 L 9.341797 15.894043 L 9.341797 18.042480 L 12.634277 18.042480 L 12.634277 18.955566 L 9.341797 18.955566 L 9.341797 23.000000 L 8.251465 23.000000 Z " fill="rgb(0, 0, 0)" fill-opacity="1.000000" />
<path d="M 23.878906 26.319336 L 23.878906 12.300781 L 24.738281 12.300781 L 24.738281 26.319336 Z " fill="rgb(0, 0, 0)" fill-opacity="1.000000" />
<path d="M 44.878906 26.319336 L 44.878906 12.300781 L 45.738281 12.300781 L 45.738281 26.319336 Z " fill="rgb(0, 0, 0)" fill-opacity="1.000000" />
<path d="M 65.878906 26.319336 L 65.878906 12.300781 L 66.738281 12.300781 L 66.738281 26.319336 Z " fill="rgb(0, 0, 0)" fill-opacity="1.000000" />
<path d="M 71.251465 14.980957 L 75.972656 14.980957 L 75.972656 15.894043 L 72.341797 15.894043 L 72.341797 18.042480 L 75.634277 18.042480 L 75.634277 18.955566 L 72.341797 18.955566 L 72.341797 23.000000 L 71.251465 23.000000 Z " fill="rgb(0, 0, 0)" fill-opacity="1.000000" />
<path d="M 86.878906 26.319336 L 86.878906 12.300781 L 87.738281 12.300781 L 87.738281 26.319336 Z " fill="rgb(0, 0, 0)" fill-opacity="1.000000" />
<path d="M 107.878906 26.319336 L 107.878906 12.300781 L 108.738281 12.300781 L 108.738281 26.319336 Z " fill="rgb(0, 0, 0)" fill-opacity="1.000000" />
<path d="M 6.892578 7.335938 L 6.892578 6.412109 L 13.729980 6.412109 L 13.729980 7.335938 Z " fill="rgb(0, 0, 0)" fill-opacity="1.000000" />
<path d="M 13.892578 7.335938 L 13.892578 6.412109 L 20.729980 6.412109 L 20.729980 7.335938 Z " fill="rgb(0, 0, 0)" fill-opacity="1.000000" />
<path d="M 23.878906 13.319336 L 23.878906 7.335938 L 20.892578 7.335938 L 20.892578 6.412109 L 27.729980 6.412109 L 27.729980 7.335938 L 24.738281 7.335938 L 24.738281 13.319336 Z " fill="rgb(0, 0, 0)" fill-opacity="1.000000" />
<path d="M 27.892578 7.335938 L 27.892578 6.412109 L 34.729980 6.412109 L 34.729980 7.335938 Z " fill="rgb(0, 0, 0)" fill-opacity="1.000000" />
<path d="M 34.892578 7.335938 L 34.892578 6.412109 L 41.729980 6.412109 L 41.729980 7.335938 Z " fill="rgb(0, 0, 0)" fill-opacity="1.000000" />
<path d="M 44.878906 13.319336 L 44.878906 7.335938 L 41.892578 7.335938 L 41.892578 6.412109 L 48.729980 6.412109 L 48.729980 7.335938 L 45.738281 7.335938 L 45.738281 13.319336 Z " fill="rgb(0, 0, 0)" fill-opacity="1.000000" />
<path d="M 48.892578 7.335938 L 48.892578 6.412109 L 55.729980 6.412109 L 55.729980 7.335938 Z " fill="rgb(0, 0, 0)" fill-opacity="1.000000" />
<path d="M 55.892578 7.335938 L 55.892578 6.412109 L 62.729980 6.412109 L 62.729980 7.335938 Z " fill="rgb(0, 0, 0)" fill-opacity="1.000000" />
<path d="M 65.878906 13.319336 L 65.878906 7.335938 L 62.892578 7.335938 L 62.892578 6.412109 L 69.729980 6.412109 L 69.729980 7.335938 L 66.738281 7.335938 L 66.738281 13.319336 Z " fill="rgb(0, 0, 0)" fill-opacity="1.000000" />
<path d="M 69.892578 7.335938 L 69.892578 6.412109 L 76.729980 6.412109 L 76.729980 7.335938 Z " fill="rgb(0, 0, 0)" fill-opacity="1.000000" />
<path d="M 76.892578 7.335938 L 76.892578 6.412109 L 83.729980 6.412109 L 83.729980 7.335938 Z " fill="rgb(0, 0, 0)" fill-opacity="1.000000" />
<path d="M 86.878906 13.319336 L 86.878906 7.335938 L 83.892578 7.335938 L 83.892578 6.412109 L 90.729980 6.412109 L 90.729980 7.335938 L 87.738281 7.335938 L 87.738281 13.319336 Z " fill="rgb(0, 0, 0)" fill-opacity="1.000000" />
<path d="M 90.892578 7.335938 L 90.892578 6.412109 L 97.729980 6.412109 L 97.729980 7.335938 Z " fill="rgb(0, 0, 0)" fill-opacity="1.000000" />
<path d="M 97.892578 7.335938 L 97.892578 6.412109 L 104.729980 6.412109 L 104.729980 7.335938 Z " fill="rgb(0, 0, 0)" fill-opacity="1.000000" />
<path d="M 107.878906 13.319336 L 107.878906 7.335938 L 104.892578 7.335938 L 104.892578 6.412109 L 108.738281 6.412109 L 108.738281 13.319336 Z " fill="rgb(0, 0, 0)" fill-opacity="1.000000" />
</svg>