<svg xmlns="http://www.w3.org/2000/svg" version="1.1" width="400" height="287">
<path d="M 5.435547 54.254883 L 5.435547 55.355957 Q 4.941406 55.039062 4.444580 54.877930 Q 3.947754 54.716797 3.442871 54.716797 Q 2.674805 54.716797 2.229004 55.073975 Q 1.783203 55.431152 1.783203 56.038086 Q 1.783203 56.569824 2.075928 56.849121 Q 2.368652 57.128418 3.168945 57.316406 L 3.738281 57.445312 Q 4.866211 57.708496 5.381836 58.272461 Q 5.897461 58.836426 5.897461 59.808594 Q 5.897461 60.952637 5.188477 61.554199 Q 4.479492 62.155762 3.125977 62.155762 Q 2.562012 62.155762 1.992676 62.034912 Q 1.423340 61.914062 0.848633 61.672363 L 0.848633 60.517578 Q 1.466309 60.909668 2.016846 61.092285 Q 2.567383 61.274902 3.125977 61.274902 Q 3.947754 61.274902 4.404297 60.906982 Q 4.860840 60.539062 4.860840 59.878418 Q 4.860840 59.276855 4.546631 58.959961 Q 4.232422 58.643066 3.453613 58.471191 L 2.873535 58.336914 Q 1.756348 58.084473 1.251465 57.574219 Q 0.746582 57.063965 0.746582 56.204590 Q 0.746582 55.130371 1.468994 54.483154 Q 2.191406 53.835938 3.389160 53.835938 Q 3.851074 53.835938 4.361328 53.940674 Q 4.871582 54.045410 5.435547 54.254883 Z " fill="rgb(0, 0, 0)" fill-opacity="1.000000" />
<path d="M 5.763184 269.715332 Q 5.349609 269.935547 4.914551 270.045654 Q 4.479492 270.155762 3.990723 270.155762 Q 2.449219 270.155762 1.597900 269.065430 Q 0.746582 267.975098 0.746582 265.998535 Q 0.746582 264.032715 1.603271 262.934326 Q 2.459961 261.835938 3.990723 261.835938 Q 4.479492 261.835938 4.914551 261.946045 Q 5.349609 262.056152 5.763184 262.276367 L 5.763184 263.388184 Q 5.365723 263.060547 4.909180 262.888672 Q 4.452637 262.716797 3.990723 262.716797 Q 2.932617 262.716797 2.406250 263.533203 Q 1.879883 264.349609 1.879883 265.998535 Q 1.879883 267.642090 2.406250 268.458496 Q 2.932617 269.274902 3.990723 269.274902 Q 4.463379 269.274902 4.917236 269.103027 Q 5.371094 268.931152 5.763184 268.603516 Z " fill="rgb(0, 0, 0)" fill-opacity="1.000000" />
<path d="M 359.878906 286.319336 L 359.878906 272.300781 L 360.738281 272.300781 L 360.738281 286.319336 Z " fill="rgb(0, 0, 0)" fill-opacity="1.000000" />
<path d="M 10.308594 264.677246 Q 9.556641 264.677246 9.169922 265.262695 Q 8.783203 265.848145 8.783203 266.997559 Q 8.783203 268.141602 9.169922 268.729736 Q 9.556641 269.317871 10.308594 269.317871 Q 11.065918 269.317871 11.452637 268.729736 Q 11.839355 268.141602 11.839355 266.997559 Q 11.839355 265.848145 11.452637 265.262695 Q 11.065918 264.677246 10.308594 264.677246 Z M 10.308594 263.839355 Q 11.560059 263.839355 12.223389 264.650391 Q 12.886719 265.461426 12.886719 266.997559 Q 12.886719 268.539062 12.226074 269.347412 Q 11.565430 270.155762 10.308594 270.155762 Q 9.057129 270.155762 8.396484 269.347412 Q 7.735840 268.539062 7.735840 266.997559 Q 7.735840 265.461426 8.396484 264.650391 Q 9.057129 263.839355 10.308594 263.839355 Z " fill="rgb(0, 0, 0)" fill-opacity="1.000000" />
<path d="M 17.630859 264.596680 Q 17.813477 264.209961 18.095459 264.024658 Q 18.377441 263.839355 18.774902 263.839355 Q 19.500000 263.839355 19.798096 264.400635 Q 20.096191 264.961914 20.096191 266.514160 L 20.096191 270.000000 L 19.193848 270.000000 L 19.193848 266.557129 Q 19.193848 265.284180 19.051514 264.975342 Q 18.909180 264.666504 18.533203 264.666504 Q 18.103516 264.666504 17.945068 264.996826 Q 17.786621 265.327148 17.786621 266.557129 L 17.786621 270.000000 L 16.884277 270.000000 L 16.884277 266.557129 Q 16.884277 265.268066 16.731201 264.967285 Q 16.578125 264.666504 16.180664 264.666504 Q 15.788574 264.666504 15.635498 264.996826 Q 15.482422 265.327148 15.482422 266.557129 L 15.482422 270.000000 L 14.585449 270.000000 L 14.585449 263.984375 L 15.482422 263.984375 L 15.482422 264.500000 Q 15.659668 264.177734 15.925537 264.008545 Q 16.191406 263.839355 16.529785 263.839355 Q 16.937988 263.839355 17.209229 264.027344 Q 17.480469 264.215332 17.630859 264.596680 Z " fill="rgb(0, 0, 0)" fill-opacity="1.000000" />
<path d="M 24.630859 264.596680 Q 24.813477 264.209961 25.095459 264.024658 Q 25.377441 263.839355 25.774902 263.839355 Q 26.500000 263.839355 26.798096 264.400635 Q 27.096191 264.961914 27.096191 266.514160 L 27.096191 270.000000 L 26.193848 270.000000 L 26.193848 266.557129 Q 26.193848 265.284180 26.051514 264.975342 Q 25.909180 264.666504 25.533203 264.666504 Q 25.103516 264.666504 24.945068 264.996826 Q 24.786621 265.327148 24.786621 266.557129 L 24.786621 270.000000 L 23.884277 270.000000 L 23.884277 266.557129 Q 23.884277 265.268066 23.731201 264.967285 Q 23.578125 264.666504 23.180664 264.666504 Q 22.788574 264.666504 22.635498 264.996826 Q 22.482422 265.327148 22.482422 266.557129 L 22.482422 270.000000 L 21.585449 270.000000 L 21.585449 263.984375 L 22.482422 263.984375 L 22.482422 264.500000 Q 22.659668 264.177734 22.925537 264.008545 Q 23.191406 263.839355 23.529785 263.839355 Q 23.937988 263.839355 24.209229 264.027344 Q 24.480469 264.215332 24.630859 264.596680 Z " fill="rgb(0, 0, 0)" fill-opacity="1.000000" />
<path d="M 29.697266 264.005859 L 32.227051 264.005859 L 32.227051 269.231934 L 34.187500 269.231934 L 34.187500 270.000000 L 29.278320 270.000000 L 29.278320 269.231934 L 31.238770 269.231934 L 31.238770 264.773926 L 29.697266 264.773926 Z M 31.238770 261.669434 L 32.227051 261.669434 L 32.227051 262.915527 L 31.238770 262.915527 Z " fill="rgb(0, 0, 0)" fill-opacity="1.000000" />
<path d="M 38.297852 262.276367 L 38.297852 263.984375 L 40.542969 263.984375 L 40.542969 264.752441 L 38.297852 264.752441 L 38.297852 268.018066 Q 38.297852 268.684082 38.550293 268.947266 Q 38.802734 269.210449 39.431152 269.210449 L 40.542969 269.210449 L 40.542969 270.000000 L 39.334473 270.000000 Q 38.222656 270.000000 37.766113 269.554199 Q 37.309570 269.108398 37.309570 268.018066 L 37.309570 264.752441 L 35.703613 264.752441 L 35.703613 263.984375 L 37.309570 263.984375 L 37.309570 262.276367 Z " fill="rgb(0, 0, 0)" fill-opacity="1.000000" />
<path d="M 41.892578 267.335938 L 41.892578 266.412109 L 48.729980 266.412109 L 48.729980 267.335938 Z " fill="rgb(0, 0, 0)" fill-opacity="1.000000" />
<path d="M 48.892578 267.335938 L 48.892578 266.412109 L 55.729980 266.412109 L 55.729980 267.335938 Z " fill="rgb(0, 0, 0)" fill-opacity="1.000000" />
<path d="M 56.032227 270.418945 L 56.032227 263.866211 L 62.590332 267.142578 Z " fill="rgb(0, 0, 0)" fill-opacity="1.000000" />
<path d="M 73.308594 270.418945 L 70.032227 263.866211 L 76.590332 263.866211 Z " fill="rgb(0, 0, 0)" fill-opacity="1.000000" />
<path d="M 63.252441 144.980957 L 69.370117 144.980957 L 69.370117 145.894043 L 66.861816 145.894043 L 66.861816 153.000000 L 65.771484 153.000000 L 65.771484 145.894043 L 63.252441 145.894043 Z " fill="rgb(0, 0, 0)" fill-opacity="1.000000" />
<path d="M 72.878906 169.319336 L 72.878906 155.300781 L 73.738281 155.300781 L 73.738281 169.319336 Z " fill="rgb(0, 0, 0)" fill-opacity="1.000000" />
<path d="M 72.878906 182.319336 L 72.878906 168.300781 L 73.738281 168.300781 L 73.738281 182.319336 Z " fill="rgb(0, 0, 0)" fill-opacity="1.000000" />
<path d="M 72.878906 195.319336 L 72.878906 181.300781 L 73.738281 181.300781 L 73.738281 195.319336 Z " fill="rgb(0, 0, 0)" fill-opacity="1.000000" />
<path d="M 72.878906 208.319336 L 72.878906 194.300781 L 73.738281 194.300781 L 73.738281 208.319336 Z " fill="rgb(0, 0, 0)" fill-opacity="1.000000" />
<path d="M 72.878906 221.319336 L 72.878906 207.300781 L 73.738281 207.300781 L 73.738281 221.319336 Z " fill="rgb(0, 0, 0)" fill-opacity="1.000000" />
<path d="M 72.878906 234.319336 L 72.878906 220.300781 L 73.738281 220.300781 L 73.738281 234.319336 Z " fill="rgb(0, 0, 0)" fill-opacity="1.000000" />
<path d="M 72.878906 247.319336 L 72.878906 233.300781 L 73.738281 233.300781 L 73.738281 247.319336 Z " fill="rgb(0, 0, 0)" fill-opacity="1.000000" />
<path d="M 72.878906 260.319336 L 72.878906 246.300781 L 73.738281 246.300781 L 73.738281 260.319336 Z " fill="rgb(0, 0, 0)" fill-opacity="1.000000" />
<path d="M 124.763184 191.715332 Q 124.349609 191.935547 123.914551 192.045654 Q 123.479492 192.155762 122.990723 192.155762 Q 121.449219 192.155762 120.597900 191.065430 Q 119.746582 189.975098 119.746582 187.998535 Q 119.746582 186.032715 120.603271 184.934326 Q 121.459961 183.835938 122.990723 183.835938 Q 123.479492 183.835938 123.914551 183.946045 Q 124.349609 184.056152 124.763184 184.276367 L 124.763184 185.388184 Q 124.365723 185.060547 123.909180 184.888672 Q 123.452637 184.716797 122.990723 184.716797 Q 121.932617 184.716797 121.406250 185.533203 Q 120.879883 186.349609 120.879883 187.998535 Q 120.879883 189.642090 121.406250 190.458496 Q 121.932617 191.274902 122.990723 191.274902 Q 123.463379 191.274902 123.917236 191.103027 Q 124.371094 190.931152 124.763184 190.603516 Z " fill="rgb(0, 0, 0)" fill-opacity="1.000000" />
<path d="M 242.860840 200.998535 Q 242.860840 199.231445 242.498291 198.474121 Q 242.135742 197.716797 241.308594 197.716797 Q 240.486816 197.716797 240.124268 198.474121 Q 239.761719 199.231445 239.761719 200.998535 Q 239.761719 202.760254 240.124268 203.517578 Q 240.486816 204.274902 241.308594 204.274902 Q 242.135742 204.274902 242.498291 203.520264 Q 242.860840 202.765625 242.860840 200.998535 Z M 243.994141 200.998535 Q 243.994141 203.093262 243.330811 204.124512 Q 242.667480 205.155762 241.308594 205.155762 Q 239.949707 205.155762 239.289062 204.129883 Q 238.628418 203.104004 238.628418 200.998535 Q 238.628418 198.898438 239.291748 197.867188 Q 239.955078 196.835938 241.308594 196.835938 Q 242.667480 196.835938 243.330811 197.867188 Q 243.994141 198.898438 243.994141 200.998535 Z " fill="rgb(0, 0, 0)" fill-opacity="1.000000" />
<path d="M 240.143066 236.872559 L 240.143066 239.885742 L 241.399902 239.885742 Q 242.151855 239.885742 242.573486 239.488281 Q 242.995117 239.090820 242.995117 238.376465 Q 242.995117 237.662109 242.576172 237.267334 Q 242.157227 236.872559 241.399902 236.872559 Z M 239.058105 235.980957 L 241.399902 235.980957 Q 242.742676 235.980957 243.435547 236.590576 Q 244.128418 237.200195 244.128418 238.376465 Q 244.128418 239.563477 243.438232 240.170410 Q 242.748047 240.777344 241.399902 240.777344 L 240.143066 240.777344 L 240.143066 244.000000 L 239.058105 244.000000 Z " fill="rgb(0, 0, 0)" fill-opacity="1.000000" />
<path d="M 246.697266 251.005859 L 249.227051 251.005859 L 249.227051 256.231934 L 251.187500 256.231934 L 251.187500 257.000000 L 246.278320 257.000000 L 246.278320 256.231934 L 248.238770 256.231934 L 248.238770 251.773926 L 246.697266 251.773926 Z M 248.238770 248.669434 L 249.227051 248.669434 L 249.227051 249.915527 L 248.238770 249.915527 Z " fill="rgb(0, 0, 0)" fill-opacity="1.000000" />
<path d="M 255.297852 249.276367 L 255.297852 250.984375 L 257.542969 250.984375 L 257.542969 251.752441 L 255.297852 251.752441 L 255.297852 255.018066 Q 255.297852 255.684082 255.550293 255.947266 Q 255.802734 256.210449 256.431152 256.210449 L 257.542969 256.210449 L 257.542969 257.000000 L 256.334473 257.000000 Q 255.222656 257.000000 254.766113 256.554199 Q 254.309570 256.108398 254.309570 255.018066 L 254.309570 251.752441 L 252.703613 251.752441 L 252.703613 250.984375 L 254.309570 250.984375 L 254.309570 249.276367 Z " fill="rgb(0, 0, 0)" fill-opacity="1.000000" />
<path d="M 265.015625 253.498047 L 265.015625 253.981445 L 260.734863 253.981445 L 260.734863 254.013672 Q 260.691895 255.243652 261.204834 255.780762 Q 261.717773 256.317871 262.652344 256.317871 Q 263.125000 256.317871 263.640625 256.167480 Q 264.156250 256.017090 264.741699 255.710938 L 264.741699 256.693848 Q 264.177734 256.924805 263.654053 257.040283 Q 263.130371 257.155762 262.641602 257.155762 Q 261.239746 257.155762 260.450195 256.315186 Q 259.660645 255.474609 259.660645 253.997559 Q 259.660645 252.558105 260.434082 251.698730 Q 261.207520 250.839355 262.496582 250.839355 Q 263.645996 250.839355 264.309326 251.618164 Q 264.972656 252.396973 265.015625 253.498047 Z M 264.027344 253.208008 Q 263.962891 252.584961 263.573486 252.131104 Q 263.184082 251.677246 262.453613 251.677246 Q 261.739258 251.677246 261.277344 252.149902 Q 260.815430 252.622559 260.772461 253.213379 Z " fill="rgb(0, 0, 0)" fill-opacity="1.000000" />
<path d="M 269.630859 251.596680 Q 269.813477 251.209961 270.095459 251.024658 Q 270.377441 250.839355 270.774902 250.839355 Q 271.500000 250.839355 271.798096 251.400635 Q 272.096191 251.961914 272.096191 253.514160 L 272.096191 257.000000 L 271.193848 257.000000 L 271.193848 253.557129 Q 271.193848 252.284180 271.051514 251.975342 Q 270.909180 251.666504 270.533203 251.666504 Q 270.103516 251.666504 269.945068 251.996826 Q 269.786621 252.327148 269.786621 253.557129 L 269.786621 257.000000 L 268.884277 257.000000 L 268.884277 253.557129 Q 268.884277 252.268066 268.731201 251.967285 Q 268.578125 251.666504 268.180664 251.666504 Q 267.788574 251.666504 267.635498 251.996826 Q 267.482422 252.327148 267.482422 253.557129 L 267.482422 257.000000 L 266.585449 257.000000 L 266.585449 250.984375 L 267.482422 250.984375 L 267.482422 251.500000 Q 267.659668 251.177734 267.925537 251.008545 Q 268.191406 250.839355 268.529785 250.839355 Q 268.937988 250.839355 269.209229 251.027344 Q 269.480469 251.215332 269.630859 251.596680 Z " fill="rgb(0, 0, 0)" fill-opacity="1.000000" />
<path d="M 280.472656 251.838379 L 280.472656 250.860840 L 286.149902 253.105957 L 286.149902 253.997559 L 280.472656 256.242676 L 280.472656 255.259766 L 285.038086 253.557129 Z " fill="rgb(0, 0, 0)" fill-opacity="1.000000" />
<path d="M 296.003418 256.086914 L 299.687988 256.086914 L 299.687988 257.000000 L 294.816406 257.000000 L 294.816406 256.086914 Q 295.820801 255.028809 296.572754 254.217773 Q 297.324707 253.406738 297.609375 253.073730 Q 298.146484 252.418457 298.334473 252.012939 Q 298.522461 251.607422 298.522461 251.183105 Q 298.522461 250.511719 298.127686 250.130371 Q 297.732910 249.749023 297.045410 249.749023 Q 296.556641 249.749023 296.019531 249.926270 Q 295.482422 250.103516 294.880859 250.463379 L 294.880859 249.367676 Q 295.434082 249.104492 295.968506 248.970215 Q 296.502930 248.835938 297.023926 248.835938 Q 298.200195 248.835938 298.917236 249.461670 Q 299.634277 250.087402 299.634277 251.102539 Q 299.634277 251.618164 299.395264 252.133789 Q 299.156250 252.649414 298.619141 253.272461 Q 298.318359 253.621582 297.746338 254.239258 Q 297.174316 254.856934 296.003418 256.086914 Z " fill="rgb(0, 0, 0)" fill-opacity="1.000000" />
<path d="M 307.892578 254.335938 L 307.892578 253.412109 L 314.729980 253.412109 L 314.729980 254.335938 Z " fill="rgb(0, 0, 0)" fill-opacity="1.000000" />
<path d="M 314.892578 254.335938 L 314.892578 253.412109 L 321.729980 253.412109 L 321.729980 254.335938 Z " fill="rgb(0, 0, 0)" fill-opacity="1.000000" />
<path d="M 321.892578 254.335938 L 321.892578 253.412109 L 328.729980 253.412109 L 328.729980 254.335938 Z " fill="rgb(0, 0, 0)" fill-opacity="1.000000" />
<path d="M 328.892578 254.335938 L 328.892578 253.412109 L 335.729980 253.412109 L 335.729980 254.335938 Z " fill="rgb(0, 0, 0)" fill-opacity="1.000000" />
<path d="M 335.892578 254.335938 L 335.892578 253.412109 L 342.729980 253.412109 L 342.729980 254.335938 Z " fill="rgb(0, 0, 0)" fill-opacity="1.000000" />
<path d="M 342.892578 254.335938 L 342.892578 253.412109 L 349.729980 253.412109 L 349.729980 254.335938 Z " fill="rgb(0, 0, 0)" fill-opacity="1.000000" />
<path d="M 349.892578 254.335938 L 349.892578 253.412109 L 356.729980 253.412109 L 356.729980 254.335938 Z " fill="rgb(0, 0, 0)" fill-opacity="1.000000" />
<path d="M 359.878906 260.319336 L 359.878906 254.335938 L 356.892578 254.335938 L 356.892578 253.412109 L 359.878906 253.412109 L 359.878906 246.300781 L 360.738281 246.300781 L 360.738281 260.319336 Z " fill="rgb(0, 0, 0)" fill-opacity="1.000000" />
<path d="M 248.308594 238.677246 Q 247.556641 238.677246 247.169922 239.262695 Q 246.783203 239.848145 246.783203 240.997559 Q 246.783203 242.141602 247.169922 242.729736 Q 247.556641 243.317871 248.308594 243.317871 Q 249.065918 243.317871 249.452637 242.729736 Q 249.839355 242.141602 249.839355 240.997559 Q 249.839355 239.848145 249.452637 239.262695 Q 249.065918 238.677246 248.308594 238.677246 Z M 248.308594 237.839355 Q 249.560059 237.839355 250.223389 238.650391 Q 250.886719 239.461426 250.886719 240.997559 Q 250.886719 242.539062 250.226074 243.347412 Q 249.565430 244.155762 248.308594 244.155762 Q 247.057129 244.155762 246.396484 243.347412 Q 245.735840 242.539062 245.735840 240.997559 Q 245.735840 239.461426 246.396484 238.650391 Q 247.057129 237.839355 248.308594 237.839355 Z " fill="rgb(0, 0, 0)" fill-opacity="1.000000" />
<path d="M 255.861816 241.824707 Q 255.861816 242.490723 256.106201 242.829102 Q 256.350586 243.167480 256.828613 243.167480 L 257.983398 243.167480 L 257.983398 244.000000 L 256.731934 244.000000 Q 255.845703 244.000000 255.359619 243.433350 Q 254.873535 242.866699 254.873535 241.824707 L 254.873535 236.383789 L 253.289062 236.383789 L 253.289062 235.610352 L 255.861816 235.610352 Z " fill="rgb(0, 0, 0)" fill-opacity="1.000000" />
<path d="M 262.861816 241.824707 Q 262.861816 242.490723 263.106201 242.829102 Q 263.350586 243.167480 263.828613 243.167480 L 264.983398 243.167480 L 264.983398 244.000000 L 263.731934 244.000000 Q 262.845703 244.000000 262.359619 243.433350 Q 261.873535 242.866699 261.873535 241.824707 L 261.873535 236.383789 L 260.289062 236.383789 L 260.289062 235.610352 L 262.861816 235.610352 Z " fill="rgb(0, 0, 0)" fill-opacity="1.000000" />
<path d="M 271.226074 238.193848 L 271.226074 239.160645 Q 270.801758 238.913574 270.372070 238.790039 Q 269.942383 238.666504 269.496582 238.666504 Q 268.825195 238.666504 268.494873 238.884033 Q 268.164551 239.101562 268.164551 239.547363 Q 268.164551 239.950195 268.411621 240.148926 Q 268.658691 240.347656 269.641602 240.535645 L 270.039062 240.610840 Q 270.774902 240.750488 271.153564 241.169434 Q 271.532227 241.588379 271.532227 242.259766 Q 271.532227 243.151367 270.898438 243.653564 Q 270.264648 244.155762 269.136719 244.155762 Q 268.690918 244.155762 268.202148 244.061768 Q 267.713379 243.967773 267.144043 243.779785 L 267.144043 242.759277 Q 267.697266 243.043945 268.202148 243.186279 Q 268.707031 243.328613 269.158203 243.328613 Q 269.813477 243.328613 270.173340 243.062744 Q 270.533203 242.796875 270.533203 242.318848 Q 270.533203 241.631348 269.217285 241.368164 L 269.174316 241.357422 L 268.803711 241.282227 Q 267.949707 241.115723 267.557617 240.720947 Q 267.165527 240.326172 267.165527 239.644043 Q 267.165527 238.779297 267.750977 238.309326 Q 268.336426 237.839355 269.421387 237.839355 Q 269.904785 237.839355 270.350586 237.927979 Q 270.796387 238.016602 271.226074 238.193848 Z " fill="rgb(0, 0, 0)" fill-opacity="1.000000" />
<path d="M 285.709473 235.642578 L 285.709473 236.464355 L 284.586914 236.464355 Q 284.055176 236.464355 283.848389 236.681885 Q 283.641602 236.899414 283.641602 237.452637 L 283.641602 237.984375 L 285.709473 237.984375 L 285.709473 238.752441 L 283.641602 238.752441 L 283.641602 244.000000 L 282.653320 244.000000 L 282.653320 238.752441 L 281.047363 238.752441 L 281.047363 237.984375 L 282.653320 237.984375 L 282.653320 237.565430 Q 282.653320 236.577148 283.107178 236.109863 Q 283.561035 235.642578 284.522461 235.642578 Z " fill="rgb(0, 0, 0)" fill-opacity="1.000000" />
<path d="M 290.308594 238.677246 Q 289.556641 238.677246 289.169922 239.262695 Q 288.783203 239.848145 288.783203 240.997559 Q 288.783203 242.141602 289.169922 242.729736 Q 289.556641 243.317871 290.308594 243.317871 Q 291.065918 243.317871 291.452637 242.729736 Q 291.839355 242.141602 291.839355 240.997559 Q 291.839355 239.848145 291.452637 239.262695 Q 291.065918 238.677246 290.308594 238.677246 Z M 290.308594 237.839355 Q 291.560059 237.839355 292.223389 238.650391 Q 292.886719 239.461426 292.886719 240.997559 Q 292.886719 242.539062 292.226074 243.347412 Q 291.565430 244.155762 290.308594 244.155762 Q 289.057129 244.155762 288.396484 243.347412 Q 287.735840 242.539062 287.735840 240.997559 Q 287.735840 239.461426 288.396484 238.650391 Q 289.057129 237.839355 290.308594 237.839355 Z " fill="rgb(0, 0, 0)" fill-opacity="1.000000" />
<path d="M 300.203613 239.225098 Q 299.886719 238.978027 299.559082 238.865234 Q 299.231445 238.752441 298.839355 238.752441 Q 297.915527 238.752441 297.426758 239.332520 Q 296.937988 239.912598 296.937988 241.008301 L 296.937988 244.000000 L 295.944336 244.000000 L 295.944336 237.984375 L 296.937988 237.984375 L 296.937988 239.160645 Q 297.185059 238.521484 297.697998 238.180420 Q 298.210938 237.839355 298.914551 237.839355 Q 299.279785 237.839355 299.596680 237.930664 Q 299.913574 238.021973 300.203613 238.215332 Z " fill="rgb(0, 0, 0)" fill-opacity="1.000000" />
<path d="M 359.878906 234.319336 L 359.878906 220.300781 L 360.738281 220.300781 L 360.738281 234.319336 Z " fill="rgb(0, 0, 0)" fill-opacity="1.000000" />
<path d="M 249.930664 201.997559 Q 249.930664 200.848145 249.565430 200.262695 Q 249.200195 199.677246 248.485840 199.677246 Q 247.766113 199.677246 247.395508 200.265381 Q 247.024902 200.853516 247.024902 201.997559 Q 247.024902 203.136230 247.395508 203.727051 Q 247.766113 204.317871 248.485840 204.317871 Q 249.200195 204.317871 249.565430 203.732422 Q 249.930664 203.146973 249.930664 201.997559 Z M 247.024902 199.752441 Q 247.261230 199.312012 247.677490 199.075684 Q 248.093750 198.839355 248.641602 198.839355 Q 249.726562 198.839355 250.349609 199.674561 Q 250.972656 200.509766 250.972656 201.976074 Q 250.972656 203.463867 250.346924 204.309814 Q 249.721191 205.155762 248.630859 205.155762 Q 248.093750 205.155762 247.682861 204.922119 Q 247.271973 204.688477 247.024902 204.242676 L 247.024902 205.000000 L 246.036621 205.000000 L 246.036621 196.642578 L 247.024902 196.642578 Z " fill="rgb(0, 0, 0)" fill-opacity="1.000000" />
<path d="M 257.226074 199.193848 L 257.226074 200.160645 Q 256.801758 199.913574 256.372070 199.790039 Q 255.942383 199.666504 255.496582 199.666504 Q 254.825195 199.666504 254.494873 199.884033 Q 254.164551 200.101562 254.164551 200.547363 Q 254.164551 200.950195 254.411621 201.148926 Q 254.658691 201.347656 255.641602 201.535645 L 256.039062 201.610840 Q 256.774902 201.750488 257.153564 202.169434 Q 257.532227 202.588379 257.532227 203.259766 Q 257.532227 204.151367 256.898438 204.653564 Q 256.264648 205.155762 255.136719 205.155762 Q 254.690918 205.155762 254.202148 205.061768 Q 253.713379 204.967773 253.144043 204.779785 L 253.144043 203.759277 Q 253.697266 204.043945 254.202148 204.186279 Q 254.707031 204.328613 255.158203 204.328613 Q 255.813477 204.328613 256.173340 204.062744 Q 256.533203 203.796875 256.533203 203.318848 Q 256.533203 202.631348 255.217285 202.368164 L 255.174316 202.357422 L 254.803711 202.282227 Q 253.949707 202.115723 253.557617 201.720947 Q 253.165527 201.326172 253.165527 200.644043 Q 253.165527 199.779297 253.750977 199.309326 Q 254.336426 198.839355 255.421387 198.839355 Q 255.904785 198.839355 256.350586 198.927979 Q 256.796387 199.016602 257.226074 199.193848 Z " fill="rgb(0, 0, 0)" fill-opacity="1.000000" />
<path d="M 265.015625 201.498047 L 265.015625 201.981445 L 260.734863 201.981445 L 260.734863 202.013672 Q 260.691895 203.243652 261.204834 203.780762 Q 261.717773 204.317871 262.652344 204.317871 Q 263.125000 204.317871 263.640625 204.167480 Q 264.156250 204.017090 264.741699 203.710938 L 264.741699 204.693848 Q 264.177734 204.924805 263.654053 205.040283 Q 263.130371 205.155762 262.641602 205.155762 Q 261.239746 205.155762 260.450195 204.315186 Q 259.660645 203.474609 259.660645 201.997559 Q 259.660645 200.558105 260.434082 199.698730 Q 261.207520 198.839355 262.496582 198.839355 Q 263.645996 198.839355 264.309326 199.618164 Q 264.972656 200.396973 265.015625 201.498047 Z M 264.027344 201.208008 Q 263.962891 200.584961 263.573486 200.131104 Q 263.184082 199.677246 262.453613 199.677246 Q 261.739258 199.677246 261.277344 200.149902 Q 260.815430 200.622559 260.772461 201.213379 Z " fill="rgb(0, 0, 0)" fill-opacity="1.000000" />
<path d="M 272.203613 200.225098 Q 271.886719 199.978027 271.559082 199.865234 Q 271.231445 199.752441 270.839355 199.752441 Q 269.915527 199.752441 269.426758 200.332520 Q 268.937988 200.912598 268.937988 202.008301 L 268.937988 205.000000 L 267.944336 205.000000 L 267.944336 198.984375 L 268.937988 198.984375 L 268.937988 200.160645 Q 269.185059 199.521484 269.697998 199.180420 Q 270.210938 198.839355 270.914551 198.839355 Q 271.279785 198.839355 271.596680 198.930664 Q 271.913574 199.021973 272.203613 199.215332 Z " fill="rgb(0, 0, 0)" fill-opacity="1.000000" />
<path d="M 273.537109 198.984375 L 274.562988 198.984375 L 276.308594 204.033203 L 278.059570 198.984375 L 279.085449 198.984375 L 276.947754 205.000000 L 275.674805 205.000000 Z " fill="rgb(0, 0, 0)" fill-opacity="1.000000" />
<path d="M 286.015625 201.498047 L 286.015625 201.981445 L 281.734863 201.981445 L 281.734863 202.013672 Q 281.691895 203.243652 282.204834 203.780762 Q 282.717773 204.317871 283.652344 204.317871 Q 284.125000 204.317871 284.640625 204.167480 Q 285.156250 204.017090 285.741699 203.710938 L 285.741699 204.693848 Q 285.177734 204.924805 284.654053 205.040283 Q 284.130371 205.155762 283.641602 205.155762 Q 282.239746 205.155762 281.450195 204.315186 Q 280.660645 203.474609 280.660645 201.997559 Q 280.660645 200.558105 281.434082 199.698730 Q 282.207520 198.839355 283.496582 198.839355 Q 284.645996 198.839355 285.309326 199.618164 Q 285.972656 200.396973 286.015625 201.498047 Z M 285.027344 201.208008 Q 284.962891 200.584961 284.573486 200.131104 Q 284.184082 199.677246 283.453613 199.677246 Q 282.739258 199.677246 282.277344 200.149902 Q 281.815430 200.622559 281.772461 201.213379 Z " fill="rgb(0, 0, 0)" fill-opacity="1.000000" />
<path d="M 292.226074 199.193848 L 292.226074 200.160645 Q 291.801758 199.913574 291.372070 199.790039 Q 290.942383 199.666504 290.496582 199.666504 Q 289.825195 199.666504 289.494873 199.884033 Q 289.164551 200.101562 289.164551 200.547363 Q 289.164551 200.950195 289.411621 201.148926 Q 289.658691 201.347656 290.641602 201.535645 L 291.039062 201.610840 Q 291.774902 201.750488 292.153564 202.169434 Q 292.532227 202.588379 292.532227 203.259766 Q 292.532227 204.151367 291.898438 204.653564 Q 291.264648 205.155762 290.136719 205.155762 Q 289.690918 205.155762 289.202148 205.061768 Q 288.713379 204.967773 288.144043 204.779785 L 288.144043 203.759277 Q 288.697266 204.043945 289.202148 204.186279 Q 289.707031 204.328613 290.158203 204.328613 Q 290.813477 204.328613 291.173340 204.062744 Q 291.533203 203.796875 291.533203 203.318848 Q 291.533203 202.631348 290.217285 202.368164 L 290.174316 202.357422 L 289.803711 202.282227 Q 288.949707 202.115723 288.557617 201.720947 Q 288.165527 201.326172 288.165527 200.644043 Q 288.165527 199.779297 288.750977 199.309326 Q 289.336426 198.839355 290.421387 198.839355 Q 290.904785 198.839355 291.350586 198.927979 Q 291.796387 199.016602 292.226074 199.193848 Z " fill="rgb(0, 0, 0)" fill-opacity="1.000000" />
<path d="M 303.003418 204.086914 L 306.687988 204.086914 L 306.687988 205.000000 L 301.816406 205.000000 L 301.816406 204.086914 Q 302.820801 203.028809 303.572754 202.217773 Q 304.324707 201.406738 304.609375 201.073730 Q 305.146484 200.418457 305.334473 200.012939 Q 305.522461 199.607422 305.522461 199.183105 Q 305.522461 198.511719 305.127686 198.130371 Q 304.732910 197.749023 304.045410 197.749023 Q 303.556641 197.749023 303.019531 197.926270 Q 302.482422 198.103516 301.880859 198.463379 L 301.880859 197.367676 Q 302.434082 197.104492 302.968506 196.970215 Q 303.502930 196.835938 304.023926 196.835938 Q 305.200195 196.835938 305.917236 197.461670 Q 306.634277 198.087402 306.634277 199.102539 Q 306.634277 199.618164 306.395264 200.133789 Q 306.156250 200.649414 305.619141 201.272461 Q 305.318359 201.621582 304.746338 202.239258 Q 304.174316 202.856934 303.003418 204.086914 Z " fill="rgb(0, 0, 0)" fill-opacity="1.000000" />
<path d="M 307.892578 202.335938 L 307.892578 201.412109 L 314.729980 201.412109 L 314.729980 202.335938 Z " fill="rgb(0, 0, 0)" fill-opacity="1.000000" />
<path d="M 314.892578 202.335938 L 314.892578 201.412109 L 321.729980 201.412109 L 321.729980 202.335938 Z " fill="rgb(0, 0, 0)" fill-opacity="1.000000" />
<path d="M 321.892578 202.335938 L 321.892578 201.412109 L 328.729980 201.412109 L 328.729980 202.335938 Z " fill="rgb(0, 0, 0)" fill-opacity="1.000000" />
<path d="M 328.892578 202.335938 L 328.892578 201.412109 L 335.729980 201.412109 L 335.729980 202.335938 Z " fill="rgb(0, 0, 0)" fill-opacity="1.000000" />
<path d="M 335.892578 202.335938 L 335.892578 201.412109 L 342.729980 201.412109 L 342.729980 202.335938 Z " fill="rgb(0, 0, 0)" fill-opacity="1.000000" />
<path d="M 342.892578 202.335938 L 342.892578 201.412109 L 349.729980 201.412109 L 349.729980 202.335938 Z " fill="rgb(0, 0, 0)" fill-opacity="1.000000" />
<path d="M 349.892578 202.335938 L 349.892578 201.412109 L 356.729980 201.412109 L 356.729980 202.335938 Z " fill="rgb(0, 0, 0)" fill-opacity="1.000000" />
<path d="M 359.878906 208.319336 L 359.878906 202.335938 L 356.892578 202.335938 L 356.892578 201.412109 L 359.878906 201.412109 L 359.878906 194.300781 L 360.738281 194.300781 L 360.738281 208.319336 Z " fill="rgb(0, 0, 0)" fill-opacity="1.000000" />
<path d="M 129.308594 186.677246 Q 128.556641 186.677246 128.169922 187.262695 Q 127.783203 187.848145 127.783203 188.997559 Q 127.783203 190.141602 128.169922 190.729736 Q 128.556641 191.317871 129.308594 191.317871 Q 130.065918 191.317871 130.452637 190.729736 Q 130.839355 190.141602 130.839355 188.997559 Q 130.839355 187.848145 130.452637 187.262695 Q 130.065918 186.677246 129.308594 186.677246 Z M 129.308594 185.839355 Q 130.560059 185.839355 131.223389 186.650391 Q 131.886719 187.461426 131.886719 188.997559 Q 131.886719 190.539062 131.226074 191.347412 Q 130.565430 192.155762 129.308594 192.155762 Q 128.057129 192.155762 127.396484 191.347412 Q 126.735840 190.539062 126.735840 188.997559 Q 126.735840 187.461426 127.396484 186.650391 Q 128.057129 185.839355 129.308594 185.839355 Z " fill="rgb(0, 0, 0)" fill-opacity="1.000000" />
<path d="M 136.630859 186.596680 Q 136.813477 186.209961 137.095459 186.024658 Q 137.377441 185.839355 137.774902 185.839355 Q 138.500000 185.839355 138.798096 186.400635 Q 139.096191 186.961914 139.096191 188.514160 L 139.096191 192.000000 L 138.193848 192.000000 L 138.193848 188.557129 Q 138.193848 187.284180 138.051514 186.975342 Q 137.909180 186.666504 137.533203 186.666504 Q 137.103516 186.666504 136.945068 186.996826 Q 136.786621 187.327148 136.786621 188.557129 L 136.786621 192.000000 L 135.884277 192.000000 L 135.884277 188.557129 Q 135.884277 187.268066 135.731201 186.967285 Q 135.578125 186.666504 135.180664 186.666504 Q 134.788574 186.666504 134.635498 186.996826 Q 134.482422 187.327148 134.482422 188.557129 L 134.482422 192.000000 L 133.585449 192.000000 L 133.585449 185.984375 L 134.482422 185.984375 L 134.482422 186.500000 Q 134.659668 186.177734 134.925537 186.008545 Q 135.191406 185.839355 135.529785 185.839355 Q 135.937988 185.839355 136.209229 186.027344 Q 136.480469 186.215332 136.630859 186.596680 Z " fill="rgb(0, 0, 0)" fill-opacity="1.000000" />
<path d="M 143.630859 186.596680 Q 143.813477 186.209961 144.095459 186.024658 Q 144.377441 185.839355 144.774902 185.839355 Q 145.500000 185.839355 145.798096 186.400635 Q 146.096191 186.961914 146.096191 188.514160 L 146.096191 192.000000 L 145.193848 192.000000 L 145.193848 188.557129 Q 145.193848 187.284180 145.051514 186.975342 Q 144.909180 186.666504 144.533203 186.666504 Q 144.103516 186.666504 143.945068 186.996826 Q 143.786621 187.327148 143.786621 188.557129 L 143.786621 192.000000 L 142.884277 192.000000 L 142.884277 188.557129 Q 142.884277 187.268066 142.731201 186.967285 Q 142.578125 186.666504 142.180664 186.666504 Q 141.788574 186.666504 141.635498 186.996826 Q 141.482422 187.327148 141.482422 188.557129 L 141.482422 192.000000 L 140.585449 192.000000 L 140.585449 185.984375 L 141.482422 185.984375 L 141.482422 186.500000 Q 141.659668 186.177734 141.925537 186.008545 Q 142.191406 185.839355 142.529785 185.839355 Q 142.937988 185.839355 143.209229 186.027344 Q 143.480469 186.215332 143.630859 186.596680 Z " fill="rgb(0, 0, 0)" fill-opacity="1.000000" />
<path d="M 148.697266 186.005859 L 151.227051 186.005859 L 151.227051 191.231934 L 153.187500 191.231934 L 153.187500 192.000000 L 148.278320 192.000000 L 148.278320 191.231934 L 150.238770 191.231934 L 150.238770 186.773926 L 148.697266 186.773926 Z M 150.238770 183.669434 L 151.227051 183.669434 L 151.227051 184.915527 L 150.238770 184.915527 Z " fill="rgb(0, 0, 0)" fill-opacity="1.000000" />
<path d="M 157.297852 184.276367 L 157.297852 185.984375 L 159.542969 185.984375 L 159.542969 186.752441 L 157.297852 186.752441 L 157.297852 190.018066 Q 157.297852 190.684082 157.550293 190.947266 Q 157.802734 191.210449 158.431152 191.210449 L 159.542969 191.210449 L 159.542969 192.000000 L 158.334473 192.000000 Q 157.222656 192.000000 156.766113 191.554199 Q 156.309570 191.108398 156.309570 190.018066 L 156.309570 186.752441 L 154.703613 186.752441 L 154.703613 185.984375 L 156.309570 185.984375 L 156.309570 184.276367 Z " fill="rgb(0, 0, 0)" fill-opacity="1.000000" />
<path d="M 160.892578 189.335938 L 160.892578 188.412109 L 167.729980 188.412109 L 167.729980 189.335938 Z " fill="rgb(0, 0, 0)" fill-opacity="1.000000" />
<path d="M 167.892578 189.335938 L 167.892578 188.412109 L 174.729980 188.412109 L 174.729980 189.335938 Z " fill="rgb(0, 0, 0)" fill-opacity="1.000000" />
<path d="M 175.032227 192.418945 L 175.032227 185.866211 L 181.590332 189.142578 Z " fill="rgb(0, 0, 0)" fill-opacity="1.000000" />
<path d="M 192.308594 192.418945 L 189.032227 185.866211 L 195.590332 185.866211 Z " fill="rgb(0, 0, 0)" fill-opacity="1.000000" />
<path d="M 191.878906 169.319336 L 191.878906 155.300781 L 192.738281 155.300781 L 192.738281 169.319336 Z " fill="rgb(0, 0, 0)" fill-opacity="1.000000" />
<path d="M 191.878906 182.319336 L 191.878906 168.300781 L 192.738281 168.300781 L 192.738281 182.319336 Z " fill="rgb(0, 0, 0)" fill-opacity="1.000000" />
<path d="M 359.878906 182.319336 L 359.878906 168.300781 L 360.738281 168.300781 L 360.738281 182.319336 Z " fill="rgb(0, 0, 0)" fill-opacity="1.000000" />
<path d="M 71.450195 152.092285 L 73.136719 152.092285 L 73.136719 146.033691 L 71.117188 147.005859 L 71.117188 145.963867 L 73.125977 145.007812 L 74.210938 145.007812 L 74.210938 152.092285 L 75.875977 152.092285 L 75.875977 153.000000 L 71.450195 153.000000 Z " fill="rgb(0, 0, 0)" fill-opacity="1.000000" />
<path d="M 191.878906 156.319336 L 191.878906 142.300781 L 192.738281 142.300781 L 192.738281 156.319336 Z " fill="rgb(0, 0, 0)" fill-opacity="1.000000" />
<path d="M 359.878906 156.319336 L 359.878906 142.300781 L 360.738281 142.300781 L 360.738281 156.319336 Z " fill="rgb(0, 0, 0)" fill-opacity="1.000000" />
<path d="M 72.878906 78.319336 L 72.878906 64.300781 L 73.738281 64.300781 L 73.738281 78.319336 Z " fill="rgb(0, 0, 0)" fill-opacity="1.000000" />
<path d="M 72.878906 91.319336 L 72.878906 77.300781 L 73.738281 77.300781 L 73.738281 91.319336 Z " fill="rgb(0, 0, 0)" fill-opacity="1.000000" />
<path d="M 72.878906 104.319336 L 72.878906 90.300781 L 73.738281 90.300781 L 73.738281 104.319336 Z " fill="rgb(0, 0, 0)" fill-opacity="1.000000" />
<path d="M 72.878906 117.319336 L 72.878906 103.300781 L 73.738281 103.300781 L 73.738281 117.319336 Z " fill="rgb(0, 0, 0)" fill-opacity="1.000000" />
<path d="M 72.878906 130.319336 L 72.878906 116.300781 L 73.738281 116.300781 L 73.738281 130.319336 Z " fill="rgb(0, 0, 0)" fill-opacity="1.000000" />
<path d="M 72.878906 143.319336 L 72.878906 129.300781 L 73.738281 129.300781 L 73.738281 143.319336 Z " fill="rgb(0, 0, 0)" fill-opacity="1.000000" />
<path d="M 131.435547 106.254883 L 131.435547 107.355957 Q 130.941406 107.039062 130.444580 106.877930 Q 129.947754 106.716797 129.442871 106.716797 Q 128.674805 106.716797 128.229004 107.073975 Q 127.783203 107.431152 127.783203 108.038086 Q 127.783203 108.569824 128.075928 108.849121 Q 128.368652 109.128418 129.168945 109.316406 L 129.738281 109.445312 Q 130.866211 109.708496 131.381836 110.272461 Q 131.897461 110.836426 131.897461 111.808594 Q 131.897461 112.952637 131.188477 113.554199 Q 130.479492 114.155762 129.125977 114.155762 Q 128.562012 114.155762 127.992676 114.034912 Q 127.423340 113.914062 126.848633 113.672363 L 126.848633 112.517578 Q 127.466309 112.909668 128.016846 113.092285 Q 128.567383 113.274902 129.125977 113.274902 Q 129.947754 113.274902 130.404297 112.906982 Q 130.860840 112.539062 130.860840 111.878418 Q 130.860840 111.276855 130.546631 110.959961 Q 130.232422 110.643066 129.453613 110.471191 L 128.873535 110.336914 Q 127.756348 110.084473 127.251465 109.574219 Q 126.746582 109.063965 126.746582 108.204590 Q 126.746582 107.130371 127.468994 106.483154 Q 128.191406 105.835938 129.389160 105.835938 Q 129.851074 105.835938 130.361328 105.940674 Q 130.871582 106.045410 131.435547 106.254883 Z " fill="rgb(0, 0, 0)" fill-opacity="1.000000" />
<path d="M 182.252441 131.980957 L 188.370117 131.980957 L 188.370117 132.894043 L 185.861816 132.894043 L 185.861816 140.000000 L 184.771484 140.000000 L 184.771484 132.894043 L 182.252441 132.894043 Z " fill="rgb(0, 0, 0)" fill-opacity="1.000000" />
<path d="M 191.003418 139.086914 L 194.687988 139.086914 L 194.687988 140.000000 L 189.816406 140.000000 L 189.816406 139.086914 Q 190.820801 138.028809 191.572754 137.217773 Q 192.324707 136.406738 192.609375 136.073730 Q 193.146484 135.418457 193.334473 135.012939 Q 193.522461 134.607422 193.522461 134.183105 Q 193.522461 133.511719 193.127686 133.130371 Q 192.732910 132.749023 192.045410 132.749023 Q 191.556641 132.749023 191.019531 132.926270 Q 190.482422 133.103516 189.880859 133.463379 L 189.880859 132.367676 Q 190.434082 132.104492 190.968506 131.970215 Q 191.502930 131.835938 192.023926 131.835938 Q 193.200195 131.835938 193.917236 132.461670 Q 194.634277 133.087402 194.634277 134.102539 Q 194.634277 134.618164 194.395264 135.133789 Q 194.156250 135.649414 193.619141 136.272461 Q 193.318359 136.621582 192.746338 137.239258 Q 192.174316 137.856934 191.003418 139.086914 Z " fill="rgb(0, 0, 0)" fill-opacity="1.000000" />
<path d="M 191.878906 130.319336 L 191.878906 116.300781 L 192.738281 116.300781 L 192.738281 130.319336 Z " fill="rgb(0, 0, 0)" fill-opacity="1.000000" />
<path d="M 359.878906 130.319336 L 359.878906 116.300781 L 360.738281 116.300781 L 360.738281 130.319336 Z " fill="rgb(0, 0, 0)" fill-opacity="1.000000" />
<path d="M 139.015625 110.498047 L 139.015625 110.981445 L 134.734863 110.981445 L 134.734863 111.013672 Q 134.691895 112.243652 135.204834 112.780762 Q 135.717773 113.317871 136.652344 113.317871 Q 137.125000 113.317871 137.640625 113.167480 Q 138.156250 113.017090 138.741699 112.710938 L 138.741699 113.693848 Q 138.177734 113.924805 137.654053 114.040283 Q 137.130371 114.155762 136.641602 114.155762 Q 135.239746 114.155762 134.450195 113.315186 Q 133.660645 112.474609 133.660645 110.997559 Q 133.660645 109.558105 134.434082 108.698730 Q 135.207520 107.839355 136.496582 107.839355 Q 137.645996 107.839355 138.309326 108.618164 Q 138.972656 109.396973 139.015625 110.498047 Z M 138.027344 110.208008 Q 137.962891 109.584961 137.573486 109.131104 Q 137.184082 108.677246 136.453613 108.677246 Q 135.739258 108.677246 135.277344 109.149902 Q 134.815430 109.622559 134.772461 110.213379 Z " fill="rgb(0, 0, 0)" fill-opacity="1.000000" />
<path d="M 141.783203 111.019043 Q 141.783203 112.168457 142.145752 112.753906 Q 142.508301 113.339355 143.222656 113.339355 Q 143.937012 113.339355 144.304932 112.751221 Q 144.672852 112.163086 144.672852 111.019043 Q 144.672852 109.875000 144.304932 109.286865 Q 143.937012 108.698730 143.222656 108.698730 Q 142.508301 108.698730 142.145752 109.284180 Q 141.783203 109.869629 141.783203 111.019043 Z M 144.672852 113.253418 Q 144.431152 113.699219 144.020264 113.938232 Q 143.609375 114.177246 143.066895 114.177246 Q 141.987305 114.177246 141.361572 113.342041 Q 140.735840 112.506836 140.735840 111.040527 Q 140.735840 109.547363 141.358887 108.704102 Q 141.981934 107.860840 143.066895 107.860840 Q 143.604004 107.860840 144.014893 108.094482 Q 144.425781 108.328125 144.672852 108.773926 L 144.672852 108.005859 L 145.666504 108.005859 L 145.666504 116.309570 L 144.672852 116.309570 Z " fill="rgb(0, 0, 0)" fill-opacity="1.000000" />
<path d="M 149.089355 111.830078 L 150.979980 111.830078 L 150.979980 114.000000 L 149.089355 114.000000 Z " fill="rgb(0, 0, 0)" fill-opacity="1.000000" />
<path d="M 163.003418 113.086914 L 166.687988 113.086914 L 166.687988 114.000000 L 161.816406 114.000000 L 161.816406 113.086914 Q 162.820801 112.028809 163.572754 111.217773 Q 164.324707 110.406738 164.609375 110.073730 Q 165.146484 109.418457 165.334473 109.012939 Q 165.522461 108.607422 165.522461 108.183105 Q 165.522461 107.511719 165.127686 107.130371 Q 164.732910 106.749023 164.045410 106.749023 Q 163.556641 106.749023 163.019531 106.926270 Q 162.482422 107.103516 161.880859 107.463379 L 161.880859 106.367676 Q 162.434082 106.104492 162.968506 105.970215 Q 163.502930 105.835938 164.023926 105.835938 Q 165.200195 105.835938 165.917236 106.461670 Q 166.634277 107.087402 166.634277 108.102539 Q 166.634277 108.618164 166.395264 109.133789 Q 166.156250 109.649414 165.619141 110.272461 Q 165.318359 110.621582 164.746338 111.239258 Q 164.174316 111.856934 163.003418 113.086914 Z " fill="rgb(0, 0, 0)" fill-opacity="1.000000" />
<path d="M 167.892578 111.335938 L 167.892578 110.412109 L 174.729980 110.412109 L 174.729980 111.335938 Z " fill="rgb(0, 0, 0)" fill-opacity="1.000000" />
<path d="M 174.892578 111.335938 L 174.892578 110.412109 L 181.729980 110.412109 L 181.729980 111.335938 Z " fill="rgb(0, 0, 0)" fill-opacity="1.000000" />
<path d="M 182.032227 114.418945 L 182.032227 107.866211 L 188.590332 111.142578 Z " fill="rgb(0, 0, 0)" fill-opacity="1.000000" />
<path d="M 191.878906 117.319336 L 191.878906 103.300781 L 192.738281 103.300781 L 192.738281 117.319336 Z " fill="rgb(0, 0, 0)" fill-opacity="1.000000" />
<path d="M 190.670410 100.978516 Q 189.032227 100.033203 189.032227 98.142578 Q 189.032227 96.251953 190.670410 95.306641 Q 191.486816 94.833984 192.308594 94.833984 Q 193.125000 94.833984 193.946777 95.306641 Q 195.590332 96.251953 195.590332 98.142578 Q 195.590332 100.033203 193.946777 100.978516 Q 193.125000 101.451172 192.308594 101.451172 Q 191.486816 101.451172 190.670410 100.978516 Z " fill="rgb(0, 0, 0)" fill-opacity="1.000000" />
<path d="M 359.878906 104.319336 L 359.878906 90.300781 L 360.738281 90.300781 L 360.738281 104.319336 Z " fill="rgb(0, 0, 0)" fill-opacity="1.000000" />
<path d="M 246.697266 69.005859 L 249.227051 69.005859 L 249.227051 74.231934 L 251.187500 74.231934 L 251.187500 75.000000 L 246.278320 75.000000 L 246.278320 74.231934 L 248.238770 74.231934 L 248.238770 69.773926 L 246.697266 69.773926 Z M 248.238770 66.669434 L 249.227051 66.669434 L 249.227051 67.915527 L 248.238770 67.915527 Z " fill="rgb(0, 0, 0)" fill-opacity="1.000000" />
<path d="M 255.297852 67.276367 L 255.297852 68.984375 L 257.542969 68.984375 L 257.542969 69.752441 L 255.297852 69.752441 L 255.297852 73.018066 Q 255.297852 73.684082 255.550293 73.947266 Q 255.802734 74.210449 256.431152 74.210449 L 257.542969 74.210449 L 257.542969 75.000000 L 256.334473 75.000000 Q 255.222656 75.000000 254.766113 74.554199 Q 254.309570 74.108398 254.309570 73.018066 L 254.309570 69.752441 L 252.703613 69.752441 L 252.703613 68.984375 L 254.309570 68.984375 L 254.309570 67.276367 Z " fill="rgb(0, 0, 0)" fill-opacity="1.000000" />
<path d="M 265.015625 71.498047 L 265.015625 71.981445 L 260.734863 71.981445 L 260.734863 72.013672 Q 260.691895 73.243652 261.204834 73.780762 Q 261.717773 74.317871 262.652344 74.317871 Q 263.125000 74.317871 263.640625 74.167480 Q 264.156250 74.017090 264.741699 73.710938 L 264.741699 74.693848 Q 264.177734 74.924805 263.654053 75.040283 Q 263.130371 75.155762 262.641602 75.155762 Q 261.239746 75.155762 260.450195 74.315186 Q 259.660645 73.474609 259.660645 71.997559 Q 259.660645 70.558105 260.434082 69.698730 Q 261.207520 68.839355 262.496582 68.839355 Q 263.645996 68.839355 264.309326 69.618164 Q 264.972656 70.396973 265.015625 71.498047 Z M 264.027344 71.208008 Q 263.962891 70.584961 263.573486 70.131104 Q 263.184082 69.677246 262.453613 69.677246 Q 261.739258 69.677246 261.277344 70.149902 Q 260.815430 70.622559 260.772461 71.213379 Z " fill="rgb(0, 0, 0)" fill-opacity="1.000000" />
<path d="M 269.630859 69.596680 Q 269.813477 69.209961 270.095459 69.024658 Q 270.377441 68.839355 270.774902 68.839355 Q 271.500000 68.839355 271.798096 69.400635 Q 272.096191 69.961914 272.096191 71.514160 L 272.096191 75.000000 L 271.193848 75.000000 L 271.193848 71.557129 Q 271.193848 70.284180 271.051514 69.975342 Q 270.909180 69.666504 270.533203 69.666504 Q 270.103516 69.666504 269.945068 69.996826 Q 269.786621 70.327148 269.786621 71.557129 L 269.786621 75.000000 L 268.884277 75.000000 L 268.884277 71.557129 Q 268.884277 70.268066 268.731201 69.967285 Q 268.578125 69.666504 268.180664 69.666504 Q 267.788574 69.666504 267.635498 69.996826 Q 267.482422 70.327148 267.482422 71.557129 L 267.482422 75.000000 L 266.585449 75.000000 L 266.585449 68.984375 L 267.482422 68.984375 L 267.482422 69.500000 Q 267.659668 69.177734 267.925537 69.008545 Q 268.191406 68.839355 268.529785 68.839355 Q 268.937988 68.839355 269.209229 69.027344 Q 269.480469 69.215332 269.630859 69.596680 Z " fill="rgb(0, 0, 0)" fill-opacity="1.000000" />
<path d="M 280.472656 69.838379 L 280.472656 68.860840 L 286.149902 71.105957 L 286.149902 71.997559 L 280.472656 74.242676 L 280.472656 73.259766 L 285.038086 71.557129 Z " fill="rgb(0, 0, 0)" fill-opacity="1.000000" />
<path d="M 297.308594 66.862793 Q 298.592285 66.862793 299.250244 67.910156 Q 299.908203 68.957520 299.908203 71.009277 Q 299.908203 73.061035 299.250244 74.108398 Q 298.592285 75.155762 297.308594 75.155762 Q 296.024902 75.155762 295.369629 74.108398 Q 294.714355 73.061035 294.714355 71.009277 Q 294.714355 68.957520 295.369629 67.910156 Q 296.024902 66.862793 297.308594 66.862793 Z M 297.308594 74.296387 Q 298.071289 74.296387 298.444580 73.485352 Q 298.817871 72.674316 298.817871 71.009277 Q 298.817871 70.123047 298.710449 69.408691 L 296.153809 73.410156 Q 296.556641 74.296387 297.308594 74.296387 Z M 297.308594 67.722168 Q 296.551270 67.722168 296.177979 68.533203 Q 295.804688 69.344238 295.804688 71.009277 Q 295.804688 71.766602 295.906738 72.427246 L 298.409668 68.436523 Q 298.001465 67.722168 297.308594 67.722168 Z " fill="rgb(0, 0, 0)" fill-opacity="1.000000" />
<path d="M 307.892578 72.335938 L 307.892578 71.412109 L 314.729980 71.412109 L 314.729980 72.335938 Z " fill="rgb(0, 0, 0)" fill-opacity="1.000000" />
<path d="M 314.892578 72.335938 L 314.892578 71.412109 L 321.729980 71.412109 L 321.729980 72.335938 Z " fill="rgb(0, 0, 0)" fill-opacity="1.000000" />
<path d="M 321.892578 72.335938 L 321.892578 71.412109 L 328.729980 71.412109 L 328.729980 72.335938 Z " fill="rgb(0, 0, 0)" fill-opacity="1.000000" />
<path d="M 328.892578 72.335938 L 328.892578 71.412109 L 335.729980 71.412109 L 335.729980 72.335938 Z " fill="rgb(0, 0, 0)" fill-opacity="1.000000" />
<path d="M 335.892578 72.335938 L 335.892578 71.412109 L 342.729980 71.412109 L 342.729980 72.335938 Z " fill="rgb(0, 0, 0)" fill-opacity="1.000000" />
<path d="M 342.892578 72.335938 L 342.892578 71.412109 L 349.729980 71.412109 L 349.729980 72.335938 Z " fill="rgb(0, 0, 0)" fill-opacity="1.000000" />
<path d="M 349.892578 72.335938 L 349.892578 71.412109 L 356.729980 71.412109 L 356.729980 72.335938 Z " fill="rgb(0, 0, 0)" fill-opacity="1.000000" />
<path d="M 359.878906 78.319336 L 359.878906 72.335938 L 356.892578 72.335938 L 356.892578 71.412109 L 359.878906 71.412109 L 359.878906 64.300781 L 360.738281 64.300781 L 360.738281 78.319336 Z " fill="rgb(0, 0, 0)" fill-opacity="1.000000" />
<path d="M 13.015625 58.498047 L 13.015625 58.981445 L 8.734863 58.981445 L 8.734863 59.013672 Q 8.691895 60.243652 9.204834 60.780762 Q 9.717773 61.317871 10.652344 61.317871 Q 11.125000 61.317871 11.640625 61.167480 Q 12.156250 61.017090 12.741699 60.710938 L 12.741699 61.693848 Q 12.177734 61.924805 11.654053 62.040283 Q 11.130371 62.155762 10.641602 62.155762 Q 9.239746 62.155762 8.450195 61.315186 Q 7.660645 60.474609 7.660645 58.997559 Q 7.660645 57.558105 8.434082 56.698730 Q 9.207520 55.839355 10.496582 55.839355 Q 11.645996 55.839355 12.309326 56.618164 Q 12.972656 57.396973 13.015625 58.498047 Z M 12.027344 58.208008 Q 11.962891 57.584961 11.573486 57.131104 Q 11.184082 56.677246 10.453613 56.677246 Q 9.739258 56.677246 9.277344 57.149902 Q 8.815430 57.622559 8.772461 58.213379 Z " fill="rgb(0, 0, 0)" fill-opacity="1.000000" />
<path d="M 15.783203 59.019043 Q 15.783203 60.168457 16.145752 60.753906 Q 16.508301 61.339355 17.222656 61.339355 Q 17.937012 61.339355 18.304932 60.751221 Q 18.672852 60.163086 18.672852 59.019043 Q 18.672852 57.875000 18.304932 57.286865 Q 17.937012 56.698730 17.222656 56.698730 Q 16.508301 56.698730 16.145752 57.284180 Q 15.783203 57.869629 15.783203 59.019043 Z M 18.672852 61.253418 Q 18.431152 61.699219 18.020264 61.938232 Q 17.609375 62.177246 17.066895 62.177246 Q 15.987305 62.177246 15.361572 61.342041 Q 14.735840 60.506836 14.735840 59.040527 Q 14.735840 57.547363 15.358887 56.704102 Q 15.981934 55.860840 17.066895 55.860840 Q 17.604004 55.860840 18.014893 56.094482 Q 18.425781 56.328125 18.672852 56.773926 L 18.672852 56.005859 L 19.666504 56.005859 L 19.666504 64.309570 L 18.672852 64.309570 Z " fill="rgb(0, 0, 0)" fill-opacity="1.000000" />
<path d="M 23.089355 59.830078 L 24.979980 59.830078 L 24.979980 62.000000 L 23.089355 62.000000 Z " fill="rgb(0, 0, 0)" fill-opacity="1.000000" />
<path d="M 36.450195 61.092285 L 38.136719 61.092285 L 38.136719 55.033691 L 36.117188 56.005859 L 36.117188 54.963867 L 38.125977 54.007812 L 39.210938 54.007812 L 39.210938 61.092285 L 40.875977 61.092285 L 40.875977 62.000000 L 36.450195 62.000000 Z " fill="rgb(0, 0, 0)" fill-opacity="1.000000" />
<path d="M 41.892578 59.335938 L 41.892578 58.412109 L 48.729980 58.412109 L 48.729980 59.335938 Z " fill="rgb(0, 0, 0)" fill-opacity="1.000000" />
<path d="M 48.892578 59.335938 L 48.892578 58.412109 L 55.729980 58.412109 L 55.729980 59.335938 Z " fill="rgb(0, 0, 0)" fill-opacity="1.000000" />
<path d="M 56.032227 62.418945 L 56.032227 55.866211 L 62.590332 59.142578 Z " fill="rgb(0, 0, 0)" fill-opacity="1.000000" />
<path d="M 72.878906 65.319336 L 72.878906 51.300781 L 73.738281 51.300781 L 73.738281 65.319336 Z " fill="rgb(0, 0, 0)" fill-opacity="1.000000" />
<path d="M 240.143066 54.872559 L 240.143066 57.885742 L 241.399902 57.885742 Q 242.151855 57.885742 242.573486 57.488281 Q 242.995117 57.090820 242.995117 56.376465 Q 242.995117 55.662109 242.576172 55.267334 Q 242.157227 54.872559 241.399902 54.872559 Z M 239.058105 53.980957 L 241.399902 53.980957 Q 242.742676 53.980957 243.435547 54.590576 Q 244.128418 55.200195 244.128418 56.376465 Q 244.128418 57.563477 243.438232 58.170410 Q 242.748047 58.777344 241.399902 58.777344 L 240.143066 58.777344 L 240.143066 62.000000 L 239.058105 62.000000 Z " fill="rgb(0, 0, 0)" fill-opacity="1.000000" />
<path d="M 248.308594 56.677246 Q 247.556641 56.677246 247.169922 57.262695 Q 246.783203 57.848145 246.783203 58.997559 Q 246.783203 60.141602 247.169922 60.729736 Q 247.556641 61.317871 248.308594 61.317871 Q 249.065918 61.317871 249.452637 60.729736 Q 249.839355 60.141602 249.839355 58.997559 Q 249.839355 57.848145 249.452637 57.262695 Q 249.065918 56.677246 248.308594 56.677246 Z M 248.308594 55.839355 Q 249.560059 55.839355 250.223389 56.650391 Q 250.886719 57.461426 250.886719 58.997559 Q 250.886719 60.539062 250.226074 61.347412 Q 249.565430 62.155762 248.308594 62.155762 Q 247.057129 62.155762 246.396484 61.347412 Q 245.735840 60.539062 245.735840 58.997559 Q 245.735840 57.461426 246.396484 56.650391 Q 247.057129 55.839355 248.308594 55.839355 Z " fill="rgb(0, 0, 0)" fill-opacity="1.000000" />
<path d="M 255.861816 59.824707 Q 255.861816 60.490723 256.106201 60.829102 Q 256.350586 61.167480 256.828613 61.167480 L 257.983398 61.167480 L 257.983398 62.000000 L 256.731934 62.000000 Q 255.845703 62.000000 255.359619 61.433350 Q 254.873535 60.866699 254.873535 59.824707 L 254.873535 54.383789 L 253.289062 54.383789 L 253.289062 53.610352 L 255.861816 53.610352 Z " fill="rgb(0, 0, 0)" fill-opacity="1.000000" />
<path d="M 262.861816 59.824707 Q 262.861816 60.490723 263.106201 60.829102 Q 263.350586 61.167480 263.828613 61.167480 L 264.983398 61.167480 L 264.983398 62.000000 L 263.731934 62.000000 Q 262.845703 62.000000 262.359619 61.433350 Q 261.873535 60.866699 261.873535 59.824707 L 261.873535 54.383789 L 260.289062 54.383789 L 260.289062 53.610352 L 262.861816 53.610352 Z " fill="rgb(0, 0, 0)" fill-opacity="1.000000" />
<path d="M 271.226074 56.193848 L 271.226074 57.160645 Q 270.801758 56.913574 270.372070 56.790039 Q 269.942383 56.666504 269.496582 56.666504 Q 268.825195 56.666504 268.494873 56.884033 Q 268.164551 57.101562 268.164551 57.547363 Q 268.164551 57.950195 268.411621 58.148926 Q 268.658691 58.347656 269.641602 58.535645 L 270.039062 58.610840 Q 270.774902 58.750488 271.153564 59.169434 Q 271.532227 59.588379 271.532227 60.259766 Q 271.532227 61.151367 270.898438 61.653564 Q 270.264648 62.155762 269.136719 62.155762 Q 268.690918 62.155762 268.202148 62.061768 Q 267.713379 61.967773 267.144043 61.779785 L 267.144043 60.759277 Q 267.697266 61.043945 268.202148 61.186279 Q 268.707031 61.328613 269.158203 61.328613 Q 269.813477 61.328613 270.173340 61.062744 Q 270.533203 60.796875 270.533203 60.318848 Q 270.533203 59.631348 269.217285 59.368164 L 269.174316 59.357422 L 268.803711 59.282227 Q 267.949707 59.115723 267.557617 58.720947 Q 267.165527 58.326172 267.165527 57.644043 Q 267.165527 56.779297 267.750977 56.309326 Q 268.336426 55.839355 269.421387 55.839355 Q 269.904785 55.839355 270.350586 55.927979 Q 270.796387 56.016602 271.226074 56.193848 Z " fill="rgb(0, 0, 0)" fill-opacity="1.000000" />
<path d="M 285.709473 53.642578 L 285.709473 54.464355 L 284.586914 54.464355 Q 284.055176 54.464355 283.848389 54.681885 Q 283.641602 54.899414 283.641602 55.452637 L 283.641602 55.984375 L 285.709473 55.984375 L 285.709473 56.752441 L 283.641602 56.752441 L 283.641602 62.000000 L 282.653320 62.000000 L 282.653320 56.752441 L 281.047363 56.752441 L 281.047363 55.984375 L 282.653320 55.984375 L 282.653320 55.565430 Q 282.653320 54.577148 283.107178 54.109863 Q 283.561035 53.642578 284.522461 53.642578 Z " fill="rgb(0, 0, 0)" fill-opacity="1.000000" />
<path d="M 290.308594 56.677246 Q 289.556641 56.677246 289.169922 57.262695 Q 288.783203 57.848145 288.783203 58.997559 Q 288.783203 60.141602 289.169922 60.729736 Q 289.556641 61.317871 290.308594 61.317871 Q 291.065918 61.317871 291.452637 60.729736 Q 291.839355 60.141602 291.839355 58.997559 Q 291.839355 57.848145 291.452637 57.262695 Q 291.065918 56.677246 290.308594 56.677246 Z M 290.308594 55.839355 Q 291.560059 55.839355 292.223389 56.650391 Q 292.886719 57.461426 292.886719 58.997559 Q 292.886719 60.539062 292.226074 61.347412 Q 291.565430 62.155762 290.308594 62.155762 Q 289.057129 62.155762 288.396484 61.347412 Q 287.735840 60.539062 287.735840 58.997559 Q 287.735840 57.461426 288.396484 56.650391 Q 289.057129 55.839355 290.308594 55.839355 Z " fill="rgb(0, 0, 0)" fill-opacity="1.000000" />
<path d="M 300.203613 57.225098 Q 299.886719 56.978027 299.559082 56.865234 Q 299.231445 56.752441 298.839355 56.752441 Q 297.915527 56.752441 297.426758 57.332520 Q 296.937988 57.912598 296.937988 59.008301 L 296.937988 62.000000 L 295.944336 62.000000 L 295.944336 55.984375 L 296.937988 55.984375 L 296.937988 57.160645 Q 297.185059 56.521484 297.697998 56.180420 Q 298.210938 55.839355 298.914551 55.839355 Q 299.279785 55.839355 299.596680 55.930664 Q 299.913574 56.021973 300.203613 56.215332 Z " fill="rgb(0, 0, 0)" fill-opacity="1.000000" />
<path d="M 37.878906 13.319336 L 37.878906 6.412109 L 41.729980 6.412109 L 41.729980 7.335938 L 38.738281 7.335938 L 38.738281 13.319336 Z " fill="rgb(0, 0, 0)" fill-opacity="1.000000" />
<path d="M 37.878906 26.319336 L 37.878906 12.300781 L 38.738281 12.300781 L 38.738281 26.319336 Z " fill="rgb(0, 0, 0)" fill-opacity="1.000000" />
<path d="M 37.878906 33.335938 L 37.878906 25.300781 L 38.738281 25.300781 L 38.738281 32.412109 L 41.729980 32.412109 L 41.729980 33.335938 Z " fill="rgb(0, 0, 0)" fill-opacity="1.000000" />
<path d="M 71.670410 48.978516 Q 70.032227 48.033203 70.032227 46.142578 Q 70.032227 44.251953 71.670410 43.306641 Q 72.486816 42.833984 73.308594 42.833984 Q 74.125000 42.833984 74.946777 43.306641 Q 76.590332 44.251953 76.590332 46.142578 Q 76.590332 48.033203 74.946777 48.978516 Q 74.125000 49.451172 73.308594 49.451172 Q 72.486816 49.451172 71.670410 48.978516 Z " fill="rgb(0, 0, 0)" fill-opacity="1.000000" />
<path d="M 359.878906 52.319336 L 359.878906 38.300781 L 360.738281 38.300781 L 360.738281 52.319336 Z " fill="rgb(0, 0, 0)" fill-opacity="1.000000" />
<path d="M 41.892578 33.335938 L 41.892578 32.412109 L 48.729980 32.412109 L 48.729980 33.335938 Z " fill="rgb(0, 0, 0)" fill-opacity="1.000000" />
<path d="M 48.892578 33.335938 L 48.892578 32.412109 L 55.729980 32.412109 L 55.729980 33.335938 Z " fill="rgb(0, 0, 0)" fill-opacity="1.000000" />
<path d="M 55.892578 33.335938 L 55.892578 32.412109 L 62.729980 32.412109 L 62.729980 33.335938 Z " fill="rgb(0, 0, 0)" fill-opacity="1.000000" />
<path d="M 62.892578 33.335938 L 62.892578 32.412109 L 69.729980 32.412109 L 69.729980 33.335938 Z " fill="rgb(0, 0, 0)" fill-opacity="1.000000" />
<path d="M 69.892578 33.335938 L 69.892578 32.412109 L 76.729980 32.412109 L 76.729980 33.335938 Z " fill="rgb(0, 0, 0)" fill-opacity="1.000000" />
<path d="M 76.892578 33.335938 L 76.892578 32.412109 L 83.729980 32.412109 L 83.729980 33.335938 Z " fill="rgb(0, 0, 0)" fill-opacity="1.000000" />
<path d="M 83.892578 33.335938 L 83.892578 32.412109 L 90.729980 32.412109 L 90.729980 33.335938 Z " fill="rgb(0, 0, 0)" fill-opacity="1.000000" />
<path d="M 90.892578 33.335938 L 90.892578 32.412109 L 97.729980 32.412109 L 97.729980 33.335938 Z " fill="rgb(0, 0, 0)" fill-opacity="1.000000" />
<path d="M 97.892578 33.335938 L 97.892578 32.412109 L 100.878906 32.412109 L 100.878906 25.300781 L 101.738281 25.300781 L 101.738281 33.335938 Z " fill="rgb(0, 0, 0)" fill-opacity="1.000000" />
<path d="M 156.878906 33.335938 L 156.878906 25.300781 L 157.738281 25.300781 L 157.738281 32.412109 L 160.729980 32.412109 L 160.729980 33.335938 Z " fill="rgb(0, 0, 0)" fill-opacity="1.000000" />
<path d="M 160.892578 33.335938 L 160.892578 32.412109 L 167.729980 32.412109 L 167.729980 33.335938 Z " fill="rgb(0, 0, 0)" fill-opacity="1.000000" />
<path d="M 167.892578 33.335938 L 167.892578 32.412109 L 174.729980 32.412109 L 174.729980 33.335938 Z " fill="rgb(0, 0, 0)" fill-opacity="1.000000" />
<path d="M 174.892578 33.335938 L 174.892578 32.412109 L 181.729980 32.412109 L 181.729980 33.335938 Z " fill="rgb(0, 0, 0)" fill-opacity="1.000000" />
<path d="M 181.892578 33.335938 L 181.892578 32.412109 L 188.729980 32.412109 L 188.729980 33.335938 Z " fill="rgb(0, 0, 0)" fill-opacity="1.000000" />
<path d="M 188.892578 33.335938 L 188.892578 32.412109 L 195.729980 32.412109 L 195.729980 33.335938 Z " fill="rgb(0, 0, 0)" fill-opacity="1.000000" />
<path d="M 195.892578 33.335938 L 195.892578 32.412109 L 202.729980 32.412109 L 202.729980 33.335938 Z " fill="rgb(0, 0, 0)" fill-opacity="1.000000" />
<path d="M 202.892578 33.335938 L 202.892578 32.412109 L 209.729980 32.412109 L 209.729980 33.335938 Z " fill="rgb(0, 0, 0)" fill-opacity="1.000000" />
<path d="M 209.892578 33.335938 L 209.892578 32.412109 L 216.729980 32.412109 L 216.729980 33.335938 Z " fill="rgb(0, 0, 0)" fill-opacity="1.000000" />
<path d="M 216.892578 33.335938 L 216.892578 32.412109 L 219.878906 32.412109 L 219.878906 25.300781 L 220.738281 25.300781 L 220.738281 33.335938 Z " fill="rgb(0, 0, 0)" fill-opacity="1.000000" />
<path d="M 324.878906 33.335938 L 324.878906 25.300781 L 325.738281 25.300781 L 325.738281 32.412109 L 328.729980 32.412109 L 328.729980 33.335938 Z " fill="rgb(0, 0, 0)" fill-opacity="1.000000" />
<path d="M 328.892578 33.335938 L 328.892578 32.412109 L 335.729980 32.412109 L 335.729980 33.335938 Z " fill="rgb(0, 0, 0)" fill-opacity="1.000000" />
<path d="M 335.892578 33.335938 L 335.892578 32.412109 L 342.729980 32.412109 L 342.729980 33.335938 Z " fill="rgb(0, 0, 0)" fill-opacity="1.000000" />
<path d="M 342.892578 33.335938 L 342.892578 32.412109 L 349.729980 32.412109 L 349.729980 33.335938 Z " fill="rgb(0, 0, 0)" fill-opacity="1.000000" />
<path d="M 349.892578 33.335938 L 349.892578 32.412109 L 356.729980 32.412109 L 356.729980 33.335938 Z " fill="rgb(0, 0, 0)" fill-opacity="1.000000" />
<path d="M 356.892578 33.335938 L 356.892578 32.412109 L 363.729980 32.412109 L 363.729980 33.335938 Z " fill="rgb(0, 0, 0)" fill-opacity="1.000000" />
<path d="M 363.892578 33.335938 L 363.892578 32.412109 L 370.729980 32.412109 L 370.729980 33.335938 Z " fill="rgb(0, 0, 0)" fill-opacity="1.000000" />
<path d="M 370.892578 33.335938 L 370.892578 32.412109 L 377.729980 32.412109 L 377.729980 33.335938 Z " fill="rgb(0, 0, 0)" fill-opacity="1.000000" />
<path d="M 377.892578 33.335938 L 377.892578 32.412109 L 384.729980 32.412109 L 384.729980 33.335938 Z " fill="rgb(0, 0, 0)" fill-opacity="1.000000" />
<path d="M 384.892578 33.335938 L 384.892578 32.412109 L 391.729980 32.412109 L 391.729980 33.335938 Z " fill="rgb(0, 0, 0)" fill-opacity="1.000000" />
<path d="M 391.892578 33.335938 L 391.892578 32.412109 L 394.878906 32.412109 L 394.878906 25.300781 L 395.738281 25.300781 L 395.738281 33.335938 Z " fill="rgb(0, 0, 0)" fill-opacity="1.000000" />
<path d="M 47.763184 22.715332 Q 47.349609 22.935547 46.914551 23.045654 Q 46.479492 23.155762 45.990723 23.155762 Q 44.449219 23.155762 43.597900 22.065430 Q 42.746582 20.975098 42.746582 18.998535 Q 42.746582 17.032715 43.603271 15.934326 Q 44.459961 14.835938 45.990723 14.835938 Q 46.479492 14.835938 46.914551 14.946045 Q 47.349609 15.056152 47.763184 15.276367 L 47.763184 16.388184 Q 47.365723 16.060547 46.909180 15.888672 Q 46.452637 15.716797 45.990723 15.716797 Q 44.932617 15.716797 44.406250 16.533203 Q 43.879883 17.349609 43.879883 18.998535 Q 43.879883 20.642090 44.406250 21.458496 Q 44.932617 22.274902 45.990723 22.274902 Q 46.463379 22.274902 46.917236 22.103027 Q 47.371094 21.931152 47.763184 21.603516 Z " fill="rgb(0, 0, 0)" fill-opacity="1.000000" />
<path d="M 52.861816 20.824707 Q 52.861816 21.490723 53.106201 21.829102 Q 53.350586 22.167480 53.828613 22.167480 L 54.983398 22.167480 L 54.983398 23.000000 L 53.731934 23.000000 Q 52.845703 23.000000 52.359619 22.433350 Q 51.873535 21.866699 51.873535 20.824707 L 51.873535 15.383789 L 50.289062 15.383789 L 50.289062 14.610352 L 52.861816 14.610352 Z " fill="rgb(0, 0, 0)" fill-opacity="1.000000" />
<path d="M 57.697266 17.005859 L 60.227051 17.005859 L 60.227051 22.231934 L 62.187500 22.231934 L 62.187500 23.000000 L 57.278320 23.000000 L 57.278320 22.231934 L 59.238770 22.231934 L 59.238770 17.773926 L 57.697266 17.773926 Z M 59.238770 14.669434 L 60.227051 14.669434 L 60.227051 15.915527 L 59.238770 15.915527 Z " fill="rgb(0, 0, 0)" fill-opacity="1.000000" />
<path d="M 69.015625 19.498047 L 69.015625 19.981445 L 64.734863 19.981445 L 64.734863 20.013672 Q 64.691895 21.243652 65.204834 21.780762 Q 65.717773 22.317871 66.652344 22.317871 Q 67.125000 22.317871 67.640625 22.167480 Q 68.156250 22.017090 68.741699 21.710938 L 68.741699 22.693848 Q 68.177734 22.924805 67.654053 23.040283 Q 67.130371 23.155762 66.641602 23.155762 Q 65.239746 23.155762 64.450195 22.315186 Q 63.660645 21.474609 63.660645 19.997559 Q 63.660645 18.558105 64.434082 17.698730 Q 65.207520 16.839355 66.496582 16.839355 Q 67.645996 16.839355 68.309326 17.618164 Q 68.972656 18.396973 69.015625 19.498047 Z M 68.027344 19.208008 Q 67.962891 18.584961 67.573486 18.131104 Q 67.184082 17.677246 66.453613 17.677246 Q 65.739258 17.677246 65.277344 18.149902 Q 64.815430 18.622559 64.772461 19.213379 Z " fill="rgb(0, 0, 0)" fill-opacity="1.000000" />
<path d="M 75.645020 19.272461 L 75.645020 23.000000 L 74.651367 23.000000 L 74.651367 19.272461 Q 74.651367 18.461426 74.366699 18.080078 Q 74.082031 17.698730 73.475098 17.698730 Q 72.782227 17.698730 72.408936 18.190186 Q 72.035645 18.681641 72.035645 19.600098 L 72.035645 23.000000 L 71.047363 23.000000 L 71.047363 16.984375 L 72.035645 16.984375 L 72.035645 17.886719 Q 72.298828 17.371094 72.750000 17.105225 Q 73.201172 16.839355 73.818848 16.839355 Q 74.737305 16.839355 75.191162 17.443604 Q 75.645020 18.047852 75.645020 19.272461 Z " fill="rgb(0, 0, 0)" fill-opacity="1.000000" />
<path d="M 80.297852 15.276367 L 80.297852 16.984375 L 82.542969 16.984375 L 82.542969 17.752441 L 80.297852 17.752441 L 80.297852 21.018066 Q 80.297852 21.684082 80.550293 21.947266 Q 80.802734 22.210449 81.431152 22.210449 L 82.542969 22.210449 L 82.542969 23.000000 L 81.334473 23.000000 Q 80.222656 23.000000 79.766113 22.554199 Q 79.309570 22.108398 79.309570 21.018066 L 79.309570 17.752441 L 77.703613 17.752441 L 77.703613 16.984375 L 79.309570 16.984375 L 79.309570 15.276367 Z " fill="rgb(0, 0, 0)" fill-opacity="1.000000" />
<path d="M 94.308594 15.937012 L 93.164551 20.040527 L 95.452637 20.040527 Z M 93.653320 14.980957 L 94.969238 14.980957 L 97.423828 23.000000 L 96.301270 23.000000 L 95.710449 20.910645 L 92.901367 20.910645 L 92.321289 23.000000 L 91.198730 23.000000 Z " fill="rgb(0, 0, 0)" fill-opacity="1.000000" />
<path d="M 100.878906 26.319336 L 100.878906 12.300781 L 101.738281 12.300781 L 101.738281 26.319336 Z " fill="rgb(0, 0, 0)" fill-opacity="1.000000" />
<path d="M 156.878906 26.319336 L 156.878906 12.300781 L 157.738281 12.300781 L 157.738281 26.319336 Z " fill="rgb(0, 0, 0)" fill-opacity="1.000000" />
<path d="M 166.763184 22.715332 Q 166.349609 22.935547 165.914551 23.045654 Q 165.479492 23.155762 164.990723 23.155762 Q 163.449219 23.155762 162.597900 22.065430 Q 161.746582 20.975098 161.746582 18.998535 Q 161.746582 17.032715 162.603271 15.934326 Q 163.459961 14.835938 164.990723 14.835938 Q 165.479492 14.835938 165.914551 14.946045 Q 166.349609 15.056152 166.763184 15.276367 L 166.763184 16.388184 Q 166.365723 16.060547 165.909180 15.888672 Q 165.452637 15.716797 164.990723 15.716797 Q 163.932617 15.716797 163.406250 16.533203 Q 162.879883 17.349609 162.879883 18.998535 Q 162.879883 20.642090 163.406250 21.458496 Q 163.932617 22.274902 164.990723 22.274902 Q 165.463379 22.274902 165.917236 22.103027 Q 166.371094 21.931152 166.763184 21.603516 Z " fill="rgb(0, 0, 0)" fill-opacity="1.000000" />
<path d="M 171.861816 20.824707 Q 171.861816 21.490723 172.106201 21.829102 Q 172.350586 22.167480 172.828613 22.167480 L 173.983398 22.167480 L 173.983398 23.000000 L 172.731934 23.000000 Q 171.845703 23.000000 171.359619 22.433350 Q 170.873535 21.866699 170.873535 20.824707 L 170.873535 15.383789 L 169.289062 15.383789 L 169.289062 14.610352 L 171.861816 14.610352 Z " fill="rgb(0, 0, 0)" fill-opacity="1.000000" />
<path d="M 176.697266 17.005859 L 179.227051 17.005859 L 179.227051 22.231934 L 181.187500 22.231934 L 181.187500 23.000000 L 176.278320 23.000000 L 176.278320 22.231934 L 178.238770 22.231934 L 178.238770 17.773926 L 176.697266 17.773926 Z M 178.238770 14.669434 L 179.227051 14.669434 L 179.227051 15.915527 L 178.238770 15.915527 Z " fill="rgb(0, 0, 0)" fill-opacity="1.000000" />
<path d="M 188.015625 19.498047 L 188.015625 19.981445 L 183.734863 19.981445 L 183.734863 20.013672 Q 183.691895 21.243652 184.204834 21.780762 Q 184.717773 22.317871 185.652344 22.317871 Q 186.125000 22.317871 186.640625 22.167480 Q 187.156250 22.017090 187.741699 21.710938 L 187.741699 22.693848 Q 187.177734 22.924805 186.654053 23.040283 Q 186.130371 23.155762 185.641602 23.155762 Q 184.239746 23.155762 183.450195 22.315186 Q 182.660645 21.474609 182.660645 19.997559 Q 182.660645 18.558105 183.434082 17.698730 Q 184.207520 16.839355 185.496582 16.839355 Q 186.645996 16.839355 187.309326 17.618164 Q 187.972656 18.396973 188.015625 19.498047 Z M 187.027344 19.208008 Q 186.962891 18.584961 186.573486 18.131104 Q 186.184082 17.677246 185.453613 17.677246 Q 184.739258 17.677246 184.277344 18.149902 Q 183.815430 18.622559 183.772461 19.213379 Z " fill="rgb(0, 0, 0)" fill-opacity="1.000000" />
<path d="M 194.645020 19.272461 L 194.645020 23.000000 L 193.651367 23.000000 L 193.651367 19.272461 Q 193.651367 18.461426 193.366699 18.080078 Q 193.082031 17.698730 192.475098 17.698730 Q 191.782227 17.698730 191.408936 18.190186 Q 191.035645 18.681641 191.035645 19.600098 L 191.035645 23.000000 L 190.047363 23.000000 L 190.047363 16.984375 L 191.035645 16.984375 L 191.035645 17.886719 Q 191.298828 17.371094 191.750000 17.105225 Q 192.201172 16.839355 192.818848 16.839355 Q 193.737305 16.839355 194.191162 17.443604 Q 194.645020 18.047852 194.645020 19.272461 Z " fill="rgb(0, 0, 0)" fill-opacity="1.000000" />
<path d="M 199.297852 15.276367 L 199.297852 16.984375 L 201.542969 16.984375 L 201.542969 17.752441 L 199.297852 17.752441 L 199.297852 21.018066 Q 199.297852 21.684082 199.550293 21.947266 Q 199.802734 22.210449 200.431152 22.210449 L 201.542969 22.210449 L 201.542969 23.000000 L 200.334473 23.000000 Q 199.222656 23.000000 198.766113 22.554199 Q 198.309570 22.108398 198.309570 21.018066 L 198.309570 17.752441 L 196.703613 17.752441 L 196.703613 16.984375 L 198.309570 16.984375 L 198.309570 15.276367 Z " fill="rgb(0, 0, 0)" fill-opacity="1.000000" />
<path d="M 211.981934 18.955566 L 211.981934 22.108398 L 213.265625 22.108398 Q 214.210938 22.108398 214.613770 21.778076 Q 215.016602 21.447754 215.016602 20.690430 Q 215.016602 19.691406 214.592285 19.323486 Q 214.167969 18.955566 213.265625 18.955566 Z M 211.981934 15.872559 L 211.981934 18.074707 L 213.244141 18.074707 Q 214.028320 18.074707 214.380127 17.773926 Q 214.731934 17.473145 214.731934 17.016602 Q 214.731934 16.409668 214.385498 16.141113 Q 214.039062 15.872559 213.244141 15.872559 Z M 210.891602 14.980957 L 213.265625 14.980957 Q 214.495605 14.980957 215.161621 15.512695 Q 215.827637 16.044434 215.827637 17.016602 Q 215.827637 17.537598 215.475830 17.961914 Q 215.124023 18.386230 214.420410 18.493652 Q 215.209961 18.611816 215.658447 19.167725 Q 216.106934 19.723633 216.106934 20.797852 Q 216.106934 21.888184 215.392578 22.444092 Q 214.678223 23.000000 213.265625 23.000000 L 210.891602 23.000000 Z " fill="rgb(0, 0, 0)" fill-opacity="1.000000" />
<path d="M 219.878906 26.319336 L 219.878906 12.300781 L 220.738281 12.300781 L 220.738281 26.319336 Z " fill="rgb(0, 0, 0)" fill-opacity="1.000000" />
<path d="M 324.878906 26.319336 L 324.878906 12.300781 L 325.738281 12.300781 L 325.738281 26.319336 Z " fill="rgb(0, 0, 0)" fill-opacity="1.000000" />
<path d="M 334.763184 22.715332 Q 334.349609 22.935547 333.914551 23.045654 Q 333.479492 23.155762 332.990723 23.155762 Q 331.449219 23.155762 330.597900 22.065430 Q 329.746582 20.975098 329.746582 18.998535 Q 329.746582 17.032715 330.603271 15.934326 Q 331.459961 14.835938 332.990723 14.835938 Q 333.479492 14.835938 333.914551 14.946045 Q 334.349609 15.056152 334.763184 15.276367 L 334.763184 16.388184 Q 334.365723 16.060547 333.909180 15.888672 Q 333.452637 15.716797 332.990723 15.716797 Q 331.932617 15.716797 331.406250 16.533203 Q 330.879883 17.349609 330.879883 18.998535 Q 330.879883 20.642090 331.406250 21.458496 Q 331.932617 22.274902 332.990723 22.274902 Q 333.463379 22.274902 333.917236 22.103027 Q 334.371094 21.931152 334.763184 21.603516 Z " fill="rgb(0, 0, 0)" fill-opacity="1.000000" />
<path d="M 339.308594 17.677246 Q 338.556641 17.677246 338.169922 18.262695 Q 337.783203 18.848145 337.783203 19.997559 Q 337.783203 21.141602 338.169922 21.729736 Q 338.556641 22.317871 339.308594 22.317871 Q 340.065918 22.317871 340.452637 21.729736 Q 340.839355 21.141602 340.839355 19.997559 Q 340.839355 18.848145 340.452637 18.262695 Q 340.065918 17.677246 339.308594 17.677246 Z M 339.308594 16.839355 Q 340.560059 16.839355 341.223389 17.650391 Q 341.886719 18.461426 341.886719 19.997559 Q 341.886719 21.539062 341.226074 22.347412 Q 340.565430 23.155762 339.308594 23.155762 Q 338.057129 23.155762 337.396484 22.347412 Q 336.735840 21.539062 336.735840 19.997559 Q 336.735840 18.461426 337.396484 17.650391 Q 338.057129 16.839355 339.308594 16.839355 Z " fill="rgb(0, 0, 0)" fill-opacity="1.000000" />
<path d="M 348.645020 19.272461 L 348.645020 23.000000 L 347.651367 23.000000 L 347.651367 19.272461 Q 347.651367 18.461426 347.366699 18.080078 Q 347.082031 17.698730 346.475098 17.698730 Q 345.782227 17.698730 345.408936 18.190186 Q 345.035645 18.681641 345.035645 19.600098 L 345.035645 23.000000 L 344.047363 23.000000 L 344.047363 16.984375 L 345.035645 16.984375 L 345.035645 17.886719 Q 345.298828 17.371094 345.750000 17.105225 Q 346.201172 16.839355 346.818848 16.839355 Q 347.737305 16.839355 348.191162 17.443604 Q 348.645020 18.047852 348.645020 19.272461 Z " fill="rgb(0, 0, 0)" fill-opacity="1.000000" />
<path d="M 355.226074 17.193848 L 355.226074 18.160645 Q 354.801758 17.913574 354.372070 17.790039 Q 353.942383 17.666504 353.496582 17.666504 Q 352.825195 17.666504 352.494873 17.884033 Q 352.164551 18.101562 352.164551 18.547363 Q 352.164551 18.950195 352.411621 19.148926 Q 352.658691 19.347656 353.641602 19.535645 L 354.039062 19.610840 Q 354.774902 19.750488 355.153564 20.169434 Q 355.532227 20.588379 355.532227 21.259766 Q 355.532227 22.151367 354.898438 22.653564 Q 354.264648 23.155762 353.136719 23.155762 Q 352.690918 23.155762 352.202148 23.061768 Q 351.713379 22.967773 351.144043 22.779785 L 351.144043 21.759277 Q 351.697266 22.043945 352.202148 22.186279 Q 352.707031 22.328613 353.158203 22.328613 Q 353.813477 22.328613 354.173340 22.062744 Q 354.533203 21.796875 354.533203 21.318848 Q 354.533203 20.631348 353.217285 20.368164 L 353.174316 20.357422 L 352.803711 20.282227 Q 351.949707 20.115723 351.557617 19.720947 Q 351.165527 19.326172 351.165527 18.644043 Q 351.165527 17.779297 351.750977 17.309326 Q 352.336426 16.839355 353.421387 16.839355 Q 353.904785 16.839355 354.350586 16.927979 Q 354.796387 17.016602 355.226074 17.193848 Z " fill="rgb(0, 0, 0)" fill-opacity="1.000000" />
<path d="M 358.047363 20.722656 L 358.047363 16.995117 L 359.035645 16.995117 L 359.035645 20.722656 Q 359.035645 21.533691 359.322998 21.915039 Q 359.610352 22.296387 360.211914 22.296387 Q 360.910156 22.296387 361.280762 21.804932 Q 361.651367 21.313477 361.651367 20.395020 L 361.651367 16.995117 L 362.645020 16.995117 L 362.645020 23.000000 L 361.651367 23.000000 L 361.651367 22.097656 Q 361.388184 22.618652 360.934326 22.887207 Q 360.480469 23.155762 359.873535 23.155762 Q 358.949707 23.155762 358.498535 22.551514 Q 358.047363 21.947266 358.047363 20.722656 Z " fill="rgb(0, 0, 0)" fill-opacity="1.000000" />
<path d="M 367.630859 17.596680 Q 367.813477 17.209961 368.095459 17.024658 Q 368.377441 16.839355 368.774902 16.839355 Q 369.500000 16.839355 369.798096 17.400635 Q 370.096191 17.961914 370.096191 19.514160 L 370.096191 23.000000 L 369.193848 23.000000 L 369.193848 19.557129 Q 369.193848 18.284180 369.051514 17.975342 Q 368.909180 17.666504 368.533203 17.666504 Q 368.103516 17.666504 367.945068 17.996826 Q 367.786621 18.327148 367.786621 19.557129 L 367.786621 23.000000 L 366.884277 23.000000 L 366.884277 19.557129 Q 366.884277 18.268066 366.731201 17.967285 Q 366.578125 17.666504 366.180664 17.666504 Q 365.788574 17.666504 365.635498 17.996826 Q 365.482422 18.327148 365.482422 19.557129 L 365.482422 23.000000 L 364.585449 23.000000 L 364.585449 16.984375 L 365.482422 16.984375 L 365.482422 17.500000 Q 365.659668 17.177734 365.925537 17.008545 Q 366.191406 16.839355 366.529785 16.839355 Q 366.937988 16.839355 367.209229 17.027344 Q 367.480469 17.215332 367.630859 17.596680 Z " fill="rgb(0, 0, 0)" fill-opacity="1.000000" />
<path d="M 377.015625 19.498047 L 377.015625 19.981445 L 372.734863 19.981445 L 372.734863 20.013672 Q 372.691895 21.243652 373.204834 21.780762 Q 373.717773 22.317871 374.652344 22.317871 Q 375.125000 22.317871 375.640625 22.167480 Q 376.156250 22.017090 376.741699 21.710938 L 376.741699 22.693848 Q 376.177734 22.924805 375.654053 23.040283 Q 375.130371 23.155762 374.641602 23.155762 Q 373.239746 23.155762 372.450195 22.315186 Q 371.660645 21.474609 371.660645 19.997559 Q 371.660645 18.558105 372.434082 17.698730 Q 373.207520 16.839355 374.496582 16.839355 Q 375.645996 16.839355 376.309326 17.618164 Q 376.972656 18.396973 377.015625 19.498047 Z M 376.027344 19.208008 Q 375.962891 18.584961 375.573486 18.131104 Q 375.184082 17.677246 374.453613 17.677246 Q 373.739258 17.677246 373.277344 18.149902 Q 372.815430 18.622559 372.772461 19.213379 Z " fill="rgb(0, 0, 0)" fill-opacity="1.000000" />
<path d="M 384.203613 18.225098 Q 383.886719 17.978027 383.559082 17.865234 Q 383.231445 17.752441 382.839355 17.752441 Q 381.915527 17.752441 381.426758 18.332520 Q 380.937988 18.912598 380.937988 20.008301 L 380.937988 23.000000 L 379.944336 23.000000 L 379.944336 16.984375 L 380.937988 16.984375 L 380.937988 18.160645 Q 381.185059 17.521484 381.697998 17.180420 Q 382.210938 16.839355 382.914551 16.839355 Q 383.279785 16.839355 383.596680 16.930664 Q 383.913574 17.021973 384.203613 17.215332 Z " fill="rgb(0, 0, 0)" fill-opacity="1.000000" />
<path d="M 394.878906 26.319336 L 394.878906 12.300781 L 395.738281 12.300781 L 395.738281 26.319336 Z " fill="rgb(0, 0, 0)" fill-opacity="1.000000" />
<path d="M 41.892578 7.335938 L 41.892578 6.412109 L 48.729980 6.412109 L 48.729980 7.335938 Z " fill="rgb(0, 0, 0)" fill-opacity="1.000000" />
<path d="M 48.892578 7.335938 L 48.892578 6.412109 L 55.729980 6.412109 L 55.729980 7.335938 Z " fill="rgb(0, 0, 0)" fill-opacity="1.000000" />
<path d="M 55.892578 7.335938 L 55.892578 6.412109 L 62.729980 6.412109 L 62.729980 7.335938 Z " fill="rgb(0, 0, 0)" fill-opacity="1.000000" />
<path d="M 62.892578 7.335938 L 62.892578 6.412109 L 69.729980 6.412109 L 69.729980 7.335938 Z " fill="rgb(0, 0, 0)" fill-opacity="1.000000" />
<path d="M 69.892578 7.335938 L 69.892578 6.412109 L 76.729980 6.412109 L 76.729980 7.335938 Z " fill="rgb(0, 0, 0)" fill-opacity="1.000000" />
<path d="M 76.892578 7.335938 L 76.892578 6.412109 L 83.729980 6.412109 L 83.729980 7.335938 Z " fill="rgb(0, 0, 0)" fill-opacity="1.000000" />
<path d="M 83.892578 7.335938 L 83.892578 6.412109 L 90.729980 6.412109 L 90.729980 7.335938 Z " fill="rgb(0, 0, 0)" fill-opacity="1.000000" />
<path d="M 90.892578 7.335938 L 90.892578 6.412109 L 97.729980 6.412109 L 97.729980 7.335938 Z " fill="rgb(0, 0, 0)" fill-opacity="1.000000" />
<path d="M 100.878906 13.319336 L 100.878906 7.335938 L 97.892578 7.335938 L 97.892578 6.412109 L 101.738281 6.412109 L 101.738281 13.319336 Z " fill="rgb(0, 0, 0)" fill-opacity="1.000000" />
<path d="M 156.878906 13.319336 L 156.878906 6.412109 L 160.729980 6.412109 L 160.729980 7.335938 L 157.738281 7.335938 L 157.738281 13.319336 Z " fill="rgb(0, 0, 0)" fill-opacity="1.000000" />
<path d="M 160.892578 7.335938 L 160.892578 6.412109 L 167.729980 6.412109 L 167.729980 7.335938 Z " fill="rgb(0, 0, 0)" fill-opacity="1.000000" />
<path d="M 167.892578 7.335938 L 167.892578 6.412109 L 174.729980 6.412109 L 174.729980 7.335938 Z " fill="rgb(0, 0, 0)" fill-opacity="1.000000" />
<path d="M 174.892578 7.335938 L 174.892578 6.412109 L 181.729980 6.412109 L 181.729980 7.335938 Z " fill="rgb(0, 0, 0)" fill-opacity="1.000000" />
<path d="M 181.892578 7.335938 L 181.892578 6.412109 L 188.729980 6.412109 L 188.729980 7.335938 Z " fill="rgb(0, 0, 0)" fill-opacity="1.000000" />
<path d="M 188.892578 7.335938 L 188.892578 6.412109 L 195.729980 6.412109 L 195.729980 7.335938 Z " fill="rgb(0, 0, 0)" fill-opacity="1.000000" />
<path d="M 195.892578 7.335938 L 195.892578 6.412109 L 202.729980 6.412109 L 202.729980 7.335938 Z " fill="rgb(0, 0, 0)" fill-opacity="1.000000" />
<path d="M 202.892578 7.335938 L 202.892578 6.412109 L 209.729980 6.412109 L 209.729980 7.335938 Z " fill="rgb(0, 0, 0)" fill-opacity="1.000000" />
<path d="M 209.892578 7.335938 L 209.892578 6.412109 L 216.729980 6.412109 L 216.729980 7.335938 Z " fill="rgb(0, 0, 0)" fill-opacity="1.000000" />
<path d="M 219.878906 13.319336 L 219.878906 7.335938 L 216.892578 7.335938 L 216.892578 6.412109 L 220.738281 6.412109 L 220.738281 13.319336 Z " fill="rgb(0, 0, 0)" fill-opacity="1.000000" />
<path d="M 324.878906 13.319336 L 324.878906 6.412109 L 328.729980 6.412109 L 328.729980 7.335938 L 325.738281 7.335938 L 325.738281 13.319336 Z " fill="rgb(0, 0, 0)" fill-opacity="1.000000" />
<path d="M 328.892578 7.335938 L 328.892578 6.412109 L 335.729980 6.412109 L 335.729980 7.335938 Z " fill="rgb(0, 0, 0)" fill-opacity="1.000000" />
<path d="M 335.892578 7.335938 L 335.892578 6.412109 L 342.729980 6.412109 L 342.729980 7.335938 Z " fill="rgb(0, 0, 0)" fill-opacity="1.000000" />
<path d="M 342.892578 7.335938 L 342.892578 6.412109 L 349.729980 6.412109 L 349.729980 7.335938 Z " fill="rgb(0, 0, 0)" fill-opacity="1.000000" />
<path d="M 349.892578 7.335938 L 349.892578 6.412109 L 356.729980 6.412109 L 356.729980 7.335938 Z " fill="rgb(0, 0, 0)" fill-opacity="1.000000" />
<path d="M 356.892578 7.335938 L 356.892578 6.412109 L 363.729980 6.412109 L 363.729980 7.335938 Z " fill="rgb(0, 0, 0)" fill-opacity="1.000000" />
<path d="M 363.892578 7.335938 L 363.892578 6.412109 L 370.729980 6.412109 L 370.729980 7.335938 Z " fill="rgb(0, 0, 0)" fill-opacity="1.000000" />
<path d="M 370.892578 7.335938 L 370.892578 6.412109 L 377.729980 6.412109 L 377.729980 7.335938 Z " fill="rgb(0, 0, 0)" fill-opacity="1.000000" />
<path d="M 377.892578 7.335938 L 377.892578 6.412109 L 384.729980 6.412109 L 384.729980 7.335938 Z " fill="rgb(0, 0, 0)" fill-opacity="1.000000" />
<path d="M 384.892578 7.335938 L 384.892578 6.412109 L 391.729980 6.412109 L 391.729980 7.335938 Z " fill="rgb(0, 0, 0)" fill-opacity="1.000000" />
<path d="M 394.878906 13.319336 L 394.878906 7.335938 L 391.892578 7.335938 L 391.892578 6.412109 L 395.738281 6.412109 L 395.738281 13.319336 Z " fill="rgb(0, 0, 0)" fill-opacity="1.000000" />
</svg>